<svg xmlns="http://www.w3.org/2000/svg" viewBox="0 0 73.716 90.4">
  <defs>
    <style>
      .cls-1 {
        fill: #fff;
      }
    </style>
  </defs>
  <g id="like" transform="translate(-44.7)">
    <g id="Group_27" data-name="Group 27" transform="translate(44.7)">
      <path id="Path_3" data-name="Path 3" class="cls-1" d="M67.132,187.739a2.246,2.246,0,0,0-2.239-2.239H46.939a2.239,2.239,0,0,0,0,4.479H64.893A2.246,2.246,0,0,0,67.132,187.739Z" transform="translate(-44.7 -150.882)"/>
      <path id="Path_4" data-name="Path 4" class="cls-1" d="M339.693,185.5H321.739a2.239,2.239,0,0,0,0,4.479h17.953a2.239,2.239,0,0,0,0-4.479Z" transform="translate(-268.216 -150.882)"/>
      <path id="Path_5" data-name="Path 5" class="cls-1" d="M232.439,22.432a2.246,2.246,0,0,0,2.239-2.239V2.239a2.239,2.239,0,1,0-4.479,0V20.193A2.246,2.246,0,0,0,232.439,22.432Z" transform="translate(-195.581)"/>
      <path id="Path_6" data-name="Path 6" class="cls-1" d="M295.519,71.468a2.279,2.279,0,0,0,1.586-.653l12.709-12.709a2.243,2.243,0,0,0-3.173-3.173L293.933,67.642a2.242,2.242,0,0,0,0,3.173A2.313,2.313,0,0,0,295.519,71.468Z" transform="translate(-246.885 -44.146)"/>
      <path id="Path_7" data-name="Path 7" class="cls-1" d="M112.342,70.814a2.247,2.247,0,0,0,1.586.653,2.279,2.279,0,0,0,1.586-.653,2.241,2.241,0,0,0,0-3.173L102.805,54.933a2.243,2.243,0,0,0-3.173,3.173Z" transform="translate(-88.846 -44.146)"/>
      <path id="Path_8" data-name="Path 8" class="cls-1" d="M121.89,175.467a9.3,9.3,0,0,0-6.028-2.258H103.041v-9.051c0-4.33-1.288-7.484-3.844-9.368-4.031-2.949-9.5-1.288-9.742-1.213a2.24,2.24,0,0,0-1.568,2.128v10.917c0,3.322-1.586,6.14-4.74,8.4A19.1,19.1,0,0,1,78,177.613l-.224.056a4.582,4.582,0,0,0-3.453-1.549H65.81a4.62,4.62,0,0,0-4.61,4.61v27.919a4.62,4.62,0,0,0,4.61,4.61h8.547a4.544,4.544,0,0,0,2.949-1.082,9.4,9.4,0,0,0,6.569,2.706h26.743a12.281,12.281,0,0,0,6.868-1.866,9.9,9.9,0,0,0,4.162-7.222l3.453-21.462A9.653,9.653,0,0,0,121.89,175.467Zm-47.4,33.182a.128.128,0,0,1-.131.131H65.81a.128.128,0,0,1-.131-.131V180.73a.128.128,0,0,1,.131-.131h8.547a.128.128,0,0,1,.131.131Zm46.189-25.007-3.453,21.5a.2.2,0,0,1-.019.093c-.149,1.288-.635,5.188-6.588,5.188H83.875a4.961,4.961,0,0,1-4.852-4.162c-.019-.093-.037-.187-.056-.261V182l.131-.037c.037,0,.056-.019.093-.019a22.782,22.782,0,0,0,6.457-3.191c4.386-3.117,6.718-7.316,6.718-12.13v-9.07a6.119,6.119,0,0,1,4.18.84c1.344.989,2.016,2.93,2.016,5.748V175.43a2.246,2.246,0,0,0,2.239,2.239h15.06a4.9,4.9,0,0,1,3.117,1.176A5.262,5.262,0,0,1,120.677,183.641Z" transform="translate(-58.121 -124.482)"/>
    </g>
  </g>
</svg>
