<svg id="logo" data-name="Group 41" xmlns="http://www.w3.org/2000/svg" viewBox="0 0 56.878 65.523">
<style>
	.logo {
		transition: fill 350ms ease-out;
	}
</style>
<path id="logo-j" class="logo" fill="#000" stroke="#FFF" stroke-width="1" stroke-linecap="round" stroke-linejoin="round" d="M44,8.881V8.54a3.665,3.665,0,0,0-3.64-3.64,3.743,3.743,0,0,0-3.64,3.64,3.743,3.743,0,0,0,3.64,3.64,4.769,4.769,0,0,0,1.82-.455L52.42,18.209V46.421L28.076,60.981l-3.413-1.82v-45.5H21.251V47.786l-10.238-6.37V37.206H7.6v6.029l13.537,8.418V61.1l6.939,3.754L55.832,48.354V16.276Z"/>
<path id="logo-d" class="logo" fill="#000" stroke="#FFF" stroke-width="1" stroke-linecap="round" stroke-linejoin="round" d="M15.243,52.327a3.176,3.176,0,0,0-2.048.683L3.413,47.55V18.77l24.8-14.788,2.958,1.593V53.465L48,44.023V21.955l-13.2-8.19-.228.341V3.526L28.1,0,0,16.836V49.711l11.6,6.37h0a3.665,3.665,0,0,0,3.64,3.64,3.743,3.743,0,0,0,3.64-3.64A3.621,3.621,0,0,0,15.243,52.327Zm19.338-34.7,10.01,6.143v18.2L34.582,47.55Z"/>
</svg>
