<svg id="trilhas" xmlns="http://www.w3.org/2000/svg" viewBox="0 0 350 245">
<style>
  #trilhas {
    object-fit: cover;
    height: 100%;
    width: auto;
  }
	.st0 {
		transition: fill 350ms ease-out;
		fill: transparent;
		stroke: #64DDB8;
		stroke-width: .25;
		stroke-linecap: round;
		stroke-linejoin: round;
	}
</style>
<path class="st0" d="M45.5,3.5"/>
<path class="st0" d="M17.5,8.3c-0.2,0-0.5,0-0.7,0.1l-5.9-5.9H5.5c-0.4-0.7-1.1-1.2-2-1.2c-1.2,0-2.2,1-2.2,2.2s1,2.2,2.2,2.2
	c0.9,0,1.6-0.5,1.9-1.2l4.6,0l5.4,5.3c-0.1,0.2-0.1,0.5-0.1,0.7c0,1.2,1,2.2,2.2,2.2s2.2-1,2.2-2.2S18.7,8.3,17.5,8.3z"/>
<path class="st0" d="M24.5,1.3c-0.9,0-1.6,0.5-2,1.2h-3.1c-0.4-0.7-1.1-1.2-2-1.2c-1.2,0-2.2,1-2.2,2.2s1,2.2,2.2,2.2
	c0.9,0,1.7-0.5,2-1.3l3,0c0.3,0.8,1.1,1.3,2,1.3c1.2,0,2.2-1,2.2-2.2S25.7,1.3,24.5,1.3z"/>
<path class="st0" d="M23.9,5.9"/>
<path class="st0" d="M10.5,8.3c-0.9,0-1.6,0.5-2,1.2H5.5c-0.4-0.7-1.1-1.2-2-1.2c-1.2,0-2.2,1-2.2,2.2s1,2.2,2.2,2.2
	c0.9,0,1.7-0.5,2-1.3l3,0c0.3,0.8,1.1,1.3,2,1.3c1.2,0,2.2-1,2.2-2.2S11.7,8.3,10.5,8.3z"/>
<path class="st0" d="M5.7,24.5c0-0.9-0.5-1.6-1.2-2v-3.1c0.7-0.4,1.2-1.1,1.2-2c0-1.2-1-2.2-2.2-2.2s-2.2,1-2.2,2.2
	c0,0.9,0.5,1.7,1.3,2l0,3c-0.8,0.3-1.3,1.1-1.3,2c0,1.2,1,2.2,2.2,2.2S5.7,25.7,5.7,24.5z"/>
<path class="st0" d="M26.7,24.5c0-0.9-0.5-1.6-1.2-2v-3.1c0.7-0.4,1.2-1.1,1.2-2c0-1.2-1-2.2-2.2-2.2s-2.2,1-2.2,2.2
	c0,0.9,0.5,1.7,1.3,2l0,3c-0.8,0.4-1.3,1.1-1.3,2c0,1.2,1,2.2,2.2,2.2S26.7,25.7,26.7,24.5z"/>
<path class="st0" d="M59.5,8.3c-0.9,0-1.6,0.5-2,1.2h-3.1c-0.4-0.7-1.1-1.2-2-1.2c-1.2,0-2.2,1-2.2,2.2s1,2.2,2.2,2.2
	c0.9,0,1.7-0.5,2-1.3l3,0c0.3,0.8,1.1,1.3,2,1.3c1.2,0,2.2-1,2.2-2.2S60.7,8.3,59.5,8.3z"/>
<path class="st0" d="M52.5,29.3c-0.9,0-1.6,0.5-2,1.2h-3.1c-0.4-0.7-1.1-1.2-2-1.2c-1.2,0-2.2,1-2.2,2.2s1,2.2,2.2,2.2
	c0.9,0,1.7-0.5,2-1.3l3,0c0.3,0.8,1.1,1.3,2,1.3c1.2,0,2.2-1,2.2-2.2S53.7,29.3,52.5,29.3z"/>
<path class="st0" d="M73.5,36.3c-0.9,0-1.6,0.5-2,1.2h-3.1c-0.4-0.7-1.1-1.2-2-1.2c-1.2,0-2.2,1-2.2,2.2s1,2.2,2.2,2.2
	c0.9,0,1.7-0.5,2-1.3l3,0c0.3,0.8,1.1,1.3,2,1.3c1.2,0,2.2-1,2.2-2.2S74.7,36.3,73.5,36.3z"/>
<path class="st0" d="M5.7,87.5c0-0.9-0.5-1.6-1.2-2v-3.1c0.7-0.4,1.2-1.1,1.2-2c0-1.2-1-2.2-2.2-2.2s-2.2,1-2.2,2.2
	c0,0.9,0.5,1.7,1.3,2l0,3c-0.8,0.3-1.3,1.1-1.3,2c0,1.2,1,2.2,2.2,2.2S5.7,88.7,5.7,87.5z"/>
<path class="st0" d="M12.7,108.5c0-0.9-0.5-1.6-1.2-2v-3.1c0.7-0.4,1.2-1.1,1.2-2c0-1.2-1-2.2-2.2-2.2s-2.2,1-2.2,2.2
	c0,0.9,0.5,1.7,1.3,2l0,3c-0.8,0.3-1.3,1.1-1.3,2c0,1.2,1,2.2,2.2,2.2S12.7,109.7,12.7,108.5z"/>
<path class="st0" d="M26.7,108.5c0-0.9-0.5-1.6-1.2-2v-3.1c0.7-0.4,1.2-1.1,1.2-2c0-1.2-1-2.2-2.2-2.2s-2.2,1-2.2,2.2
	c0,0.9,0.5,1.7,1.3,2l0,3c-0.8,0.3-1.3,1.1-1.3,2c0,1.2,1,2.2,2.2,2.2S26.7,109.7,26.7,108.5z"/>
<path class="st0" d="M33.7,108.5c0-0.9-0.5-1.6-1.2-2v-3.1c0.7-0.4,1.2-1.1,1.2-2c0-1.2-1-2.2-2.2-2.2s-2.2,1-2.2,2.2
	c0,0.9,0.5,1.7,1.3,2l0,3c-0.8,0.3-1.3,1.1-1.3,2c0,1.2,1,2.2,2.2,2.2C32.7,110.7,33.7,109.7,33.7,108.5z"/>
<path class="st0" d="M26.7,136.5c0-0.9-0.5-1.6-1.2-2v-3.1c0.7-0.4,1.2-1.1,1.2-2c0-1.2-1-2.2-2.2-2.2s-2.2,1-2.2,2.2
	c0,0.9,0.5,1.7,1.3,2l0,3c-0.8,0.4-1.3,1.1-1.3,2c0,1.2,1,2.2,2.2,2.2S26.7,137.7,26.7,136.5z"/>
<path class="st0" d="M5.7,178.5c0-0.9-0.5-1.6-1.2-2v-3.1c0.7-0.4,1.2-1.1,1.2-2c0-1.2-1-2.2-2.2-2.2s-2.2,1-2.2,2.2
	c0,0.9,0.5,1.7,1.3,2l0,3c-0.8,0.4-1.3,1.1-1.3,2c0,1.2,1,2.2,2.2,2.2S5.7,179.7,5.7,178.5z"/>
<path class="st0" d="M12.7,206.5c0-0.9-0.5-1.6-1.2-2v-3.1c0.7-0.4,1.2-1.1,1.2-2c0-1.2-1-2.2-2.2-2.2s-2.2,1-2.2,2.2
	c0,0.9,0.5,1.7,1.3,2l0,3c-0.8,0.4-1.3,1.1-1.3,2c0,1.2,1,2.2,2.2,2.2S12.7,207.7,12.7,206.5z"/>
<path class="st0" d="M19.7,234.5c0-0.9-0.5-1.6-1.2-2v-3.1c0.7-0.4,1.2-1.1,1.2-2c0-1.2-1-2.2-2.2-2.2s-2.2,1-2.2,2.2
	c0,0.9,0.5,1.7,1.3,2l0,3c-0.8,0.4-1.3,1.1-1.3,2c0,1.2,1,2.2,2.2,2.2S19.7,235.7,19.7,234.5z"/>
<path class="st0" d="M26.7,234.5c0-0.9-0.5-1.6-1.2-2v-3.1c0.7-0.4,1.2-1.1,1.2-2c0-1.2-1-2.2-2.2-2.2s-2.2,1-2.2,2.2
	c0,0.9,0.5,1.7,1.3,2l0,3c-0.8,0.4-1.3,1.1-1.3,2c0,1.2,1,2.2,2.2,2.2S26.7,235.7,26.7,234.5z"/>
<path class="st0" d="M31.5,183.3c-0.9,0-1.6,0.5-2,1.2h-3.1c-0.4-0.7-1.1-1.2-2-1.2c-1.2,0-2.2,1-2.2,2.2s1,2.2,2.2,2.2
	c0.9,0,1.7-0.5,2-1.3l3,0c0.4,0.8,1.1,1.3,2,1.3c1.2,0,2.2-1,2.2-2.2S32.7,183.3,31.5,183.3z"/>
<path class="st0" d="M31.5,190.3c-0.9,0-1.6,0.5-2,1.2h-3.1c-0.4-0.7-1.1-1.2-2-1.2c-1.2,0-2.2,1-2.2,2.2s1,2.2,2.2,2.2
	c0.9,0,1.7-0.5,2-1.3l3,0c0.4,0.8,1.1,1.3,2,1.3c1.2,0,2.2-1,2.2-2.2S32.7,190.3,31.5,190.3z"/>
<path class="st0" d="M40.7,192.5c0-0.9-0.5-1.6-1.2-2v-3.1c0.7-0.4,1.2-1.1,1.2-2c0-1.2-1-2.2-2.2-2.2s-2.2,1-2.2,2.2
	c0,0.9,0.5,1.7,1.3,2l0,3c-0.8,0.4-1.3,1.1-1.3,2c0,1.2,1,2.2,2.2,2.2S40.7,193.7,40.7,192.5z"/>
<path class="st0" d="M38.5,239.3c-0.9,0-1.6,0.5-2,1.2h-3.1c-0.4-0.7-1.1-1.2-2-1.2c-1.2,0-2.2,1-2.2,2.2s1,2.2,2.2,2.2
	c0.9,0,1.7-0.5,2-1.3l3,0c0.3,0.8,1.1,1.3,2,1.3c1.2,0,2.2-1,2.2-2.2S39.7,239.3,38.5,239.3z"/>
<path class="st0" d="M80.5,239.3c-0.9,0-1.6,0.5-2,1.2h-3.1c-0.4-0.7-1.1-1.2-2-1.2c-1.2,0-2.2,1-2.2,2.2s1,2.2,2.2,2.2
	c0.9,0,1.7-0.5,2-1.3l3,0c0.3,0.8,1.1,1.3,2,1.3c1.2,0,2.2-1,2.2-2.2S81.7,239.3,80.5,239.3z"/>
<path class="st0" d="M115.5,239.3c-0.9,0-1.6,0.5-2,1.2h-3.1c-0.4-0.7-1.1-1.2-2-1.2c-1.2,0-2.2,1-2.2,2.2s1,2.2,2.2,2.2
	c0.9,0,1.7-0.5,2-1.3l3,0c0.3,0.8,1.1,1.3,2,1.3c1.2,0,2.2-1,2.2-2.2S116.7,239.3,115.5,239.3z"/>
<path class="st0" d="M45.5,1.3c-0.9,0-1.6,0.5-2,1.2H38l-6.9,7l-6.9-0.1l-5.9,6c-0.2-0.1-0.4-0.1-0.7-0.1c-1.2,0-2.2,1-2.2,2.2
	s1,2.2,2.2,2.2s2.2-1,2.2-2.2c0-0.3-0.1-0.5-0.2-0.8l5.3-5.2h7.1l7-7h4.7c0.4,0.7,1.1,1.2,1.9,1.2c1.2,0,2.2-1,2.2-2.2
	S46.7,1.3,45.5,1.3z"/>
<path class="st0" d="M33.7,17.5c0-1.2-1-2.2-2.2-2.2s-2.2,1-2.2,2.2c0,0.9,0.5,1.6,1.2,2l-0.1,4.7l-5.3,5.3
	c-0.2-0.1-0.4-0.1-0.6-0.1c-1.2,0-2.2,1-2.2,2.2s1,2.2,2.2,2.2s2.2-1,2.2-2.2c0-0.2,0-0.5-0.1-0.7l5.9-5.9v-5.5
	C33.2,19.1,33.7,18.4,33.7,17.5z"/>
<path class="st0" d="M66.5,8.3c-0.2,0-0.5,0-0.7,0.1l-6-5.9H52L37.5,17.2v6.9L25.2,36.4c-0.2-0.1-0.5-0.1-0.7-0.1
	c-1.2,0-2.2,1-2.2,2.2s1,2.2,2.2,2.2s2.2-1,2.2-2.2c0-0.3-0.1-0.6-0.2-0.8L39.4,25v-7.1L52.9,4.4h6.2l5.3,5.4
	c-0.1,0.2-0.1,0.4-0.1,0.7c0,1.2,1,2.2,2.2,2.2s2.2-1,2.2-2.2S67.7,8.3,66.5,8.3z"/>
<path class="st0" d="M73.5,15.3c-1.2,0-2.2,1-2.2,2.2c0,0.2,0,0.4,0.1,0.6l-5.3,5.4h-6.2l-7-7h-5.4c-0.4-0.7-1.1-1.2-2-1.2
	c-1.2,0-2.2,1-2.2,2.2s1,2.2,2.2,2.2c0.9,0,1.6-0.5,2-1.2l4.7,0l7,7.1h7.8l5.9-5.9c0.2,0.1,0.4,0.1,0.7,0.1c1.2,0,2.2-1,2.2-2.2
	S74.7,15.3,73.5,15.3z"/>
<path class="st0" d="M38.9,51.5l-7,0L18.5,38.1l0-14l-5.9-5.9c0.1-0.2,0.1-0.4,0.1-0.7c0-1.2-1-2.2-2.2-2.2s-2.2,1-2.2,2.2
	s1,2.2,2.2,2.2c0.2,0,0.4,0,0.6-0.1l5.4,5.3v14l14.6,14.6l7,0l6.4,6.4v6.1l-6.4,6.4h-6.2L18.5,59.1l0-11.6c0.7-0.4,1.2-1.1,1.2-2
	c0-1.2-1-2.2-2.2-2.2s-2.2,1-2.2,2.2c0,0.9,0.5,1.6,1.2,2v12.5l14.6,14.6h7.8l7.6-7.6v-7.8L38.9,51.5z"/>
<path class="st0" d="M73.5,43.3c-0.9,0-1.6,0.5-1.9,1.2h-4.7l-6.4-6.4v-7l-7.6-7.6l-7.8,0l-5.9,5.9c-0.2-0.1-0.4-0.1-0.6-0.1
	c-1.2,0-2.2,1-2.2,2.2s1,2.2,2.2,2.2s2.2-1,2.2-2.2c0-0.2,0-0.5-0.1-0.7l5.3-5.3l6.2,0l6.4,6.4v7l7.6,7.6h5.5c0.4,0.7,1.1,1.2,2,1.2
	c1.2,0,2.2-1,2.2-2.2S74.7,43.3,73.5,43.3z"/>
<path class="st0" d="M73.5,50.3c-0.9,0-1.6,0.5-1.9,1.2h-4.6l-14-14H38.1l-5.9,5.9c-0.2-0.1-0.4-0.1-0.7-0.1c-1.2,0-2.2,1-2.2,2.2
	s1,2.2,2.2,2.2c1.2,0,2.2-1,2.2-2.2c0-0.2,0-0.5-0.1-0.7l5.3-5.3h13.2l14,14h5.5c0.4,0.7,1.1,1.2,2,1.2c1.2,0,2.2-1,2.2-2.2
	S74.7,50.3,73.5,50.3z"/>
<path class="st0" d="M59.5,50.3c-0.2,0-0.5,0-0.7,0.1l-5.9-5.9l-12.5,0c-0.4-0.7-1.1-1.2-1.9-1.2c-1.2,0-2.2,1-2.2,2.2
	s1,2.2,2.2,2.2c0.9,0,1.6-0.5,1.9-1.2l11.6,0l5.3,5.3c-0.1,0.2-0.1,0.4-0.1,0.7c0,1.2,1,2.2,2.2,2.2s2.2-1,2.2-2.2
	S60.7,50.3,59.5,50.3z"/>
<path class="st0" d="M59.5,57.3c-0.2,0-0.5,0-0.7,0.1l-5.9-5.9l-5.5,0c-0.4-0.7-1.1-1.2-2-1.2c-1.2,0-2.2,1-2.2,2.2s1,2.2,2.2,2.2
	c0.9,0,1.6-0.5,2-1.2l4.6,0l5.3,5.3c-0.1,0.2-0.1,0.4-0.1,0.7c0,1.2,1,2.2,2.2,2.2s2.2-1,2.2-2.2S60.7,57.3,59.5,57.3z"/>
<path class="st0" d="M31.5,57.3c-0.2,0-0.5,0-0.7,0.1l-4.2-4.3c0.1-0.2,0.1-0.4,0.1-0.6c0-1.2-1-2.2-2.2-2.2s-2.2,1-2.2,2.2
	s1,2.2,2.2,2.2c0.2,0,0.5,0,0.7-0.1l4.3,4.2c-0.1,0.2-0.1,0.4-0.1,0.7c0,1.2,1,2.2,2.2,2.2c1.2,0,2.2-1,2.2-2.2S32.7,57.3,31.5,57.3
	z"/>
<path class="st0" d="M38.5,57.3c-1.2,0-2.2,1-2.2,2.2c0,0.2,0,0.5,0.1,0.7l-4.3,4.2c-0.2-0.1-0.4-0.1-0.7-0.1c-1.2,0-2.2,1-2.2,2.2
	s1,2.2,2.2,2.2s2.2-1,2.2-2.2c0-0.2,0-0.5-0.1-0.7l4.2-4.3c0.2,0.1,0.4,0.1,0.7,0.1c1.2,0,2.2-1,2.2-2.2S39.7,57.3,38.5,57.3z"/>
<path class="st0" d="M59.5,64.3c-0.2,0-0.5,0-0.7,0.1l-4.2-4.3c0.1-0.2,0.1-0.4,0.1-0.7c0-1.2-1-2.2-2.2-2.2s-2.2,1-2.2,2.2
	s1,2.2,2.2,2.2c0.2,0,0.5,0,0.7-0.1l4.2,4.3c-0.1,0.2-0.1,0.4-0.1,0.7c0,1.2,1,2.2,2.2,2.2s2.2-1,2.2-2.2
	C61.7,65.3,60.7,64.3,59.5,64.3z"/>
<path class="st0" d="M11.5,50.5V33.5c0.7-0.4,1.2-1.1,1.2-2c0-1.2-1-2.2-2.2-2.2s-2.2,1-2.2,2.2c0,0.8,0.5,1.6,1.2,1.9l0,17.1
	c-0.7,0.4-1.2,1.1-1.2,1.9c0,1.2,1,2.2,2.2,2.2s2.2-1,2.2-2.2C12.7,51.6,12.2,50.9,11.5,50.5z"/>
<path class="st0" d="M87.5,8.3c-0.8,0-1.6,0.5-1.9,1.2l-12.5,0l-7,7h-4.7c-0.4-0.7-1.1-1.2-1.9-1.2c-1.2,0-2.2,1-2.2,2.2
	s1,2.2,2.2,2.2c0.9,0,1.6-0.5,1.9-1.2h5.5l7-7l11.6,0c0.4,0.7,1.1,1.2,2,1.2c1.2,0,2.2-1,2.2-2.2S88.7,8.3,87.5,8.3z"/>
<path class="st0" d="M24.5,71.3c-0.9,0-1.6,0.5-2,1.2h-4.7L11.4,66l0-7l-7-7V31.9l5.3-5.3c0.2,0.1,0.4,0.1,0.7,0.1
	c1.2,0,2.2-1,2.2-2.2s-1-2.2-2.2-2.2s-2.2,1-2.2,2.2c0,0.2,0,0.4,0.1,0.7l-5.9,6v21.8l7,7l0,7l7.6,7.5h5.4c0.4,0.7,1.1,1.2,2,1.2
	c1.2,0,2.2-1,2.2-2.2C26.7,72.3,25.7,71.3,24.5,71.3z"/>
<path class="st0" d="M31.5,78.3c-0.8,0-1.6,0.5-1.9,1.2H17.9l-5.3-5.3c0.1-0.2,0.1-0.4,0.1-0.7c0-1.2-1-2.2-2.2-2.2s-2.2,1-2.2,2.2
	s1,2.2,2.2,2.2c0.2,0,0.5-0.1,0.7-0.1l5.8,5.9h12.5c0.4,0.7,1.1,1.2,2,1.2c1.2,0,2.2-1,2.2-2.2C33.7,79.3,32.7,78.3,31.5,78.3z"/>
<path class="st0" d="M11.5,80.1l-7-7l0-11.6c0.7-0.4,1.3-1.1,1.3-2c0-1.2-1-2.2-2.2-2.2s-2.2,1-2.2,2.2c0,0.9,0.5,1.6,1.2,2v12.5
	l7,7v6.2l-5.4,5.3c-0.2-0.1-0.4-0.1-0.6-0.1c-1.2,0-2.2,1-2.2,2.2s1,2.2,2.2,2.2s2.2-1,2.2-2.2c0-0.2,0-0.5-0.1-0.7l5.9-5.9
	C11.5,87.9,11.5,80.1,11.5,80.1z"/>
<path class="st0" d="M103.7,24.5c0-0.9-0.5-1.6-1.2-2v-3.1c0.7-0.4,1.2-1.1,1.2-2c0-1.2-1-2.2-2.2-2.2s-2.2,1-2.2,2.2
	c0,0.9,0.5,1.7,1.3,2l0,3c-0.8,0.4-1.3,1.1-1.3,2c0,1.2,1,2.2,2.2,2.2S103.7,25.7,103.7,24.5z"/>
<path class="st0" d="M166.7,31.5c0-0.9-0.5-1.6-1.2-2v-3.1c0.7-0.4,1.2-1.1,1.2-2c0-1.2-1-2.2-2.2-2.2s-2.2,1-2.2,2.2
	c0,0.9,0.5,1.7,1.3,2l0,3c-0.8,0.4-1.3,1.1-1.3,2c0,1.2,1,2.2,2.2,2.2S166.7,32.7,166.7,31.5z"/>
<path class="st0" d="M173.7,66.5c0-0.9-0.5-1.6-1.2-2v-3.1c0.7-0.4,1.2-1.1,1.2-2c0-1.2-1-2.2-2.2-2.2s-2.2,1-2.2,2.2
	c0,0.9,0.5,1.7,1.3,2l0,3c-0.8,0.3-1.3,1.1-1.3,2c0,1.2,1,2.2,2.2,2.2S173.7,67.7,173.7,66.5z"/>
<path class="st0" d="M250.7,66.5c0-0.9-0.5-1.6-1.2-2v-3.1c0.7-0.4,1.2-1.1,1.2-2c0-1.2-1-2.2-2.2-2.2s-2.2,1-2.2,2.2
	c0,0.9,0.5,1.7,1.3,2l0,3c-0.8,0.3-1.3,1.1-1.3,2c0,1.2,1,2.2,2.2,2.2S250.7,67.7,250.7,66.5z"/>
<path class="st0" d="M327.7,17.5c0-0.9-0.5-1.6-1.2-2v-3.1c0.7-0.4,1.2-1.1,1.2-2c0-1.2-1-2.2-2.2-2.2s-2.2,1-2.2,2.2
	c0,0.9,0.5,1.7,1.3,2l0,3c-0.8,0.4-1.3,1.1-1.3,2c0,1.2,1,2.2,2.2,2.2S327.7,18.7,327.7,17.5z"/>
<path class="st0" d="M341.7,94.5c0-0.9-0.5-1.6-1.2-2v-3.1c0.7-0.4,1.2-1.1,1.2-2c0-1.2-1-2.2-2.2-2.2s-2.2,1-2.2,2.2
	c0,0.9,0.5,1.7,1.3,2l0,3c-0.8,0.3-1.3,1.1-1.3,2c0,1.2,1,2.2,2.2,2.2S341.7,95.7,341.7,94.5z"/>
<path class="st0" d="M306.7,101.5c0-0.9-0.5-1.6-1.2-2v-3.1c0.7-0.4,1.2-1.1,1.2-2c0-1.2-1-2.2-2.2-2.2s-2.2,1-2.2,2.2
	c0,0.9,0.5,1.7,1.3,2l0,3c-0.8,0.3-1.3,1.1-1.3,2c0,1.2,1,2.2,2.2,2.2S306.7,102.7,306.7,101.5z"/>
<path class="st0" d="M278.7,108.5c0-0.9-0.5-1.6-1.2-2v-3.1c0.7-0.4,1.2-1.1,1.2-2c0-1.2-1-2.2-2.2-2.2s-2.2,1-2.2,2.2
	c0,0.9,0.5,1.7,1.3,2l0,3c-0.8,0.3-1.3,1.1-1.3,2c0,1.2,1,2.2,2.2,2.2S278.7,109.7,278.7,108.5z"/>
<path class="st0" d="M278.7,143.5c0-0.9-0.5-1.6-1.2-2v-3.1c0.7-0.4,1.2-1.1,1.2-2c0-1.2-1-2.2-2.2-2.2s-2.2,1-2.2,2.2
	c0,0.9,0.5,1.7,1.3,2l0,3c-0.8,0.4-1.3,1.1-1.3,2c0,1.2,1,2.2,2.2,2.2S278.7,144.7,278.7,143.5z"/>
<path class="st0" d="M285.7,143.5c0-0.9-0.5-1.6-1.2-2v-3.1c0.7-0.4,1.2-1.1,1.2-2c0-1.2-1-2.2-2.2-2.2s-2.2,1-2.2,2.2
	c0,0.9,0.5,1.7,1.3,2l0,3c-0.8,0.4-1.3,1.1-1.3,2c0,1.2,1,2.2,2.2,2.2S285.7,144.7,285.7,143.5z"/>
<path class="st0" d="M327.7,143.5c0-0.9-0.5-1.6-1.2-2v-3.1c0.7-0.4,1.2-1.1,1.2-2c0-1.2-1-2.2-2.2-2.2s-2.2,1-2.2,2.2
	c0,0.9,0.5,1.7,1.3,2l0,3c-0.8,0.4-1.3,1.1-1.3,2c0,1.2,1,2.2,2.2,2.2S327.7,144.7,327.7,143.5z"/>
<path class="st0" d="M327.7,178.5c0-0.9-0.5-1.6-1.2-2v-3.1c0.7-0.4,1.2-1.1,1.2-2c0-1.2-1-2.2-2.2-2.2s-2.2,1-2.2,2.2
	c0,0.9,0.5,1.7,1.3,2l0,3c-0.8,0.4-1.3,1.1-1.3,2c0,1.2,1,2.2,2.2,2.2S327.7,179.7,327.7,178.5z"/>
<path class="st0" d="M320.7,192.5c0-0.9-0.5-1.6-1.2-2v-3.1c0.7-0.4,1.2-1.1,1.2-2c0-1.2-1-2.2-2.2-2.2s-2.2,1-2.2,2.2
	c0,0.9,0.5,1.7,1.3,2l0,3c-0.8,0.4-1.3,1.1-1.3,2c0,1.2,1,2.2,2.2,2.2S320.7,193.7,320.7,192.5z"/>
<path class="st0" d="M320.7,213.5c0-0.9-0.5-1.6-1.2-2v-3.1c0.7-0.4,1.2-1.1,1.2-2c0-1.2-1-2.2-2.2-2.2s-2.2,1-2.2,2.2
	c0,0.9,0.5,1.7,1.3,2l0,3c-0.8,0.4-1.3,1.1-1.3,2c0,1.2,1,2.2,2.2,2.2S320.7,214.7,320.7,213.5z"/>
<path class="st0" d="M334.7,213.5c0-0.9-0.5-1.6-1.2-2v-3.1c0.7-0.4,1.2-1.1,1.2-2c0-1.2-1-2.2-2.2-2.2s-2.2,1-2.2,2.2
	c0,0.9,0.5,1.7,1.3,2l0,3c-0.8,0.4-1.3,1.1-1.3,2c0,1.2,1,2.2,2.2,2.2S334.7,214.7,334.7,213.5z"/>
<path class="st0" d="M348.7,206.5c0-0.9-0.5-1.6-1.2-2v-3.1c0.7-0.4,1.2-1.1,1.2-2c0-1.2-1-2.2-2.2-2.2s-2.2,1-2.2,2.2
	c0,0.9,0.5,1.7,1.3,2l0,3c-0.8,0.4-1.3,1.1-1.3,2c0,1.2,1,2.2,2.2,2.2S348.7,207.7,348.7,206.5z"/>
<path class="st0" d="M264.7,199.5c0-0.9-0.5-1.6-1.2-2v-3.1c0.7-0.4,1.2-1.1,1.2-2c0-1.2-1-2.2-2.2-2.2s-2.2,1-2.2,2.2
	c0,0.9,0.5,1.7,1.3,2l0,3c-0.8,0.4-1.3,1.1-1.3,2c0,1.2,1,2.2,2.2,2.2S264.7,200.7,264.7,199.5z"/>
<path class="st0" d="M257.7,199.5c0-0.9-0.5-1.6-1.2-2v-3.1c0.7-0.4,1.2-1.1,1.2-2c0-1.2-1-2.2-2.2-2.2c-1.2,0-2.2,1-2.2,2.2
	c0,0.9,0.5,1.7,1.3,2l0,3c-0.8,0.4-1.3,1.1-1.3,2c0,1.2,1,2.2,2.2,2.2C256.7,201.7,257.7,200.7,257.7,199.5z"/>
<path class="st0" d="M229.7,234.5c0-0.9-0.5-1.6-1.2-2v-3.1c0.7-0.4,1.2-1.1,1.2-2c0-1.2-1-2.2-2.2-2.2s-2.2,1-2.2,2.2
	c0,0.9,0.5,1.7,1.3,2l0,3c-0.8,0.4-1.3,1.1-1.3,2c0,1.2,1,2.2,2.2,2.2S229.7,235.7,229.7,234.5z"/>
<path class="st0" d="M194.7,213.5c0-0.9-0.5-1.6-1.2-2v-3.1c0.7-0.4,1.2-1.1,1.2-2c0-1.2-1-2.2-2.2-2.2s-2.2,1-2.2,2.2
	c0,0.9,0.5,1.7,1.3,2l0,3c-0.8,0.4-1.3,1.1-1.3,2c0,1.2,1,2.2,2.2,2.2S194.7,214.7,194.7,213.5z"/>
<path class="st0" d="M236.7,129.5c0-0.9-0.5-1.6-1.2-2v-3.1c0.7-0.4,1.2-1.1,1.2-2c0-1.2-1-2.2-2.2-2.2s-2.2,1-2.2,2.2
	c0,0.9,0.5,1.7,1.3,2l0,3c-0.8,0.3-1.3,1.1-1.3,2c0,1.2,1,2.2,2.2,2.2S236.7,130.7,236.7,129.5z"/>
<path class="st0" d="M250.7,115.5c0-0.9-0.5-1.6-1.2-2v-3.1c0.7-0.4,1.2-1.1,1.2-2c0-1.2-1-2.2-2.2-2.2s-2.2,1-2.2,2.2
	c0,0.9,0.5,1.7,1.3,2l0,3c-0.8,0.3-1.3,1.1-1.3,2c0,1.2,1,2.2,2.2,2.2S250.7,116.7,250.7,115.5z"/>
<path class="st0" d="M229.7,94.5c0-0.9-0.5-1.6-1.2-2v-3.1c0.7-0.4,1.2-1.1,1.2-2c0-1.2-1-2.2-2.2-2.2s-2.2,1-2.2,2.2
	c0,0.9,0.5,1.7,1.3,2l0,3c-0.8,0.3-1.3,1.1-1.3,2c0,1.2,1,2.2,2.2,2.2S229.7,95.7,229.7,94.5z"/>
<path class="st0" d="M138.7,157.5c0-0.9-0.5-1.6-1.2-2v-3.1c0.7-0.4,1.2-1.1,1.2-2c0-1.2-1-2.2-2.2-2.2s-2.2,1-2.2,2.2
	c0,0.9,0.5,1.7,1.3,2l0,3c-0.8,0.4-1.3,1.1-1.3,2c0,1.2,1,2.2,2.2,2.2S138.7,158.7,138.7,157.5z"/>
<path class="st0" d="M145.7,171.5c0-0.9-0.5-1.6-1.2-2v-3.1c0.7-0.4,1.2-1.1,1.2-2c0-1.2-1-2.2-2.2-2.2s-2.2,1-2.2,2.2
	c0,0.9,0.5,1.7,1.3,2l0,3c-0.8,0.4-1.3,1.1-1.3,2c0,1.2,1,2.2,2.2,2.2S145.7,172.7,145.7,171.5z"/>
<path class="st0" d="M152.7,171.5c0-0.9-0.5-1.6-1.2-2v-3.1c0.7-0.4,1.2-1.1,1.2-2c0-1.2-1-2.2-2.2-2.2s-2.2,1-2.2,2.2
	c0,0.9,0.5,1.7,1.3,2l0,3c-0.8,0.4-1.3,1.1-1.3,2c0,1.2,1,2.2,2.2,2.2S152.7,172.7,152.7,171.5z"/>
<path class="st0" d="M131.7,178.5c0-0.9-0.5-1.6-1.2-2v-3.1c0.7-0.4,1.2-1.1,1.2-2c0-1.2-1-2.2-2.2-2.2s-2.2,1-2.2,2.2
	c0,0.9,0.5,1.7,1.3,2l0,3c-0.8,0.4-1.3,1.1-1.3,2c0,1.2,1,2.2,2.2,2.2S131.7,179.7,131.7,178.5z"/>
<path class="st0" d="M124.7,178.5c0-0.9-0.5-1.6-1.2-2v-3.1c0.7-0.4,1.2-1.1,1.2-2c0-1.2-1-2.2-2.2-2.2s-2.2,1-2.2,2.2
	c0,0.9,0.5,1.7,1.3,2l0,3c-0.8,0.4-1.3,1.1-1.3,2c0,1.2,1,2.2,2.2,2.2S124.7,179.7,124.7,178.5z"/>
<path class="st0" d="M145.7,129.5c0-0.9-0.5-1.6-1.2-2v-3.1c0.7-0.4,1.2-1.1,1.2-2c0-1.2-1-2.2-2.2-2.2s-2.2,1-2.2,2.2
	c0,0.9,0.5,1.7,1.3,2l0,3c-0.8,0.3-1.3,1.1-1.3,2c0,1.2,1,2.2,2.2,2.2S145.7,130.7,145.7,129.5z"/>
<path class="st0" d="M152.7,129.5c0-0.9-0.5-1.6-1.2-2v-3.1c0.7-0.4,1.2-1.1,1.2-2c0-1.2-1-2.2-2.2-2.2s-2.2,1-2.2,2.2
	c0,0.9,0.5,1.7,1.3,2l0,3c-0.8,0.3-1.3,1.1-1.3,2c0,1.2,1,2.2,2.2,2.2S152.7,130.7,152.7,129.5z"/>
<path class="st0" d="M173.7,108.5c0-0.9-0.5-1.6-1.2-2v-3.1c0.7-0.4,1.2-1.1,1.2-2c0-1.2-1-2.2-2.2-2.2s-2.2,1-2.2,2.2
	c0,0.9,0.5,1.7,1.3,2l0,3c-0.8,0.3-1.3,1.1-1.3,2c0,1.2,1,2.2,2.2,2.2S173.7,109.7,173.7,108.5z"/>
<path class="st0" d="M117.7,59.5c0-0.9-0.5-1.6-1.2-2v-3.1c0.7-0.4,1.2-1.1,1.2-2c0-1.2-1-2.2-2.2-2.2s-2.2,1-2.2,2.2
	c0,0.9,0.5,1.7,1.3,2l0,3c-0.8,0.3-1.3,1.1-1.3,2c0,1.2,1,2.2,2.2,2.2S117.7,60.7,117.7,59.5z"/>
<path class="st0" d="M75.7,80.5c0-0.9-0.5-1.6-1.2-2v-3.1c0.7-0.4,1.2-1.1,1.2-2c0-1.2-1-2.2-2.2-2.2s-2.2,1-2.2,2.2
	c0,0.9,0.5,1.7,1.3,2l0,3c-0.8,0.3-1.3,1.1-1.3,2c0,1.2,1,2.2,2.2,2.2S75.7,81.7,75.7,80.5z"/>
<path class="st0" d="M54.7,129.5c0-0.9-0.5-1.6-1.2-2v-3.1c0.7-0.4,1.2-1.1,1.2-2c0-1.2-1-2.2-2.2-2.2s-2.2,1-2.2,2.2
	c0,0.9,0.5,1.7,1.3,2l0,3c-0.8,0.3-1.3,1.1-1.3,2c0,1.2,1,2.2,2.2,2.2S54.7,130.7,54.7,129.5z"/>
<path class="st0" d="M68.7,143.5c0-0.9-0.5-1.6-1.2-2v-3.1c0.7-0.4,1.2-1.1,1.2-2c0-1.2-1-2.2-2.2-2.2s-2.2,1-2.2,2.2
	c0,0.9,0.5,1.7,1.3,2l0,3c-0.8,0.4-1.3,1.1-1.3,2c0,1.2,1,2.2,2.2,2.2S68.7,144.7,68.7,143.5z"/>
<path class="st0" d="M122.5,8.3c-0.9,0-1.6,0.5-2,1.2h-3.1c-0.4-0.7-1.1-1.2-2-1.2c-1.2,0-2.2,1-2.2,2.2s1,2.2,2.2,2.2
	c0.9,0,1.7-0.5,2-1.3l3,0c0.3,0.8,1.1,1.3,2,1.3c1.2,0,2.2-1,2.2-2.2S123.7,8.3,122.5,8.3z"/>
<path class="st0" d="M129.5,29.3c-0.9,0-1.6,0.5-2,1.2h-3.1c-0.4-0.7-1.1-1.2-2-1.2c-1.2,0-2.2,1-2.2,2.2s1,2.2,2.2,2.2
	c0.9,0,1.7-0.5,2-1.3l3,0c0.3,0.8,1.1,1.3,2,1.3c1.2,0,2.2-1,2.2-2.2S130.7,29.3,129.5,29.3z"/>
<path class="st0" d="M150.5,1.3c-0.9,0-1.6,0.5-2,1.2h-3.1c-0.4-0.7-1.1-1.2-2-1.2c-1.2,0-2.2,1-2.2,2.2s1,2.2,2.2,2.2
	c0.9,0,1.7-0.5,2-1.3l3,0c0.4,0.8,1.1,1.3,2,1.3c1.2,0,2.2-1,2.2-2.2S151.7,1.3,150.5,1.3z"/>
<path class="st0" d="M171.5,1.3c-0.9,0-1.6,0.5-2,1.2h-3.1c-0.4-0.7-1.1-1.2-2-1.2c-1.2,0-2.2,1-2.2,2.2s1,2.2,2.2,2.2
	c0.9,0,1.7-0.5,2-1.3l3,0c0.4,0.8,1.1,1.3,2,1.3c1.2,0,2.2-1,2.2-2.2S172.7,1.3,171.5,1.3z"/>
<path class="st0" d="M199.5,15.3c-0.9,0-1.6,0.5-2,1.2h-3.1c-0.4-0.7-1.1-1.2-2-1.2c-1.2,0-2.2,1-2.2,2.2s1,2.2,2.2,2.2
	c0.9,0,1.7-0.5,2-1.3l3,0c0.4,0.8,1.1,1.3,2,1.3c1.2,0,2.2-1,2.2-2.2S200.7,15.3,199.5,15.3z"/>
<path class="st0" d="M220.5,15.3c-0.9,0-1.6,0.5-2,1.2h-3.1c-0.4-0.7-1.1-1.2-2-1.2c-1.2,0-2.2,1-2.2,2.2s1,2.2,2.2,2.2
	c0.9,0,1.7-0.5,2-1.3l3,0c0.4,0.8,1.1,1.3,2,1.3c1.2,0,2.2-1,2.2-2.2S221.7,15.3,220.5,15.3z"/>
<path class="st0" d="M220.5,1.3c-0.9,0-1.6,0.5-2,1.2h-3.1c-0.4-0.7-1.1-1.2-2-1.2c-1.2,0-2.2,1-2.2,2.2s1,2.2,2.2,2.2
	c0.9,0,1.7-0.5,2-1.3l3,0c0.4,0.8,1.1,1.3,2,1.3c1.2,0,2.2-1,2.2-2.2S221.7,1.3,220.5,1.3z"/>
<path class="st0" d="M248.5,29.3c-0.9,0-1.6,0.5-2,1.2h-3.1c-0.4-0.7-1.1-1.2-2-1.2c-1.2,0-2.2,1-2.2,2.2s1,2.2,2.2,2.2
	c0.9,0,1.7-0.5,2-1.3l3,0c0.4,0.8,1.1,1.3,2,1.3c1.2,0,2.2-1,2.2-2.2S249.7,29.3,248.5,29.3z"/>
<path class="st0" d="M262.5,1.3c-0.9,0-1.6,0.5-2,1.2h-3.1c-0.4-0.7-1.1-1.2-2-1.2c-1.2,0-2.2,1-2.2,2.2s1,2.2,2.2,2.2
	c0.9,0,1.7-0.5,2-1.3l3,0c0.4,0.8,1.1,1.3,2,1.3c1.2,0,2.2-1,2.2-2.2S263.7,1.3,262.5,1.3z"/>
<path class="st0" d="M276.5,1.3c-0.9,0-1.6,0.5-2,1.2h-3.1c-0.4-0.7-1.1-1.2-2-1.2c-1.2,0-2.2,1-2.2,2.2s1,2.2,2.2,2.2
	c0.9,0,1.7-0.5,2-1.3l3,0c0.4,0.8,1.1,1.3,2,1.3c1.2,0,2.2-1,2.2-2.2S277.7,1.3,276.5,1.3z"/>
<path class="st0" d="M269.5,15.3c-0.9,0-1.6,0.5-2,1.2h-3.1c-0.4-0.7-1.1-1.2-2-1.2c-1.2,0-2.2,1-2.2,2.2s1,2.2,2.2,2.2
	c0.9,0,1.7-0.5,2-1.3l3,0c0.4,0.8,1.1,1.3,2,1.3c1.2,0,2.2-1,2.2-2.2S270.7,15.3,269.5,15.3z"/>
<path class="st0" d="M276.5,29.3c-0.9,0-1.6,0.5-2,1.2h-3.1c-0.4-0.7-1.1-1.2-2-1.2c-1.2,0-2.2,1-2.2,2.2s1,2.2,2.2,2.2
	c0.9,0,1.7-0.5,2-1.3l3,0c0.4,0.8,1.1,1.3,2,1.3c1.2,0,2.2-1,2.2-2.2S277.7,29.3,276.5,29.3z"/>
<path class="st0" d="M290.5,8.3c-0.9,0-1.6,0.5-2,1.2h-3.1c-0.4-0.7-1.1-1.2-2-1.2c-1.2,0-2.2,1-2.2,2.2s1,2.2,2.2,2.2
	c0.9,0,1.7-0.5,2-1.3l3,0c0.4,0.8,1.1,1.3,2,1.3c1.2,0,2.2-1,2.2-2.2S291.7,8.3,290.5,8.3z"/>
<path class="st0" d="M304.5,15.3c-0.9,0-1.6,0.5-2,1.2h-3.1c-0.4-0.7-1.1-1.2-2-1.2c-1.2,0-2.2,1-2.2,2.2s1,2.2,2.2,2.2
	c0.9,0,1.7-0.5,2-1.3l3,0c0.4,0.8,1.1,1.3,2,1.3c1.2,0,2.2-1,2.2-2.2S305.7,15.3,304.5,15.3z"/>
<path class="st0" d="M297.5,29.3c-0.9,0-1.6,0.5-2,1.2h-3.1c-0.4-0.7-1.1-1.2-2-1.2c-1.2,0-2.2,1-2.2,2.2s1,2.2,2.2,2.2
	c0.9,0,1.7-0.5,2-1.3l3,0c0.4,0.8,1.1,1.3,2,1.3c1.2,0,2.2-1,2.2-2.2S298.7,29.3,297.5,29.3z"/>
<path class="st0" d="M297.5,36.3c-0.9,0-1.6,0.5-2,1.2h-3.1c-0.4-0.7-1.1-1.2-2-1.2c-1.2,0-2.2,1-2.2,2.2s1,2.2,2.2,2.2
	c0.9,0,1.7-0.5,2-1.3l3,0c0.4,0.8,1.1,1.3,2,1.3c1.2,0,2.2-1,2.2-2.2S298.7,36.3,297.5,36.3z"/>
<path class="st0" d="M346.5,22.3c-0.9,0-1.6,0.5-2,1.2h-3.1c-0.4-0.7-1.1-1.2-2-1.2c-1.2,0-2.2,1-2.2,2.2s1,2.2,2.2,2.2
	c0.9,0,1.7-0.5,2-1.3l3,0c0.4,0.8,1.1,1.3,2,1.3c1.2,0,2.2-1,2.2-2.2S347.7,22.3,346.5,22.3z"/>
<path class="st0" d="M346.5,29.3c-0.9,0-1.6,0.5-2,1.2h-3.1c-0.4-0.7-1.1-1.2-2-1.2c-1.2,0-2.2,1-2.2,2.2s1,2.2,2.2,2.2
	c0.9,0,1.7-0.5,2-1.3l3,0c0.4,0.8,1.1,1.3,2,1.3c1.2,0,2.2-1,2.2-2.2S347.7,29.3,346.5,29.3z"/>
<path class="st0" d="M297.6,57.3c-0.9,0-1.6,0.5-2,1.2h-3.1c-0.4-0.7-1.1-1.2-2-1.2c-1.2,0-2.2,1-2.2,2.2s1,2.2,2.2,2.2
	c0.9,0,1.7-0.5,2-1.3l3,0c0.4,0.8,1.1,1.3,2,1.3c1.2,0,2.2-1,2.2-2.2S298.9,57.3,297.6,57.3z"/>
<path class="st0" d="M311.5,57.3c-0.9,0-1.6,0.5-2,1.2h-3.1c-0.4-0.7-1.1-1.2-2-1.2c-1.2,0-2.2,1-2.2,2.2s1,2.2,2.2,2.2
	c0.9,0,1.7-0.5,2-1.3l3,0c0.4,0.8,1.1,1.3,2,1.3c1.2,0,2.2-1,2.2-2.2S312.7,57.3,311.5,57.3z"/>
<path class="st0" d="M332.5,71.3c-0.9,0-1.6,0.5-2,1.2h-3.1c-0.4-0.7-1.1-1.2-2-1.2c-1.2,0-2.2,1-2.2,2.2s1,2.2,2.2,2.2
	c0.9,0,1.7-0.5,2-1.3l3,0c0.4,0.8,1.1,1.3,2,1.3c1.2,0,2.2-1,2.2-2.2S333.7,71.3,332.5,71.3z"/>
<path class="st0" d="M290.5,85.3c-0.9,0-1.6,0.5-2,1.2h-3.1c-0.4-0.7-1.1-1.2-2-1.2c-1.2,0-2.2,1-2.2,2.2s1,2.2,2.2,2.2
	c0.9,0,1.7-0.5,2-1.3l3,0c0.4,0.8,1.1,1.3,2,1.3c1.2,0,2.2-1,2.2-2.2S291.7,85.3,290.5,85.3z"/>
<path class="st0" d="M304.5,169.3c-0.9,0-1.6,0.5-2,1.2h-3.1c-0.4-0.7-1.1-1.2-2-1.2c-1.2,0-2.2,1-2.2,2.2s1,2.2,2.2,2.2
	c0.9,0,1.7-0.5,2-1.3l3,0c0.4,0.8,1.1,1.3,2,1.3c1.2,0,2.2-1,2.2-2.2S305.7,169.3,304.5,169.3z"/>
<path class="st0" d="M283.5,218.3c-0.9,0-1.6,0.5-2,1.2h-3.1c-0.4-0.7-1.1-1.2-2-1.2c-1.2,0-2.2,1-2.2,2.2s1,2.2,2.2,2.2
	c0.9,0,1.7-0.5,2-1.3l3,0c0.4,0.8,1.1,1.3,2,1.3c1.2,0,2.2-1,2.2-2.2S284.7,218.3,283.5,218.3z"/>
<path class="st0" d="M346.5,218.3c-0.9,0-1.6,0.5-2,1.2h-3.1c-0.4-0.7-1.1-1.2-2-1.2c-1.2,0-2.2,1-2.2,2.2s1,2.2,2.2,2.2
	c0.9,0,1.7-0.5,2-1.3l3,0c0.4,0.8,1.1,1.3,2,1.3c1.2,0,2.2-1,2.2-2.2S347.7,218.3,346.5,218.3z"/>
<path class="st0" d="M346.5,225.3c-0.9,0-1.6,0.5-2,1.2h-3.1c-0.4-0.7-1.1-1.2-2-1.2c-1.2,0-2.2,1-2.2,2.2s1,2.2,2.2,2.2
	c0.9,0,1.7-0.5,2-1.3l3,0c0.4,0.8,1.1,1.3,2,1.3c1.2,0,2.2-1,2.2-2.2S347.7,225.3,346.5,225.3z"/>
<path class="st0" d="M304.5,239.3c-0.9,0-1.6,0.5-2,1.2h-3.1c-0.4-0.7-1.1-1.2-2-1.2c-1.2,0-2.2,1-2.2,2.2s1,2.2,2.2,2.2
	c0.9,0,1.7-0.5,2-1.3l3,0c0.4,0.8,1.1,1.3,2,1.3c1.2,0,2.2-1,2.2-2.2S305.7,239.3,304.5,239.3z"/>
<path class="st0" d="M332.5,239.3c-0.9,0-1.6,0.5-2,1.2h-3.1c-0.4-0.7-1.1-1.2-2-1.2c-1.2,0-2.2,1-2.2,2.2s1,2.2,2.2,2.2
	c0.9,0,1.7-0.5,2-1.3l3,0c0.4,0.8,1.1,1.3,2,1.3c1.2,0,2.2-1,2.2-2.2S333.7,239.3,332.5,239.3z"/>
<path class="st0" d="M346.5,239.3c-0.9,0-1.6,0.5-2,1.2h-3.1c-0.4-0.7-1.1-1.2-2-1.2c-1.2,0-2.2,1-2.2,2.2s1,2.2,2.2,2.2
	c0.9,0,1.7-0.5,2-1.3l3,0c0.4,0.8,1.1,1.3,2,1.3c1.2,0,2.2-1,2.2-2.2S347.7,239.3,346.5,239.3z"/>
<path class="st0" d="M255.5,204.3c-0.9,0-1.6,0.5-2,1.2h-3.1c-0.4-0.7-1.1-1.2-2-1.2c-1.2,0-2.2,1-2.2,2.2s1,2.2,2.2,2.2
	c0.9,0,1.7-0.5,2-1.3l3,0c0.4,0.8,1.1,1.3,2,1.3c1.2,0,2.2-1,2.2-2.2S256.7,204.3,255.5,204.3z"/>
<path class="st0" d="M255.5,218.3c-0.9,0-1.6,0.5-2,1.2h-3.1c-0.4-0.7-1.1-1.2-2-1.2c-1.2,0-2.2,1-2.2,2.2s1,2.2,2.2,2.2
	c0.9,0,1.7-0.5,2-1.3l3,0c0.4,0.8,1.1,1.3,2,1.3c1.2,0,2.2-1,2.2-2.2S256.7,218.3,255.5,218.3z"/>
<path class="st0" d="M269.5,232.3c-0.9,0-1.6,0.5-2,1.2h-3.1c-0.4-0.7-1.1-1.2-2-1.2c-1.2,0-2.2,1-2.2,2.2s1,2.2,2.2,2.2
	c0.9,0,1.7-0.5,2-1.3l3,0c0.4,0.8,1.1,1.3,2,1.3c1.2,0,2.2-1,2.2-2.2S270.7,232.3,269.5,232.3z"/>
<path class="st0" d="M213.5,239.3c-0.9,0-1.6,0.5-2,1.2h-3.1c-0.4-0.7-1.1-1.2-2-1.2c-1.2,0-2.2,1-2.2,2.2s1,2.2,2.2,2.2
	c0.9,0,1.7-0.5,2-1.3l3,0c0.4,0.8,1.1,1.3,2,1.3c1.2,0,2.2-1,2.2-2.2S214.7,239.3,213.5,239.3z"/>
<path class="st0" d="M262.5,162.3c-0.9,0-1.6,0.5-2,1.2h-3.1c-0.4-0.7-1.1-1.2-2-1.2c-1.2,0-2.2,1-2.2,2.2s1,2.2,2.2,2.2
	c0.9,0,1.7-0.5,2-1.3l3,0c0.4,0.8,1.1,1.3,2,1.3c1.2,0,2.2-1,2.2-2.2S263.7,162.3,262.5,162.3z"/>
<path class="st0" d="M248.5,134.3c-0.9,0-1.6,0.5-2,1.2h-3.1c-0.4-0.7-1.1-1.2-2-1.2c-1.2,0-2.2,1-2.2,2.2s1,2.2,2.2,2.2
	c0.9,0,1.7-0.5,2-1.3l3,0c0.4,0.8,1.1,1.3,2,1.3c1.2,0,2.2-1,2.2-2.2S249.7,134.3,248.5,134.3z"/>
<path class="st0" d="M227.5,71.3c-0.9,0-1.6,0.5-2,1.2h-3.1c-0.4-0.7-1.1-1.2-2-1.2c-1.2,0-2.2,1-2.2,2.2s1,2.2,2.2,2.2
	c0.9,0,1.7-0.5,2-1.3l3,0c0.4,0.8,1.1,1.3,2,1.3c1.2,0,2.2-1,2.2-2.2S228.7,71.3,227.5,71.3z"/>
<path class="st0" d="M185.5,78.3c-0.9,0-1.6,0.5-2,1.2h-3.1c-0.4-0.7-1.1-1.2-2-1.2c-1.2,0-2.2,1-2.2,2.2s1,2.2,2.2,2.2
	c0.9,0,1.7-0.5,2-1.3l3,0c0.4,0.8,1.1,1.3,2,1.3c1.2,0,2.2-1,2.2-2.2S186.7,78.3,185.5,78.3z"/>
<path class="st0" d="M185.5,57.3c-0.9,0-1.6,0.5-2,1.2h-3.1c-0.4-0.7-1.1-1.2-2-1.2c-1.2,0-2.2,1-2.2,2.2s1,2.2,2.2,2.2
	c0.9,0,1.7-0.5,2-1.3l3,0c0.4,0.8,1.1,1.3,2,1.3c1.2,0,2.2-1,2.2-2.2S186.7,57.3,185.5,57.3z"/>
<path class="st0" d="M241.5,57.3c-0.9,0-1.6,0.5-2,1.2h-3.1c-0.4-0.7-1.1-1.2-2-1.2c-1.2,0-2.2,1-2.2,2.2s1,2.2,2.2,2.2
	c0.9,0,1.7-0.5,2-1.3l3,0c0.4,0.8,1.1,1.3,2,1.3c1.2,0,2.2-1,2.2-2.2S242.7,57.3,241.5,57.3z"/>
<path class="st0" d="M241.5,43.3c-0.9,0-1.6,0.5-2,1.2h-3.1c-0.4-0.7-1.1-1.2-2-1.2c-1.2,0-2.2,1-2.2,2.2s1,2.2,2.2,2.2
	c0.9,0,1.7-0.5,2-1.3l3,0c0.4,0.8,1.1,1.3,2,1.3c1.2,0,2.2-1,2.2-2.2S242.7,43.3,241.5,43.3z"/>
<path class="st0" d="M220.5,43.3c-0.9,0-1.6,0.5-2,1.2h-3.1c-0.4-0.7-1.1-1.2-2-1.2c-1.2,0-2.2,1-2.2,2.2s1,2.2,2.2,2.2
	c0.9,0,1.7-0.5,2-1.3l3,0c0.4,0.8,1.1,1.3,2,1.3c1.2,0,2.2-1,2.2-2.2S221.7,43.3,220.5,43.3z"/>
<path class="st0" d="M199.5,43.3c-0.9,0-1.6,0.5-2,1.2h-3.1c-0.4-0.7-1.1-1.2-2-1.2c-1.2,0-2.2,1-2.2,2.2s1,2.2,2.2,2.2
	c0.9,0,1.7-0.5,2-1.3l3,0c0.4,0.8,1.1,1.3,2,1.3c1.2,0,2.2-1,2.2-2.2S200.7,43.3,199.5,43.3z"/>
<path class="st0" d="M171.5,85.3c-0.9,0-1.6,0.5-2,1.2h-3.1c-0.4-0.7-1.1-1.2-2-1.2c-1.2,0-2.2,1-2.2,2.2s1,2.2,2.2,2.2
	c0.9,0,1.7-0.5,2-1.3l3,0c0.4,0.8,1.1,1.3,2,1.3c1.2,0,2.2-1,2.2-2.2S172.7,85.3,171.5,85.3z"/>
<path class="st0" d="M192.5,141.3c-0.9,0-1.6,0.5-2,1.2h-3.1c-0.4-0.7-1.1-1.2-2-1.2c-1.2,0-2.2,1-2.2,2.2s1,2.2,2.2,2.2
	c0.9,0,1.7-0.5,2-1.3l3,0c0.4,0.8,1.1,1.3,2,1.3c1.2,0,2.2-1,2.2-2.2S193.7,141.3,192.5,141.3z"/>
<path class="st0" d="M192.5,155.3c-0.9,0-1.6,0.5-2,1.2h-3.1c-0.4-0.7-1.1-1.2-2-1.2c-1.2,0-2.2,1-2.2,2.2s1,2.2,2.2,2.2
	c0.9,0,1.7-0.5,2-1.3l3,0c0.4,0.8,1.1,1.3,2,1.3c1.2,0,2.2-1,2.2-2.2S193.7,155.3,192.5,155.3z"/>
<path class="st0" d="M136.5,218.3c-0.9,0-1.6,0.5-2,1.2h-3.1c-0.4-0.7-1.1-1.2-2-1.2c-1.2,0-2.2,1-2.2,2.2s1,2.2,2.2,2.2
	c0.9,0,1.7-0.5,2-1.3l3,0c0.4,0.8,1.1,1.3,2,1.3c1.2,0,2.2-1,2.2-2.2S137.7,218.3,136.5,218.3z"/>
<path class="st0" d="M136.5,211.3c-0.9,0-1.6,0.5-2,1.2h-3.1c-0.4-0.7-1.1-1.2-2-1.2c-1.2,0-2.2,1-2.2,2.2s1,2.2,2.2,2.2
	c0.9,0,1.7-0.5,2-1.3l3,0c0.4,0.8,1.1,1.3,2,1.3c1.2,0,2.2-1,2.2-2.2S137.7,211.3,136.5,211.3z"/>
<path class="st0" d="M108.5,183.3c-0.9,0-1.6,0.5-2,1.2h-3.1c-0.4-0.7-1.1-1.2-2-1.2c-1.2,0-2.2,1-2.2,2.2s1,2.2,2.2,2.2
	c0.9,0,1.7-0.5,2-1.3l3,0c0.3,0.8,1.1,1.3,2,1.3c1.2,0,2.2-1,2.2-2.2S109.7,183.3,108.5,183.3z"/>
<path class="st0" d="M108.5,176.3c-0.9,0-1.6,0.5-2,1.2h-3.1c-0.4-0.7-1.1-1.2-2-1.2c-1.2,0-2.2,1-2.2,2.2s1,2.2,2.2,2.2
	c0.9,0,1.7-0.5,2-1.3l3,0c0.3,0.8,1.1,1.3,2,1.3c1.2,0,2.2-1,2.2-2.2S109.7,176.3,108.5,176.3z"/>
<path class="st0" d="M150.5,183.3c-0.9,0-1.6,0.5-2,1.2h-3.1c-0.4-0.7-1.1-1.2-2-1.2c-1.2,0-2.2,1-2.2,2.2s1,2.2,2.2,2.2
	c0.9,0,1.7-0.5,2-1.3l3,0c0.4,0.8,1.1,1.3,2,1.3c1.2,0,2.2-1,2.2-2.2S151.7,183.3,150.5,183.3z"/>
<path class="st0" d="M164.5,148.3c-0.9,0-1.6,0.5-2,1.2h-3.1c-0.4-0.7-1.1-1.2-2-1.2c-1.2,0-2.2,1-2.2,2.2s1,2.2,2.2,2.2
	c0.9,0,1.7-0.5,2-1.3l3,0c0.4,0.8,1.1,1.3,2,1.3c1.2,0,2.2-1,2.2-2.2S165.7,148.3,164.5,148.3z"/>
<path class="st0" d="M164.5,134.3c-0.9,0-1.6,0.5-2,1.2h-3.1c-0.4-0.7-1.1-1.2-2-1.2c-1.2,0-2.2,1-2.2,2.2s1,2.2,2.2,2.2
	c0.9,0,1.7-0.5,2-1.3l3,0c0.4,0.8,1.1,1.3,2,1.3c1.2,0,2.2-1,2.2-2.2S165.7,134.3,164.5,134.3z"/>
<path class="st0" d="M122.5,99.3c-0.9,0-1.6,0.5-2,1.2h-3.1c-0.4-0.7-1.1-1.2-2-1.2c-1.2,0-2.2,1-2.2,2.2s1,2.2,2.2,2.2
	c0.9,0,1.7-0.5,2-1.3l3,0c0.3,0.8,1.1,1.3,2,1.3c1.2,0,2.2-1,2.2-2.2S123.7,99.3,122.5,99.3z"/>
<path class="st0" d="M101.5,57.3c-0.9,0-1.6,0.5-2,1.2h-3.1c-0.4-0.7-1.1-1.2-2-1.2c-1.2,0-2.2,1-2.2,2.2s1,2.2,2.2,2.2
	c0.9,0,1.7-0.5,2-1.3l3,0c0.3,0.8,1.1,1.3,2,1.3c1.2,0,2.2-1,2.2-2.2S102.7,57.3,101.5,57.3z"/>
<path class="st0" d="M73.5,106.3c-0.9,0-1.6,0.5-2,1.2h-3.1c-0.4-0.7-1.1-1.2-2-1.2c-1.2,0-2.2,1-2.2,2.2s1,2.2,2.2,2.2
	c0.9,0,1.7-0.5,2-1.3l3,0c0.3,0.8,1.1,1.3,2,1.3c1.2,0,2.2-1,2.2-2.2S74.7,106.3,73.5,106.3z"/>
<path class="st0" d="M80.5,64.3c-0.3,0-0.5,0.1-0.7,0.1l-4.2-4.2c0.1-0.2,0.1-0.5,0.1-0.7c0-1.2-1-2.2-2.2-2.2s-2.2,1-2.2,2.2
	s1,2.2,2.2,2.2c0.3,0,0.5-0.1,0.7-0.1l4.2,4.3c-0.1,0.2-0.1,0.4-0.1,0.7c0,1.2,1,2.2,2.2,2.2s2.2-1,2.2-2.2
	C82.7,65.3,81.7,64.3,80.5,64.3z"/>
<path class="st0" d="M94.5,29.3c-0.3,0-0.5,0.1-0.7,0.1l-4.2-4.2c0.1-0.2,0.1-0.5,0.1-0.7c0-1.2-1-2.2-2.2-2.2s-2.2,1-2.2,2.2
	s1,2.2,2.2,2.2c0.3,0,0.5-0.1,0.7-0.1l4.2,4.3c-0.1,0.2-0.1,0.4-0.1,0.7c0,1.2,1,2.2,2.2,2.2s2.2-1,2.2-2.2
	C96.7,30.3,95.7,29.3,94.5,29.3z"/>
<path class="st0" d="M101.5,50.3c-0.3,0-0.5,0.1-0.7,0.1l-4.2-4.2c0.1-0.2,0.1-0.5,0.1-0.7c0-1.2-1-2.2-2.2-2.2s-2.2,1-2.2,2.2
	s1,2.2,2.2,2.2c0.3,0,0.5-0.1,0.7-0.1l4.2,4.3c-0.1,0.2-0.1,0.4-0.1,0.7c0,1.2,1,2.2,2.2,2.2s2.2-1,2.2-2.2
	C103.7,51.3,102.7,50.3,101.5,50.3z"/>
<path class="st0" d="M66.5,92.3c-0.3,0-0.5,0.1-0.7,0.1l-4.2-4.2c0.1-0.2,0.1-0.5,0.1-0.7c0-1.2-1-2.2-2.2-2.2s-2.2,1-2.2,2.2
	s1,2.2,2.2,2.2c0.3,0,0.5-0.1,0.7-0.1l4.2,4.3c-0.1,0.2-0.1,0.4-0.1,0.7c0,1.2,1,2.2,2.2,2.2s2.2-1,2.2-2.2
	C68.7,93.3,67.7,92.3,66.5,92.3z"/>
<path class="st0" d="M66.5,120.3c-0.3,0-0.5,0.1-0.7,0.1l-4.2-4.2c0.1-0.2,0.1-0.5,0.1-0.7c0-1.2-1-2.2-2.2-2.2s-2.2,1-2.2,2.2
	s1,2.2,2.2,2.2c0.3,0,0.5-0.1,0.7-0.1l4.2,4.3c-0.1,0.2-0.1,0.4-0.1,0.7c0,1.2,1,2.2,2.2,2.2s2.2-1,2.2-2.2
	C68.7,121.3,67.7,120.3,66.5,120.3z"/>
<path class="st0" d="M80.5,106.3c-0.3,0-0.5,0.1-0.7,0.1l-4.2-4.2c0.1-0.2,0.1-0.5,0.1-0.7c0-1.2-1-2.2-2.2-2.2s-2.2,1-2.2,2.2
	s1,2.2,2.2,2.2c0.3,0,0.5-0.1,0.7-0.1l4.2,4.3c-0.1,0.2-0.1,0.4-0.1,0.7c0,1.2,1,2.2,2.2,2.2s2.2-1,2.2-2.2
	C82.7,107.3,81.7,106.3,80.5,106.3z"/>
<path class="st0" d="M17.5,162.3c-0.3,0-0.5,0.1-0.7,0.1l-4.2-4.2c0.1-0.2,0.1-0.5,0.1-0.7c0-1.2-1-2.2-2.2-2.2s-2.2,1-2.2,2.2
	s1,2.2,2.2,2.2c0.3,0,0.5-0.1,0.7-0.1l4.2,4.3c-0.1,0.2-0.1,0.4-0.1,0.7c0,1.2,1,2.2,2.2,2.2s2.2-1,2.2-2.2
	C19.7,163.3,18.7,162.3,17.5,162.3z"/>
<path class="st0" d="M59.5,162.3c-0.3,0-0.5,0.1-0.7,0.1l-4.2-4.2c0.1-0.2,0.1-0.5,0.1-0.7c0-1.2-1-2.2-2.2-2.2s-2.2,1-2.2,2.2
	s1,2.2,2.2,2.2c0.3,0,0.5-0.1,0.7-0.1l4.2,4.3c-0.1,0.2-0.1,0.4-0.1,0.7c0,1.2,1,2.2,2.2,2.2s2.2-1,2.2-2.2
	C61.7,163.3,60.7,162.3,59.5,162.3z"/>
<path class="st0" d="M87.5,148.3c-0.3,0-0.5,0.1-0.7,0.1l-4.2-4.2c0.1-0.2,0.1-0.5,0.1-0.7c0-1.2-1-2.2-2.2-2.2s-2.2,1-2.2,2.2
	s1,2.2,2.2,2.2c0.3,0,0.5-0.1,0.7-0.1l4.2,4.3c-0.1,0.2-0.1,0.4-0.1,0.7c0,1.2,1,2.2,2.2,2.2s2.2-1,2.2-2.2
	C89.7,149.3,88.7,148.3,87.5,148.3z"/>
<path class="st0" d="M38.5,225.3c-0.3,0-0.5,0.1-0.7,0.1l-4.2-4.2c0.1-0.2,0.1-0.5,0.1-0.7c0-1.2-1-2.2-2.2-2.2s-2.2,1-2.2,2.2
	s1,2.2,2.2,2.2c0.3,0,0.5-0.1,0.7-0.1l4.2,4.3c-0.1,0.2-0.1,0.4-0.1,0.7c0,1.2,1,2.2,2.2,2.2s2.2-1,2.2-2.2
	C40.7,226.3,39.7,225.3,38.5,225.3z"/>
<path class="st0" d="M87.5,218.3c-0.3,0-0.5,0.1-0.7,0.1l-4.2-4.2c0.1-0.2,0.1-0.5,0.1-0.7c0-1.2-1-2.2-2.2-2.2s-2.2,1-2.2,2.2
	s1,2.2,2.2,2.2c0.3,0,0.5-0.1,0.7-0.1l4.2,4.3c-0.1,0.2-0.1,0.4-0.1,0.7c0,1.2,1,2.2,2.2,2.2s2.2-1,2.2-2.2
	C89.7,219.3,88.7,218.3,87.5,218.3z"/>
<path class="st0" d="M94.5,211.3c-0.3,0-0.5,0.1-0.7,0.1l-4.2-4.2c0.1-0.2,0.1-0.5,0.1-0.7c0-1.2-1-2.2-2.2-2.2s-2.2,1-2.2,2.2
	s1,2.2,2.2,2.2c0.3,0,0.5-0.1,0.7-0.1l4.2,4.3c-0.1,0.2-0.1,0.4-0.1,0.7c0,1.2,1,2.2,2.2,2.2s2.2-1,2.2-2.2
	C96.7,212.3,95.7,211.3,94.5,211.3z"/>
<path class="st0" d="M122.5,239.3c-0.3,0-0.5,0.1-0.7,0.1l-4.2-4.2c0.1-0.2,0.1-0.5,0.1-0.7c0-1.2-1-2.2-2.2-2.2s-2.2,1-2.2,2.2
	s1,2.2,2.2,2.2c0.3,0,0.5-0.1,0.7-0.1l4.2,4.3c-0.1,0.2-0.1,0.4-0.1,0.7c0,1.2,1,2.2,2.2,2.2s2.2-1,2.2-2.2
	C124.7,240.3,123.7,239.3,122.5,239.3z"/>
<path class="st0" d="M129.5,239.3c-0.3,0-0.5,0.1-0.7,0.1l-4.2-4.2c0.1-0.2,0.1-0.5,0.1-0.7c0-1.2-1-2.2-2.2-2.2s-2.2,1-2.2,2.2
	s1,2.2,2.2,2.2c0.3,0,0.5-0.1,0.7-0.1l4.2,4.3c-0.1,0.2-0.1,0.4-0.1,0.7c0,1.2,1,2.2,2.2,2.2c1.2,0,2.2-1,2.2-2.2
	C131.7,240.3,130.7,239.3,129.5,239.3z"/>
<path class="st0" d="M115.5,155.3c-0.3,0-0.5,0.1-0.7,0.1l-4.2-4.2c0.1-0.2,0.1-0.5,0.1-0.7c0-1.2-1-2.2-2.2-2.2s-2.2,1-2.2,2.2
	s1,2.2,2.2,2.2c0.3,0,0.5-0.1,0.7-0.1l4.2,4.3c-0.1,0.2-0.1,0.4-0.1,0.7c0,1.2,1,2.2,2.2,2.2s2.2-1,2.2-2.2
	C117.7,156.3,116.7,155.3,115.5,155.3z"/>
<path class="st0" d="M115.5,120.3c-0.3,0-0.5,0.1-0.7,0.1l-4.2-4.2c0.1-0.2,0.1-0.5,0.1-0.7c0-1.2-1-2.2-2.2-2.2s-2.2,1-2.2,2.2
	s1,2.2,2.2,2.2c0.3,0,0.5-0.1,0.7-0.1l4.2,4.3c-0.1,0.2-0.1,0.4-0.1,0.7c0,1.2,1,2.2,2.2,2.2s2.2-1,2.2-2.2
	C117.7,121.3,116.7,120.3,115.5,120.3z"/>
<path class="st0" d="M101.4,113.3c-0.3,0-0.5,0.1-0.7,0.1l-4.2-4.2c0.1-0.2,0.1-0.5,0.1-0.7c0-1.2-1-2.2-2.2-2.2s-2.2,1-2.2,2.2
	s1,2.2,2.2,2.2c0.3,0,0.5-0.1,0.7-0.1l4.2,4.3c-0.1,0.2-0.1,0.4-0.1,0.7c0,1.2,1,2.2,2.2,2.2s2.2-1,2.2-2.2
	C103.6,114.3,102.6,113.3,101.4,113.3z"/>
<path class="st0" d="M206.5,8.3c-0.3,0-0.5,0.1-0.7,0.1l-4.2-4.2c0.1-0.2,0.1-0.5,0.1-0.7c0-1.2-1-2.2-2.2-2.2s-2.2,1-2.2,2.2
	s1,2.2,2.2,2.2c0.3,0,0.5-0.1,0.7-0.1l4.2,4.3c-0.1,0.2-0.1,0.4-0.1,0.7c0,1.2,1,2.2,2.2,2.2s2.2-1,2.2-2.2
	C208.7,9.3,207.7,8.3,206.5,8.3z"/>
<path class="st0" d="M220.5,57.3c-0.3,0-0.5,0.1-0.7,0.1l-4.2-4.2c0.1-0.2,0.1-0.5,0.1-0.7c0-1.2-1-2.2-2.2-2.2s-2.2,1-2.2,2.2
	s1,2.2,2.2,2.2c0.3,0,0.5-0.1,0.7-0.1l4.2,4.3c-0.1,0.2-0.1,0.4-0.1,0.7c0,1.2,1,2.2,2.2,2.2s2.2-1,2.2-2.2
	C222.7,58.3,221.7,57.3,220.5,57.3z"/>
<path class="st0" d="M213.5,113.3c-0.3,0-0.5,0.1-0.7,0.1l-4.2-4.2c0.1-0.2,0.1-0.5,0.1-0.7c0-1.2-1-2.2-2.2-2.2s-2.2,1-2.2,2.2
	s1,2.2,2.2,2.2c0.3,0,0.5-0.1,0.7-0.1l4.2,4.3c-0.1,0.2-0.1,0.4-0.1,0.7c0,1.2,1,2.2,2.2,2.2s2.2-1,2.2-2.2
	C215.7,114.3,214.7,113.3,213.5,113.3z"/>
<path class="st0" d="M220.5,197.3c-0.3,0-0.5,0.1-0.7,0.1l-4.2-4.2c0.1-0.2,0.1-0.5,0.1-0.7c0-1.2-1-2.2-2.2-2.2s-2.2,1-2.2,2.2
	s1,2.2,2.2,2.2c0.3,0,0.5-0.1,0.7-0.1l4.2,4.3c-0.1,0.2-0.1,0.4-0.1,0.7c0,1.2,1,2.2,2.2,2.2s2.2-1,2.2-2.2
	C222.7,198.3,221.7,197.3,220.5,197.3z"/>
<path class="st0" d="M178.5,197.3c-0.3,0-0.5,0.1-0.7,0.1l-4.2-4.2c0.1-0.2,0.1-0.5,0.1-0.7c0-1.2-1-2.2-2.2-2.2s-2.2,1-2.2,2.2
	s1,2.2,2.2,2.2c0.3,0,0.5-0.1,0.7-0.1l4.2,4.3c-0.1,0.2-0.1,0.4-0.1,0.7c0,1.2,1,2.2,2.2,2.2s2.2-1,2.2-2.2
	C180.7,198.3,179.7,197.3,178.5,197.3z"/>
<path class="st0" d="M290.5,197.3c-0.3,0-0.5,0.1-0.7,0.1l-4.2-4.2c0.1-0.2,0.1-0.5,0.1-0.7c0-1.2-1-2.2-2.2-2.2
	c-1.2,0-2.2,1-2.2,2.2s1,2.2,2.2,2.2c0.3,0,0.5-0.1,0.7-0.1l4.2,4.3c-0.1,0.2-0.1,0.4-0.1,0.7c0,1.2,1,2.2,2.2,2.2
	c1.2,0,2.2-1,2.2-2.2C292.7,198.3,291.7,197.3,290.5,197.3z"/>
<path class="st0" d="M325.5,148.3c-0.3,0-0.5,0.1-0.7,0.1l-4.2-4.2c0.1-0.2,0.1-0.5,0.1-0.7c0-1.2-1-2.2-2.2-2.2
	c-1.2,0-2.2,1-2.2,2.2s1,2.2,2.2,2.2c0.3,0,0.5-0.1,0.7-0.1l4.2,4.3c-0.1,0.2-0.1,0.4-0.1,0.7c0,1.2,1,2.2,2.2,2.2
	c1.2,0,2.2-1,2.2-2.2C327.7,149.3,326.7,148.3,325.5,148.3z"/>
<path class="st0" d="M318.5,78.3c-0.3,0-0.5,0.1-0.7,0.1l-4.2-4.2c0.1-0.2,0.1-0.5,0.1-0.7c0-1.2-1-2.2-2.2-2.2
	c-1.2,0-2.2,1-2.2,2.2s1,2.2,2.2,2.2c0.3,0,0.5-0.1,0.7-0.1l4.2,4.3c-0.1,0.2-0.1,0.4-0.1,0.7c0,1.2,1,2.2,2.2,2.2
	c1.2,0,2.2-1,2.2-2.2C320.7,79.3,319.7,78.3,318.5,78.3z"/>
<path class="st0" d="M325.5,78.3c-0.3,0-0.5,0.1-0.7,0.1l-4.2-4.2c0.1-0.2,0.1-0.5,0.1-0.7c0-1.2-1-2.2-2.2-2.2
	c-1.2,0-2.2,1-2.2,2.2s1,2.2,2.2,2.2c0.3,0,0.5-0.1,0.7-0.1l4.2,4.3c-0.1,0.2-0.1,0.4-0.1,0.7c0,1.2,1,2.2,2.2,2.2
	c1.2,0,2.2-1,2.2-2.2C327.7,79.3,326.7,78.3,325.5,78.3z"/>
<path class="st0" d="M325.5,50.3c-0.3,0-0.5,0.1-0.7,0.1l-4.2-4.2c0.1-0.2,0.1-0.5,0.1-0.7c0-1.2-1-2.2-2.2-2.2
	c-1.2,0-2.2,1-2.2,2.2s1,2.2,2.2,2.2c0.3,0,0.5-0.1,0.7-0.1l4.2,4.3c-0.1,0.2-0.1,0.4-0.1,0.7c0,1.2,1,2.2,2.2,2.2
	c1.2,0,2.2-1,2.2-2.2C327.7,51.3,326.7,50.3,325.5,50.3z"/>
<path class="st0" d="M157.5,155.3c-0.3,0-0.5,0.1-0.7,0.1l-4.2-4.2c0.1-0.2,0.1-0.5,0.1-0.7c0-1.2-1-2.2-2.2-2.2s-2.2,1-2.2,2.2
	s1,2.2,2.2,2.2c0.3,0,0.5-0.1,0.7-0.1l4.2,4.3c-0.1,0.2-0.1,0.4-0.1,0.7c0,1.2,1,2.2,2.2,2.2s2.2-1,2.2-2.2
	C159.7,156.3,158.7,155.3,157.5,155.3z"/>
<path class="st0" d="M155.3,3.5c0,0.3,0.1,0.5,0.1,0.7l-4.2,4.2c-0.2-0.1-0.5-0.1-0.7-0.1c-1.2,0-2.2,1-2.2,2.2s1,2.2,2.2,2.2
	s2.2-1,2.2-2.2c0-0.3-0.1-0.5-0.1-0.7l4.3-4.2c0.2,0.1,0.4,0.1,0.7,0.1c1.2,0,2.2-1,2.2-2.2s-1-2.2-2.2-2.2
	C156.3,1.3,155.3,2.3,155.3,3.5z"/>
<path class="st0" d="M71.3,227.5c0,0.3,0.1,0.5,0.1,0.7l-4.2,4.2c-0.2-0.1-0.5-0.1-0.7-0.1c-1.2,0-2.2,1-2.2,2.2s1,2.2,2.2,2.2
	s2.2-1,2.2-2.2c0-0.3-0.1-0.5-0.1-0.7l4.3-4.2c0.2,0.1,0.4,0.1,0.7,0.1c1.2,0,2.2-1,2.2-2.2s-1-2.2-2.2-2.2
	C72.3,225.3,71.3,226.3,71.3,227.5z"/>
<path class="st0" d="M148.3,199.5c0,0.3,0.1,0.5,0.1,0.7l-4.2,4.2c-0.2-0.1-0.5-0.1-0.7-0.1c-1.2,0-2.2,1-2.2,2.2s1,2.2,2.2,2.2
	s2.2-1,2.2-2.2c0-0.3-0.1-0.5-0.1-0.7l4.3-4.2c0.2,0.1,0.4,0.1,0.7,0.1c1.2,0,2.2-1,2.2-2.2s-1-2.2-2.2-2.2
	C149.3,197.3,148.3,198.3,148.3,199.5z"/>
<path class="st0" d="M157.5,211.3c-0.3,0-0.5,0.1-0.7,0.1l-4.2-4.2c0.1-0.2,0.1-0.5,0.1-0.7c0-1.2-1-2.2-2.2-2.2s-2.2,1-2.2,2.2
	s1,2.2,2.2,2.2c0.3,0,0.5-0.1,0.7-0.1l4.2,4.3c-0.1,0.2-0.1,0.4-0.1,0.7c0,1.2,1,2.2,2.2,2.2s2.2-1,2.2-2.2
	C159.7,212.3,158.7,211.3,157.5,211.3z"/>
<path class="st0" d="M10.5,169.3c-0.3,0-0.5,0.1-0.7,0.1l-4.2-4.2c0.1-0.2,0.1-0.5,0.1-0.7c0-1.2-1-2.2-2.2-2.2s-2.2,1-2.2,2.2
	s1,2.2,2.2,2.2c0.3,0,0.5-0.1,0.7-0.1l4.2,4.3c-0.1,0.2-0.1,0.4-0.1,0.7c0,1.2,1,2.2,2.2,2.2s2.2-1,2.2-2.2
	C12.7,170.3,11.7,169.3,10.5,169.3z"/>
<path class="st0" d="M52.5,71.3c-0.9,0-1.6,0.5-2,1.2H45l-7.5,7.6v5.4c-0.7,0.4-1.2,1.1-1.2,1.9c0,1.2,1,2.2,2.2,2.2s2.2-1,2.2-2.2
	c0-0.9-0.5-1.6-1.2-2V81l6.4-6.5h4.7c0.4,0.7,1.1,1.2,2,1.2c1.2,0,2.2-1,2.2-2.2C54.7,72.3,53.7,71.3,52.5,71.3z"/>
<path class="st0" d="M59.5,92.3c-0.9,0-1.6,0.5-2,1.2h-4.7L46.5,87v-4.6c0.7-0.4,1.2-1.1,1.2-2c0-1.2-1-2.2-2.2-2.2s-2.2,1-2.2,2.2
	c0,0.8,0.5,1.6,1.2,1.9v5.5l7.6,7.7h5.5c0.4,0.7,1.1,1.1,1.9,1.1c1.2,0,2.2-1,2.2-2.2C61.7,93.3,60.7,92.3,59.5,92.3z"/>
<path class="st0" d="M80.5,71.3c-0.2,0-0.4,0-0.7,0.1l-6-5.9h-7.8l-7.6,7.6l0,7l-5.3,5.3c-0.2-0.1-0.5-0.1-0.7-0.1
	c-1.2,0-2.2,1-2.2,2.2s1,2.2,2.2,2.2s2.2-1,2.2-2.2c0-0.2,0-0.4-0.1-0.6l5.9-5.9v-7l6.4-6.4h6.2l5.4,5.3c-0.1,0.2-0.1,0.5-0.1,0.7
	c0,1.2,1,2.2,2.2,2.2s2.2-1,2.2-2.2S81.7,71.3,80.5,71.3z"/>
<path class="st0" d="M67.5,85.6V75.4c0.7-0.4,1.2-1.1,1.2-1.9c0-1.2-1-2.2-2.2-2.2s-2.2,1-2.2,2.2c0,0.9,0.5,1.6,1.2,2v10
	c-0.7,0.4-1.2,1.1-1.2,2c0,1.2,1,2.2,2.2,2.2s2.2-1,2.2-2.2C68.7,86.7,68.2,85.9,67.5,85.6z"/>
<path class="st0" d="M73.5,92.3c-1.2,0-2.2,1-2.2,2.2c0,0.2,0,0.5,0.1,0.7l-5.3,5.3H52.9l-5.3-5.3c0.1-0.2,0.1-0.4,0.1-0.7
	c0-1.2-1-2.2-2.2-2.2s-2.2,1-2.2,2.2s1,2.2,2.2,2.2c0.3,0,0.5-0.1,0.7-0.1l5.8,5.9h14.8l6-5.9c0.2,0.1,0.4,0.1,0.7,0.1
	c1.2,0,2.2-1,2.2-2.2C75.7,93.3,74.7,92.3,73.5,92.3z"/>
<path class="st0" d="M39.4,106.5v-5.4l-7.5-7.6l-7.8-0.2l-7.6,7.7l0,6.9L4.1,120.4c-0.2-0.1-0.4-0.1-0.6-0.1c-1.2,0-2.2,1-2.2,2.2
	s1,2.2,2.2,2.2s2.2-1,2.2-2.2c0-0.2,0-0.5-0.1-0.7l12.9-12.9v-7l6.4-6.3H31l6.4,6.3v4.8c-0.7,0.4-1.1,1.1-1.1,1.9
	c0,1.2,1,2.2,2.2,2.2s2.2-1,2.2-2.2C40.7,107.6,40.2,106.8,39.4,106.5z"/>
<path class="st0" d="M31.8,86.5H17L2.4,101.2v12.4c-0.7,0.4-1.1,1.1-1.1,1.9c0,1.2,1,2.2,2.2,2.2s2.2-1,2.2-2.2c0-0.9-0.5-1.7-1.3-2
	v-11.6l13.5-13.4h13.3l13.3,13.4v6.3l-6.4,6.4H24l-5.9,5.8c-0.2-0.1-0.4-0.1-0.6-0.1c-1.2,0-2.2,1-2.2,2.2s1,2.2,2.2,2.2
	s2.2-1,2.2-2.2c0-0.2,0-0.4-0.1-0.6l5.2-5.3l14.1-0.1l7.6-7.6v-7.6L31.8,86.5z"/>
<path class="st0" d="M59.5,106.3c-1.2,0-2.2,1-2.2,2.2c0,0.2,0,0.4,0.1,0.6l-13,13l0.1,5.4c-0.7,0.4-1.2,1.1-1.2,2
	c0,1.2,1,2.2,2.2,2.2s2.2-1,2.2-2.2c0-0.8-0.5-1.6-1.2-1.9V123l12.3-12.4c0.2,0.1,0.4,0.1,0.7,0.1c1.2,0,2.2-1,2.2-2.2
	C61.7,107.3,60.7,106.3,59.5,106.3z"/>
<path class="st0" d="M74.4,127.5V122l-5.8-5.7c0.1-0.2,0.1-0.5,0.1-0.8c0-1.2-1-2.2-2.2-2.2s-2.2,1-2.2,2.2s1,2.2,2.2,2.2
	c0.2,0,0.4,0,0.6-0.1l5.3,5.3v4.7c-0.7,0.4-1.1,1.1-1.1,1.9c0,1.2,1,2.2,2.2,2.2s2.2-1,2.2-2.2C75.7,128.6,75.2,127.8,74.4,127.5z"
	/>
<path class="st0" d="M31.5,134.3c-1.2,0-2.2,1-2.2,2.2c0,0.2,0,0.4,0.1,0.6l-5.4,5.4l-4.6-0.1c-0.4-0.7-1.1-1.1-1.9-1.1
	c-1.2,0-2.2,1-2.2,2.2s1,2.2,2.2,2.2c0.9,0,1.7-0.5,2-1.3l5.4,0.1l5.9-5.9c0.2,0.1,0.5,0.1,0.7,0.1c1.2,0,2.2-1,2.2-2.2
	C33.7,135.3,32.7,134.3,31.5,134.3z"/>
<path class="st0" d="M38.5,134.3c-1.2,0-2.2,1-2.2,2.2c0,0.2,0,0.5,0.1,0.7l-11.2,11.2c-0.2-0.1-0.5-0.1-0.8-0.1
	c-1.2,0-2.2,1-2.2,2.2s1,2.2,2.2,2.2s2.2-1,2.2-2.2c0-0.2,0-0.4-0.1-0.6l11.3-11.3c0.2,0.1,0.4,0.1,0.6,0.1c1.2,0,2.2-1,2.2-2.2
	C40.7,135.3,39.7,134.3,38.5,134.3z"/>
<path class="st0" d="M45.5,141.3c-0.8,0-1.5,0.4-1.9,1.1h-5.5l-5.9,6c-0.2-0.1-0.5-0.1-0.7-0.1c-1.2,0-2.2,1-2.2,2.2s1,2.2,2.2,2.2
	s2.2-1,2.2-2.2c0-0.2,0-0.4-0.1-0.7l5.3-5.4h4.6c0.4,0.7,1.1,1.2,2,1.2c1.2,0,2.2-1,2.2-2.2C47.7,142.3,46.7,141.3,45.5,141.3z"/>
<path class="st0" d="M59.5,141.3c-0.8,0-1.5,0.4-1.9,1.1l-5.5,0l-7.2,7.1h-6.9l-7,7h-6.4l-13.3-13.6V137l13-13.5h14.4l12.8-13
	c0.2,0.1,0.5,0.2,0.8,0.2c1.2,0,2.2-1,2.2-2.2s-1-2.2-2.2-2.2s-2.2,1-2.2,2.2c0,0.2,0,0.5,0.1,0.7l-12.4,12.2l-14.1,0.2L9.4,136v7.9
	l14.5,14.6h8l6.8-7.1H46l6.8-7l4.7-0.1c0.3,0.8,1.1,1.3,2,1.3c1.2,0,2.2-1,2.2-2.2C61.7,142.3,60.7,141.3,59.5,141.3z"/>
<path class="st0" d="M31.9,163.5c-2.3,0-4.7,0-7,0c-6.8-6.9-13.7-13.8-20.5-20.6V137l7-7v-7.5l5.3-5c0.2,0.1,0.5,0.2,0.8,0.2
	c1.2,0,2.2-1,2.2-2.2s-1-2.2-2.2-2.2s-2.2,1-2.2,2.2c0,0.2,0,0.5,0.1,0.7l-6,5.9v7l-7,6.8v7.8l21.4,21.7l7.1-0.1l13.5,13.1
	c0,4.5,0.1,9.1,0.1,13.6c-2.2,2.2-4.4,4.3-6.6,6.5h-4.4c-0.3-0.8-1.1-1.3-2-1.3c-1.2,0-2.2,1-2.2,2.2s1,2.2,2.2,2.2
	c0.9,0,1.6-0.5,2-1.3H39c2.5-2.5,5-5,7.5-7.5c0-4.9,0-9.9,0.1-14.8C41.7,173.3,36.8,168.4,31.9,163.5z"/>
<path class="st0" d="M46.8,194.1"/>
<path class="st0" d="M131.7,129.5c0-1.2-1-2.2-2.2-2.2s-2.2,1-2.2,2.2c0,0.9,0.5,1.6,1.3,2v4.6l-6.6,6.4H94.8l-6.9-7.1h-14l-7-6.9
	H59l-6.9,6.9h-6.4l-5.2-5.2c0.1-0.2,0.1-0.4,0.1-0.7c0-1.2-1-2.2-2.2-2.2s-2.2,1-2.2,2.2s1,2.2,2.2,2.2c0.3,0,0.7-0.1,1-0.2l5.5,6
	l8,0.1l7-7l6.2,0.1l6.8,6.9l14.1,0.1l6.9,6.8h29l7.5-7.9v-5C131.2,131.1,131.7,130.4,131.7,129.5z"/>
<path class="st0" d="M73.5,155.3c-0.2,0-0.4,0-0.6,0.1l-6.1-5.9H52l-6.9,7.1l-4.6,0c-0.3-0.8-1.1-1.3-2-1.3c-1.2,0-2.2,1-2.2,2.2
	s1,2.2,2.2,2.2c0.8,0,1.6-0.5,1.9-1.2h5.5l6.9-7.1h13.3l5.3,5.3c-0.1,0.2-0.1,0.5-0.1,0.7c0,1.2,1,2.2,2.2,2.2s2.2-1,2.2-2.2
	C75.7,156.3,74.7,155.3,73.5,155.3z"/>
<path class="st0" d="M75.6,144.2c0.1-0.2,0.1-0.4,0.1-0.7c0-1.2-1-2.2-2.2-2.2s-2.2,1-2.2,2.2s1,2.2,2.2,2.2c0.2,0,0.5,0,0.7-0.1
	l5.3,5.3v6.1l-6.4,6.4h-6.3l-5.2-5.3c0.1-0.2,0.1-0.4,0.1-0.6c0-1.2-1-2.2-2.2-2.2s-2.2,1-2.2,2.2s1,2.2,2.2,2.2
	c0.2,0,0.5,0,0.7-0.1l5.8,5.9h7.9l7.5-7.7v-7.8L75.6,144.2z"/>
<path class="st0" d="M66.5,169.3c-0.9,0-1.6,0.5-2,1.2h-4.6l-5.3-5.4c0.1-0.2,0.1-0.4,0.1-0.6c0-1.2-1-2.2-2.2-2.2s-2.2,1-2.2,2.2
	s1,2.2,2.2,2.2c0.2,0,0.5,0,0.7-0.1l5.9,5.9h5.5c0.4,0.7,1.1,1.2,2,1.2c1.2,0,2.2-1,2.2-2.2C68.7,170.3,67.7,169.3,66.5,169.3z"/>
<path class="st0" d="M10.5,162.3c-0.2,0-0.4,0-0.6,0.1L4.4,157v-4.5c0.8-0.3,1.3-1.1,1.3-2c0-1.2-1-2.2-2.2-2.2s-2.2,1-2.2,2.2
	c0,0.8,0.4,1.5,1.1,1.9v5.6l6.1,5.7c-0.1,0.2-0.2,0.5-0.2,0.8c0,1.2,1,2.2,2.2,2.2s2.2-1,2.2-2.2S11.7,162.3,10.5,162.3z"/>
<path class="st0" d="M53.5,171l-7.7-7.6h-5.4c-0.4-0.7-1.1-1.1-1.9-1.1c-1.2,0-2.2,1-2.2,2.2s1,2.2,2.2,2.2c0.8,0,1.6-0.5,1.9-1.2
	h4.7l6.3,6.5l-0.1,20.2l-5,5.4c-0.3-0.1-0.6-0.2-0.9-0.2c-1.2,0-2.2,1-2.2,2.2s1,2.2,2.2,2.2s2.2-1,2.2-2.2c0-0.3-0.1-0.5-0.2-0.8
	l5.9-5.8C53.5,192.9,53.5,171,53.5,171z"/>
<path class="st0" d="M38.5,176.3c-0.8,0-1.6,0.5-1.9,1.2H24.1l-7.6,7.6v7.9l5.9,5.8c-0.1,0.2-0.1,0.4-0.1,0.6c0,1.2,1,2.2,2.2,2.2
	s2.2-1,2.2-2.2s-1-2.2-2.2-2.2c-0.2,0-0.5,0-0.7,0.1l-5.4-5.4v-6.1l6.4-6.4h11.7c0.4,0.7,1.1,1.2,2,1.2c1.2,0,2.2-1,2.2-2.2
	S39.7,176.3,38.5,176.3z"/>
<path class="st0" d="M18.5,204.5v-5.5l-7-7v-6.1l5.3-5.3c0.2,0.1,0.5,0.1,0.8,0.1c1.2,0,2.2-1,2.2-2.2s-1-2.2-2.2-2.2
	s-2.2,1-2.2,2.2c0,0.3,0.1,0.5,0.1,0.7L9.5,185v8l7,6.9v4.6c-0.7,0.4-1.2,1.1-1.2,2c0,1.2,1,2.2,2.2,2.2s2.2-1,2.2-2.2
	C19.7,205.6,19.2,204.9,18.5,204.5z"/>
<path class="st0" d="M59.5,211.3c-1.2,0-2.2,1-2.2,2.2c0,0.3,0.1,0.5,0.1,0.7l-5.4,5.2h-6.2l-14-14H24l-7.1,7.1h-6.1l-6.4-6.7v-20
	l13.4-13.4h4.7c0.4,0.7,1.1,1.2,1.9,1.2c1.2,0,2.2-1,2.2-2.2s-1-2.2-2.2-2.2c-0.9,0-1.6,0.5-1.9,1.2h-5.4L2.4,185.1v21.8l7.6,7.5
	l7.8,0.2l7-7.2l6.2,0.1l13.9,14h8.1l5.8-5.9c0.2,0.1,0.5,0.2,0.8,0.2c1.2,0,2.2-1,2.2-2.2C61.7,212.3,60.7,211.3,59.5,211.3z"/>
<path class="st0" d="M46.5,232.5V227L32,212.5h-5.6c-0.4-0.7-1.1-1.2-2-1.2c-1.2,0-2.2,1-2.2,2.2s1,2.2,2.2,2.2c0.9,0,1.6-0.5,2-1.2
	h4.7l13.2,13.4l0.1,4.7c-0.7,0.4-1.2,1.1-1.2,2c0,1.2,1,2.2,2.2,2.2s2.2-1,2.2-2.2C47.7,233.6,47.2,232.9,46.5,232.5z"/>
<path class="st0" d="M4.4,225.5v-10c0.8-0.3,1.3-1.1,1.3-2c0-1.2-1-2.2-2.2-2.2s-2.2,1-2.2,2.2c0,0.9,0.5,1.7,1.3,2v10
	c-0.8,0.3-1.3,1.1-1.3,2c0,1.2,1,2.2,2.2,2.2s2.2-1,2.2-2.2C5.7,226.6,5.2,225.8,4.4,225.5z"/>
<path class="st0" d="M31.5,232.3c-1.2,0-2.2,1-2.2,2.2c0,0.2,0,0.5,0.1,0.7l-5.3,5.3H12.4c-0.4-0.7-1.1-1.2-1.9-1.2
	c-1.2,0-2.2,1-2.2,2.2s1,2.2,2.2,2.2c0.9,0,1.6-0.5,2-1.2h12.4l6-5.9c0.2,0.1,0.4,0.1,0.7,0.1c1.2,0,2.2-1,2.2-2.2
	S32.7,232.3,31.5,232.3z"/>
<path class="st0" d="M66.5,225.3c-1.2,0-2.2,1-2.2,2.2c0,0.2,0,0.4,0.1,0.6l-5.3,5.4h-4.6c-0.4-0.7-1.1-1.2-2-1.2
	c-1.2,0-2.2,1-2.2,2.2s1,2.2,2.2,2.2c0.9,0,1.6-0.5,2-1.2h5.4l5.8-5.9c0.2,0.1,0.5,0.2,0.8,0.2c1.2,0,2.2-1,2.2-2.2
	C68.7,226.3,67.7,225.3,66.5,225.3z"/>
<path class="st0" d="M66.4,218.3c-1.2,0-2.2,1-2.2,2.2c0,0.2,0,0.4,0.1,0.6l-5.3,5.4h-4.6c-0.4-0.7-1.1-1.2-2-1.2
	c-1.2,0-2.2,1-2.2,2.2s1,2.2,2.2,2.2c0.9,0,1.6-0.5,2-1.2h5.4l5.8-5.9c0.2,0.1,0.5,0.2,0.8,0.2c1.2,0,2.2-1,2.2-2.2
	C68.6,219.3,67.6,218.3,66.4,218.3z"/>
<path class="st0" d="M94.5,239.3c-0.9,0-1.6,0.5-2,1.2l-4.6-0.1l-7.1-7l-7.7-0.1l-6.9,7.1l-20.3-0.1l-21-20.9h-7.7L2.4,234v5.6
	c-0.6,0.4-1.1,1.1-1.1,1.9c0,1.2,1,2.2,2.2,2.2s2.2-1,2.2-2.2c0-0.9-0.6-1.7-1.4-2v-4.4l13.5-13.7H24l21,21.1h21.9l6.9-6.9h6.2
	l7,6.9h5.4c0.4,0.7,1.1,1.2,2,1.2c1.2,0,2.2-1,2.2-2.2C96.7,240.3,95.7,239.3,94.5,239.3z"/>
<path class="st0" d="M101.5,232.3c-0.8,0-1.6,0.5-1.9,1.2H89.4c-0.4-0.7-1.1-1.2-1.9-1.2c-1.2,0-2.2,1-2.2,2.2s1,2.2,2.2,2.2
	c0.9,0,1.6-0.5,2-1.3h10c0.4,0.7,1.1,1.3,2,1.3c1.2,0,2.2-1,2.2-2.2C103.7,233.3,102.7,232.3,101.5,232.3z"/>
<path class="st0" d="M115.5,225.3c-1.2,0-2.2,1-2.2,2.2c0,0.2,0,0.4,0.1,0.7l-11.2,11.3c-0.2-0.1-0.5-0.1-0.7-0.1
	c-1.2,0-2.2,1-2.2,2.2s1,2.2,2.2,2.2s2.2-1,2.2-2.2c0-0.2,0-0.4-0.1-0.7l11.3-11.3c0.2,0.1,0.4,0.1,0.7,0.1c1.2,0,2.2-1,2.2-2.2
	C117.7,226.3,116.7,225.3,115.5,225.3z"/>
<path class="st0" d="M101.5,225.3c-0.9,0-1.6,0.5-2,1.3l-18.6,0l-12.3-12.3c0.1-0.2,0.1-0.5,0.1-0.7c0-1.2-1-2.2-2.2-2.2
	s-2.2,1-2.2,2.2s1,2.2,2.2,2.2c0.2,0,0.3,0,0.5-0.1L80,228.5h19.5c0.4,0.7,1.1,1.2,2,1.2c1.2,0,2.2-1,2.2-2.2
	C103.7,226.3,102.7,225.3,101.5,225.3z"/>
<path class="st0" d="M80.5,218.3c-0.2,0-0.5,0-0.7,0.1L68.6,207c0-0.2,0.1-0.3,0.1-0.5c0-1.2-1-2.2-2.2-2.2s-2.2,1-2.2,2.2
	s1,2.2,2.2,2.2c0.2,0,0.5,0,0.7-0.1l11.2,11.2c-0.1,0.2-0.1,0.4-0.1,0.7c0,1.2,1,2.2,2.2,2.2s2.2-1,2.2-2.2
	C82.7,219.3,81.7,218.3,80.5,218.3z"/>
<path class="st0" d="M101.5,218.3c-0.8,0-1.6,0.5-1.9,1.2h-4.6l-12.3-12.4c0.1-0.2,0.1-0.4,0.1-0.6c0-1.2-1-2.2-2.2-2.2
	s-2.2,1-2.2,2.2s1,2.2,2.2,2.2c0.3,0,0.5-0.1,0.8-0.1L94,221.4h5.5c0.3,0.8,1.1,1.3,2,1.3c1.2,0,2.2-1,2.2-2.2
	S102.7,218.3,101.5,218.3z"/>
<path class="st0" d="M80.5,197.3c-1.2,0-2.2,1-2.2,2.2c0,0.2,0,0.4,0.1,0.6l-4.3,4.3c-0.2-0.1-0.4-0.1-0.6-0.1c-1.2,0-2.2,1-2.2,2.2
	s1,2.2,2.2,2.2s2.2-1,2.2-2.2c0-0.3-0.1-0.6-0.2-0.8l4.3-4.1c0.2,0.1,0.5,0.1,0.7,0.1c1.2,0,2.2-1,2.2-2.2
	C82.7,198.3,81.7,197.3,80.5,197.3z"/>
<path class="st0" d="M80.5,190.3c-1.2,0-2.2,1-2.2,2.2c0,0.2,0,0.4,0.1,0.6l-5.3,5.4l-7,0l-6.7,7l-5,0c-0.4-0.7-1.1-1.1-1.9-1.1
	c-1.2,0-2.2,1-2.2,2.2s1,2.2,2.2,2.2c0.9,0,1.6-0.5,2-1.3h5.4l6.9-7h7.1l5.9-5.8c0.2,0.1,0.4,0.1,0.6,0.1c1.2,0,2.2-1,2.2-2.2
	C82.7,191.3,81.7,190.3,80.5,190.3z"/>
<path class="st0" d="M73.5,190.3c-0.9,0-1.6,0.5-2,1.2h-5.4l-6,5.9c-0.2-0.1-0.4-0.1-0.6-0.1c-1.2,0-2.2,1-2.2,2.2s1,2.2,2.2,2.2
	s2.2-1,2.2-2.2c0-0.2,0-0.5-0.1-0.7l5.3-5.3h4.6c0.4,0.7,1.1,1.2,2,1.2c1.2,0,2.2-1,2.2-2.2C75.7,191.3,74.7,190.3,73.5,190.3z"/>
<path class="st0" d="M108.5,218.3c-0.3,0-0.5,0.1-0.7,0.1l-19.2-19.3l-0.1-7.1l-7.5-7.6H66l-21.6,21.6v5.5c-0.7,0.4-1.2,1.1-1.2,1.9
	c0,1.2,1,2.2,2.2,2.2s2.2-1,2.2-2.2c0-0.8-0.5-1.6-1.2-1.9v-4.8l20.3-20.2H80l6.4,6.3v6.9l20,20c-0.1,0.2-0.1,0.5-0.1,0.7
	c0,1.2,1,2.2,2.2,2.2s2.2-1,2.2-2.2C110.7,219.3,109.7,218.3,108.5,218.3z"/>
<path class="st0" d="M87.5,169.3c-1.2,0-2.2,1-2.2,2.2c0,0.2,0,0.4,0.1,0.6l-5.2,5.4l-4.7,0.1c-0.4-0.7-1.1-1.2-2-1.2
	c-1.2,0-2.2,1-2.2,2.2s1,2.2,2.2,2.2c0.9,0,1.6-0.5,2-1.2h5.4l5.9-5.9c0.2,0.1,0.5,0.1,0.7,0.1c1.2,0,2.2-1,2.2-2.2
	C89.7,170.3,88.7,169.3,87.5,169.3z"/>
<path class="st0" d="M87.5,162.3c-0.9,0-1.6,0.5-2,1.2H80l-13.8,14l-4.8,0c-0.4-0.7-1.1-1.2-2-1.2c-1.2,0-2.2,1-2.2,2.2
	s1,2.2,2.2,2.2c0.9,0,1.7-0.5,2-1.3H67l13.9-13.9h4.7c0.4,0.7,1.1,1.2,1.9,1.2c1.2,0,2.2-1,2.2-2.2
	C89.7,163.3,88.7,162.3,87.5,162.3z"/>
<path class="st0" d="M101.5,190.3c-0.2,0-0.5,0.1-0.7,0.1l-5.3-5.3v-6.3l5.2-5.3c0.2,0.1,0.5,0.1,0.8,0.1c1.2,0,2.2-1,2.2-2.2
	s-1-2.2-2.2-2.2s-2.2,1-2.2,2.2c0,0.2,0,0.4,0.1,0.6l-6,5.9v7.8l6,5.9c-0.1,0.2-0.1,0.5-0.1,0.7c0,1.2,1,2.2,2.2,2.2s2.2-1,2.2-2.2
	C103.7,191.3,102.7,190.3,101.5,190.3z"/>
<path class="st0" d="M109.5,169.5v-5.4l-5.9-6c0-0.2,0.1-0.4,0.1-0.6c0-1.2-1-2.2-2.2-2.2s-2.2,1-2.2,2.2s1,2.2,2.2,2.2
	c0.2,0,0.5,0,0.7-0.1l5.4,5.4v4.5c-0.7,0.4-1.3,1.1-1.3,2c0,1.2,1,2.2,2.2,2.2s2.2-1,2.2-2.2C110.7,170.6,110.2,169.9,109.5,169.5z"
	/>
<path class="st0" d="M117.7,171.5c0-1.2-1-2.2-2.2-2.2s-2.2,1-2.2,2.2c0,0.9,0.5,1.6,1.2,1.9l0,11.8l-6.9,6.9v5.4
	c-0.7,0.4-1.3,1.1-1.3,2c0,1.2,1,2.2,2.2,2.2s2.2-1,2.2-2.2c0-0.9-0.5-1.6-1.2-2v-4.7l7-7v-12.4
	C117.2,173.1,117.7,172.4,117.7,171.5z"/>
<path class="st0" d="M122.5,183.3c-1.2,0-2.2,1-2.2,2.2c0,0.3,0.1,0.5,0.1,0.8l-5.9,5.9v5.4c-0.8,0.3-1.3,1.1-1.3,2
	c0,1.2,1,2.2,2.2,2.2s2.2-1,2.2-2.2c0-0.9-0.5-1.6-1.3-2v-4.6l5.2-5.4c0.3,0.1,0.6,0.2,0.9,0.2c1.2,0,2.2-1,2.2-2.2
	C124.7,184.3,123.7,183.3,122.5,183.3z"/>
<path class="st0" d="M136.5,176.3c-1.2,0-2.2,1-2.2,2.2c0,0.2,0,0.5,0.1,0.7l-12.8,12.9v5.4c-0.8,0.4-1.3,1.1-1.3,2
	c0,1.2,1,2.2,2.2,2.2s2.2-1,2.2-2.2c0-0.9-0.5-1.6-1.2-2v-4.7l12.2-12.3c0.3,0.1,0.5,0.2,0.8,0.2c1.2,0,2.2-1,2.2-2.2
	C138.7,177.3,137.7,176.3,136.5,176.3z"/>
<path class="st0" d="M194.7,220.5c0-1.2-1-2.2-2.2-2.2s-2.2,1-2.2,2.2c0,0.8,0.5,1.6,1.2,1.9l0.1,4.6l-6.4,6.5l-7.2-0.1l-6.9,7.1
	h-34.2l-6.3-6.6V227l-7.8-7.6H115l-5.9,6c-0.2-0.1-0.4-0.1-0.7-0.1c-1.2,0-2.2,1-2.2,2.2s1,2.2,2.2,2.2s2.2-1,2.2-2.2
	c0-0.2,0-0.4-0.1-0.6l5.3-5.4h6.3l6.3,6.4v6.9l7.6,7.8h35.8l6.9-7.1h7.2l7.5-7.6v-5.4C194.2,222.1,194.7,221.4,194.7,220.5z"/>
<path class="st0" d="M164.5,211.3c-0.3,0-0.5,0.1-0.8,0.1l-5.3-5.2v-7.3l-7.6-7.4h-7.6l-21.1,20.9h-13.4l-12.2-12.4
	c0.1-0.2,0.1-0.4,0.1-0.6c0-1.2-1-2.2-2.2-2.2s-2.2,1-2.2,2.2s1,2.2,2.2,2.2c0.2,0,0.5-0.1,0.7-0.1l12.8,13.1h14.8l21.1-21.2
	l6.2-0.1l6.4,6.5l0.1,7.1l5.9,5.8c-0.1,0.2-0.1,0.4-0.1,0.7c0,1.2,1,2.2,2.2,2.2s2.2-1,2.2-2.2C166.7,212.3,165.7,211.3,164.5,211.3
	z"/>
<path class="st0" d="M138.7,185.5c0-1.2-1-2.2-2.2-2.2s-2.2,1-2.2,2.2c0,0.8,0.5,1.6,1.2,1.9v4.8l-13.7,13.3h-13.1l-20.3-20.3v-6.3
	l6.9-7v-21.8l-5.8-5.8c0.1-0.2,0.1-0.5,0.1-0.8c0-1.2-1-2.2-2.2-2.2s-2.2,1-2.2,2.2s1,2.2,2.2,2.2c0.3,0,0.5-0.1,0.8-0.1l5.2,5.2
	v20.4l-7.1,6.9v7.8l21.6,21.7h14.9l14.5-14.5v-5.5C138.2,187.1,138.7,186.4,138.7,185.5z"/>
<path class="st0" d="M150.8,156.6l-7.7-0.1l-6.1,6c-0.2-0.1-0.4-0.1-0.6-0.1c-1.2,0-2.2,1-2.2,2.2s1,2.2,2.2,2.2s2.2-1,2.2-2.2
	c0-0.3-0.1-0.6-0.2-0.8l5.3-5.1h6.4l6.3,6.4v6.3l-6.3,6.4h-6.3l-13.9-14h-13.9l-12.4-12.3c0.1-0.2,0.2-0.5,0.2-0.8
	c0-1.2-1-2.2-2.2-2.2s-2.2,1-2.2,2.2s1,2.2,2.2,2.2c0.2,0,0.4,0,0.6-0.1l12.8,12.9h14.6l13.6,14.1h7.7l7.7-7.7V164L150.8,156.6z"/>
<path class="st0" d="M129.5,141.3c-1.2,0-2.2,1-2.2,2.2c0,0.2,0,0.5,0.1,0.7l-5.8,5.9v5.5c-0.8,0.3-1.3,1.1-1.3,2
	c0,1.2,1,2.2,2.2,2.2s2.2-1,2.2-2.2c0-0.9-0.5-1.6-1.3-2v-4.6l5.4-5.3c0.2,0.1,0.4,0.1,0.7,0.1c1.2,0,2.2-1,2.2-2.2
	S130.7,141.3,129.5,141.3z"/>
<path class="st0" d="M193.5,122.1v-4.7c0.7-0.4,1.2-1.1,1.2-2c0-1.2-1-2.2-2.2-2.2s-2.2,1-2.2,2.2c0,0.9,0.5,1.6,1.3,2l-0.1,5.5
	l7,6.9l0.2,13.2l-6.5,6.4l-13.3,0.1l-7-7.1l-36,0.1l-5.7,5.9c-0.2-0.1-0.5-0.1-0.8-0.1c-1.2,0-2.2,1-2.2,2.2s1,2.2,2.2,2.2
	s2.2-1,2.2-2.2c0-0.3-0.1-0.6-0.2-0.8l5.4-5.3h34.2l6.9,7.1h14.8l7.7-7.5v-14.9L193.5,122.1z"/>
<path class="st0" d="M94.5,134.3c-0.2,0-0.4,0-0.6,0.1l-5.3-5.3v-4.7c0.7-0.4,1.1-1.1,1.1-1.9c0-1.2-1-2.2-2.2-2.2s-2.2,1-2.2,2.2
	c0,0.9,0.5,1.6,1.2,2v5.4l5.9,5.9c-0.1,0.2-0.1,0.5-0.1,0.8c0,1.2,1,2.2,2.2,2.2s2.2-1,2.2-2.2C96.7,135.3,95.7,134.3,94.5,134.3z"
	/>
<path class="st0" d="M108.5,134.3c-0.9,0-1.6,0.5-2,1.2h-4.6l-6.6-6.4v-4.6c0.8-0.3,1.3-1.1,1.3-2c0-1.2-1-2.2-2.2-2.2
	s-2.2,1-2.2,2.2c0,0.8,0.5,1.6,1.2,1.9v5.4l7.6,7.6h5.4c0.4,0.7,1.1,1.2,1.9,1.2c1.2,0,2.2-1,2.2-2.2
	C110.7,135.3,109.7,134.3,108.5,134.3z"/>
<path class="st0" d="M122.5,134.3c-0.9,0-1.6,0.5-2,1.2l-4.6,0l-7.1-7h-5.4c-0.4-0.7-1.1-1.2-2-1.2c-1.2,0-2.2,1-2.2,2.2
	s1,2.2,2.2,2.2c0.9,0,1.6-0.5,2-1.2h4.7l6.9,7h5.5c0.4,0.7,1.1,1.2,2,1.2c1.2,0,2.2-1,2.2-2.2C124.7,135.3,123.7,134.3,122.5,134.3z
	"/>
<path class="st0" d="M129.5,120.3c-0.9,0-1.6,0.5-2,1.3h-5.4l-5.9,5.9c-0.2-0.1-0.4-0.1-0.7-0.1c-1.2,0-2.2,1-2.2,2.2
	c0,1.2,1,2.2,2.2,2.2s2.2-1,2.2-2.2c0-0.2,0-0.4-0.1-0.6l5.3-5.3h4.7c0.4,0.7,1.1,1.1,1.9,1.1c1.2,0,2.2-1,2.2-2.2
	C131.7,121.3,130.7,120.3,129.5,120.3z"/>
<path class="st0" d="M101.5,120.3c-0.3,0-0.5,0.1-0.8,0.1l-5.9-6h-5.4c-0.4-0.7-1.1-1.2-1.9-1.2c-1.2,0-2.2,1-2.2,2.2s1,2.2,2.2,2.2
	c0.9,0,1.7-0.5,2-1.3h4.6l5.3,5.4c-0.1,0.2-0.1,0.4-0.1,0.7c0,1.2,1,2.2,2.2,2.2s2.2-1,2.2-2.2C103.7,121.3,102.7,120.3,101.5,120.3
	z"/>
<path class="st0" d="M122.5,113.3c-0.9,0-1.6,0.5-2,1.2l-4.7,0l-6.9-7h-5.4c-0.4-0.7-1.1-1.2-1.9-1.2c-1.2,0-2.2,1-2.2,2.2
	s1,2.2,2.2,2.2c0.8,0,1.6-0.5,1.9-1.2h4.6l7,7h5.5c0.4,0.7,1.1,1.2,2,1.2c1.2,0,2.2-1,2.2-2.2C124.7,114.3,123.7,113.3,122.5,113.3z
	"/>
<path class="st0" d="M171.5,134.3c-0.3,0-0.5,0.1-0.8,0.1l-5.8-5.9l-7.8,0l-7,7.1h-6.3l-6.4-6.3v-4.7c0.8-0.3,1.3-1.1,1.3-2
	c0-1.2-1-2.2-2.2-2.2s-2.2,1-2.2,2.2c0,0.8,0.5,1.5,1.1,1.9v5.5l7.6,7.5h8l6.9-7h6.1l5.5,5.4c-0.1,0.2-0.1,0.5-0.1,0.7
	c0,1.2,1,2.2,2.2,2.2s2.2-1,2.2-2.2C173.7,135.3,172.7,134.3,171.5,134.3z"/>
<path class="st0" d="M178.5,120.3c-1.2,0-2.2,1-2.2,2.2c0,0.3,0.1,0.5,0.1,0.7l-4.2,4.2c-0.2-0.1-0.5-0.1-0.8-0.1
	c-1.2,0-2.2,1-2.2,2.2c0,1.2,1,2.2,2.2,2.2s2.2-1,2.2-2.2c0-0.2,0-0.5-0.1-0.7l4.1-4.3c0.3,0.1,0.5,0.2,0.8,0.2c1.2,0,2.2-1,2.2-2.2
	C180.7,121.3,179.7,120.3,178.5,120.3z"/>
<path class="st0" d="M150.5,106.3c-0.8,0-1.6,0.5-1.9,1.2h-17.1c-0.4-0.7-1.1-1.2-1.9-1.2c-1.2,0-2.2,1-2.2,2.2s1,2.2,2.2,2.2
	c0.9,0,1.6-0.5,2-1.3h17c0.4,0.8,1.1,1.3,2,1.3c1.2,0,2.2-1,2.2-2.2C152.7,107.3,151.7,106.3,150.5,106.3z"/>
<path class="st0" d="M108.5,92.3c-0.8,0-1.6,0.5-1.9,1.2H96.4c-0.4-0.7-1.1-1.2-1.9-1.2c-1.2,0-2.2,1-2.2,2.2s1,2.2,2.2,2.2
	c0.9,0,1.6-0.5,2-1.2h10.1c0.4,0.7,1.1,1.2,2,1.2c1.2,0,2.2-1,2.2-2.2C110.7,93.3,109.7,92.3,108.5,92.3z"/>
<path class="st0" d="M115.5,92.3c-1.2,0-2.2,1-2.2,2.2c0,0.2,0,0.5,0.1,0.7l-5.3,5.3H94.8l-6.3-6.4v-4.7c0.7-0.4,1.2-1.1,1.2-2
	c0-1.2-1-2.2-2.2-2.2s-2.2,1-2.2,2.2c0,0.8,0.5,1.5,1.1,1.9v5.5l7.5,7.6h14.9l5.9-5.9c0.2,0.1,0.5,0.1,0.7,0.1c1.2,0,2.2-1,2.2-2.2
	C117.7,93.3,116.7,92.3,115.5,92.3z"/>
<path class="st0" d="M136.5,92.3c-0.8,0-1.6,0.5-1.9,1.2h-4.7l-5.3-5.4c0-0.2,0.1-0.4,0.1-0.5c0-1.2-1-2.2-2.2-2.2s-2.2,1-2.2,2.2
	s1,2.2,2.2,2.2c0.2,0,0.5,0,0.7-0.1l5.9,6h5.6c0.4,0.7,1.1,1.2,1.9,1.2c1.2,0,2.2-1,2.2-2.2S137.7,92.3,136.5,92.3z"/>
<path class="st0" d="M143.5,99.3c-0.9,0-1.6,0.5-2,1.3l-11.6,0.1L116,86.5l-14.1-0.1l-6.9-7H87L79.6,87v7.9l6.9,6.9l0.1,6.3l-7,7
	v5.5c-0.7,0.4-1.3,1.1-1.3,2c0,1.2,1,2.2,2.2,2.2s2.2-1,2.2-2.2c0-0.9-0.5-1.6-1.2-2v-4.7l7.1-7.1v-7.7l-7.1-7.2v-6l6.4-6.4H94
	l6.8,6.9l14.2,0.2l14,14h12.5c0.4,0.7,1.1,1.2,1.9,1.2c1.2,0,2.2-1,2.2-2.2C145.7,100.3,144.7,99.3,143.5,99.3z"/>
<path class="st0" d="M108.5,8.3c-0.8,0-1.6,0.5-1.9,1.2H93.9l-6.8,7h-6.9l-7.8,7.7V32l7.1,6.9l0.1,21.2l6.9,6.8l0.1,6.1L74.3,85.4
	c-0.2-0.1-0.5-0.1-0.8-0.1c-1.2,0-2.2,1-2.2,2.2s1,2.2,2.2,2.2s2.2-1,2.2-2.2c0-0.3-0.1-0.6-0.2-0.8L88.5,74l0-8l-6.9-7V38l-7-6.8
	l-0.1-6.4l6.6-6.4h7l6.9-7h11.7c0.4,0.7,1.1,1.2,1.9,1.2c1.2,0,2.2-1,2.2-2.2S109.7,8.3,108.5,8.3z"/>
<path class="st0" d="M122.9,2.5H75.4c-0.4-0.7-1.1-1.2-1.9-1.2c-1.2,0-2.2,1-2.2,2.2s1,2.2,2.2,2.2c0.9,0,1.7-0.5,2-1.3l46.6,0.1
	L135.5,18l-0.1,13.2l-6.4,6.4l-6.1,0l-5.3-5.3c0.1-0.2,0.1-0.5,0.1-0.7c0-1.2-1-2.2-2.2-2.2s-2.2,1-2.2,2.2c0,1.2,1,2.2,2.2,2.2
	c0.3,0,0.6-0.1,0.9-0.2l5.6,5.9h7.9l7.5-7.9V16.9L122.9,2.5z"/>
<path class="st0" d="M129.5,15.3c-1.2,0-2.2,1-2.2,2.2c0,0.3,0.1,0.5,0.1,0.7l-5.3,5.3h-4.7c-0.4-0.7-1.1-1.2-2-1.2
	c-1.2,0-2.2,1-2.2,2.2s1,2.2,2.2,2.2c0.8,0,1.6-0.5,1.9-1.2h5.5l5.7-6c0.3,0.1,0.6,0.2,0.9,0.2c1.2,0,2.2-1,2.2-2.2
	S130.7,15.3,129.5,15.3z"/>
<path class="st0" d="M101.5,29.3c-0.3,0-0.6,0.1-0.8,0.2l-5.2-5.3v-4.7c0.7-0.4,1.2-1.1,1.2-1.9c0-1.2-1-2.2-2.2-2.2s-2.2,1-2.2,2.2
	c0,0.8,0.5,1.6,1.2,1.9v5.5l5.9,6c-0.1,0.2-0.1,0.4-0.1,0.6c0,1.2,1,2.2,2.2,2.2s2.2-1,2.2-2.2S102.7,29.3,101.5,29.3z"/>
<path class="st0" d="M88.5,36.5v-5.5l-5.9-6c0.1-0.2,0.1-0.4,0.1-0.6c0-1.2-1-2.2-2.2-2.2s-2.2,1-2.2,2.2s1,2.2,2.2,2.2
	c0.3,0,0.5-0.1,0.8-0.1l5.3,5.3l0,4.7c-0.7,0.4-1.2,1.1-1.2,1.9c0,1.2,1,2.2,2.2,2.2s2.2-1,2.2-2.2C89.7,37.6,89.2,36.9,88.5,36.5z"
	/>
<path class="st0" d="M123.4,57.5v-5.4l-7.5-7.6h-7.1l-7-7H94l-7.5,7.6v14.9l7.5,7.6h7.9l7.7-7.5l0-5.6c0.7-0.4,1.2-1.1,1.2-2
	c0-1.2-1-2.2-2.2-2.2s-2.2,1-2.2,2.2c0,0.9,0.5,1.6,1.2,2l0,4.6l-6.5,6.4H95l-6.6-6.3l0.1-13.4l6.3-6.4h6.3l6.8,7h7.1l6.4,6.4l0,4.8
	c-0.7,0.4-1.2,1.1-1.2,2c0,1.2,1,2.2,2.2,2.2s2.2-1,2.2-2.2C124.7,58.6,124.2,57.9,123.4,57.5z"/>
<path class="st0" d="M122.5,71.3c-1.2,0-2.2,1-2.2,2.2c0,0.2,0,0.4,0.1,0.6l-5.3,5.3h-6.2l-7-6.8h-5.3c-0.3-0.8-1.1-1.3-2-1.3
	c-1.2,0-2.2,1-2.2,2.2s1,2.2,2.2,2.2c0.9,0,1.7-0.5,2-1.3h4.6l7,7h7.8l5.8-5.8c0.2,0.1,0.5,0.1,0.7,0.1c1.2,0,2.2-1,2.2-2.2
	C124.7,72.3,123.7,71.3,122.5,71.3z"/>
<path class="st0" d="M131.7,52.5c0-1.2-1-2.2-2.2-2.2s-2.2,1-2.2,2.2c0,0.9,0.5,1.6,1.2,1.9v4.6l-6.4,6.4h-7l-5.8,5.9
	c-0.2-0.1-0.5-0.1-0.7-0.1c-1.2,0-2.2,1-2.2,2.2s1,2.2,2.2,2.2s2.2-1,2.2-2.2c0-0.2,0-0.5-0.1-0.7l5.2-5.3h7.2l7.5-7.6v-5.4
	C131.2,54.1,131.7,53.4,131.7,52.5z"/>
<path class="st0" d="M150.5,15.3c-0.3,0-0.5,0.1-0.8,0.1l-12.8-13h-5.5c-0.4-0.7-1.1-1.2-1.9-1.2c-1.2,0-2.2,1-2.2,2.2
	s1,2.2,2.2,2.2c0.9,0,1.6-0.5,2-1.3l4.7,0.1l12.3,12.2c-0.1,0.2-0.2,0.5-0.2,0.8c0,1.2,1,2.2,2.2,2.2s2.2-1,2.2-2.2
	S151.7,15.3,150.5,15.3z"/>
<path class="st0" d="M150.5,22.3c-0.2,0-0.5,0-0.7,0.1l-11.2-11.3c0.1-0.2,0.1-0.4,0.1-0.6c0-1.2-1-2.2-2.2-2.2s-2.2,1-2.2,2.2
	s1,2.2,2.2,2.2c0.3,0,0.5-0.1,0.7-0.1l11.2,11.3c-0.1,0.2-0.1,0.4-0.1,0.7c0,1.2,1,2.2,2.2,2.2s2.2-1,2.2-2.2S151.7,22.3,150.5,22.3
	z"/>
<path class="st0" d="M151.5,31.2l-5.9-5.9c0.1-0.2,0.1-0.5,0.1-0.8c0-1.2-1-2.2-2.2-2.2s-2.2,1-2.2,2.2s1,2.2,2.2,2.2
	c0.2,0,0.5,0,0.7-0.1l5.3,5.4v6.2l-5.3,5.3c-0.2-0.1-0.5-0.1-0.7-0.1c-1.2,0-2.2,1-2.2,2.2s1,2.2,2.2,2.2s2.2-1,2.2-2.2
	c0-0.3-0.1-0.5-0.1-0.7l5.9-5.7V31.2z"/>
<path class="st0" d="M145.7,31.5c0-1.2-1-2.2-2.2-2.2s-2.2,1-2.2,2.2c0,0.9,0.5,1.6,1.3,2l-0.1,4.6l-5.3,5.3
	c-0.2-0.1-0.4-0.1-0.7-0.1c-1.2,0-2.2,1-2.2,2.2s1,2.2,2.2,2.2s2.2-1,2.2-2.2c0-0.2-0.1-0.5-0.1-0.7l5.8-5.9v-5.4
	C145.2,33.1,145.7,32.4,145.7,31.5z"/>
<path class="st0" d="M171.5,15.3c-0.8,0-1.6,0.5-1.9,1.2h-5.4l-7.7,7.5l-0.1,14.1l-6.9,7v5.5c-0.7,0.4-1.2,1.1-1.2,2
	c0,1.2,1,2.2,2.2,2.2s2.2-1,2.2-2.2c0-0.9-0.5-1.6-1.2-2v-4.5l7-7.2V25l6.4-6.6h4.6c0.4,0.7,1.1,1.3,2,1.3c1.2,0,2.2-1,2.2-2.2
	S172.7,15.3,171.5,15.3z"/>
<path class="st0" d="M178.5,1.3c-1.2,0-2.2,1-2.2,2.2c0,0.2,0,0.5,0.1,0.7l-5.3,5.4l-11.7-0.1c-0.4-0.7-1.1-1.2-2-1.2
	c-1.2,0-2.2,1-2.2,2.2s1,2.2,2.2,2.2c0.9,0,1.6-0.5,2-1.3h12.4l5.8-5.9c0.2,0.1,0.5,0.2,0.8,0.2c1.2,0,2.2-1,2.2-2.2
	S179.7,1.3,178.5,1.3z"/>
<path class="st0" d="M150.5,64.3c-1.2,0-2.2,1-2.2,2.2c0,0.2,0,0.4,0.1,0.6l-4.1,4.3c-0.2-0.1-0.5-0.1-0.8-0.1c-1.2,0-2.2,1-2.2,2.2
	s1,2.2,2.2,2.2s2.2-1,2.2-2.2c0-0.2-0.1-0.5-0.1-0.7l4.2-4.2c0.2,0.1,0.5,0.1,0.7,0.1c1.2,0,2.2-1,2.2-2.2
	C152.7,65.3,151.7,64.3,150.5,64.3z"/>
<path class="st0" d="M164.5,92.3c-0.9,0-1.6,0.5-2,1.3h-11.6l-20.5-20.5v-6.1l7-7v-7.9l-7.4-7.5h-7l-13.6-13.7V25l5.5-5.4
	c0.2,0.1,0.4,0.1,0.6,0.1c1.2,0,2.2-1,2.2-2.2s-1-2.2-2.2-2.2s-2.2,1-2.2,2.2c0,0.3,0.1,0.5,0.1,0.7l-5.9,5.8v7.9l14.6,14.5l6.9,0.1
	l6.5,6.4l-0.1,6.1l-7,7V74L150,95.4h12.5c0.3,0.8,1.1,1.3,2,1.3c1.2,0,2.2-1,2.2-2.2C166.7,93.3,165.7,92.3,164.5,92.3z"/>
<path class="st0" d="M192.5,8.3c-1.2,0-2.2,1-2.2,2.2c0,0.2,0,0.5,0.1,0.7l-5.9,5.8v5.5c-0.7,0.4-1.2,1.1-1.2,2c0,1.2,1,2.2,2.2,2.2
	c1.2,0,2.2-1,2.2-2.2c0-0.9-0.5-1.6-1.2-2v-4.6l5.3-5.3c0.2,0.1,0.5,0.1,0.7,0.1c1.2,0,2.2-1,2.2-2.2S193.7,8.3,192.5,8.3z"/>
<path class="st0" d="M206.5,29.3c-0.9,0-1.6,0.5-2,1.3h-10c-0.4-0.7-1.1-1.3-2-1.3c-1.2,0-2.2,1-2.2,2.2s1,2.2,2.2,2.2
	c0.9,0,1.6-0.5,2-1.3h10c0.4,0.7,1.1,1.3,2,1.3c1.2,0,2.2-1,2.2-2.2S207.7,29.3,206.5,29.3z"/>
<path class="st0" d="M227.5,1.3c-1.2,0-2.2,1-2.2,2.2c0,0.2,0,0.4,0.1,0.6l-5.2,5.3L213,9.5l-13.9,14l-7.1-0.1l-6.9,6.9l-4.8,0.1
	c-0.4-0.7-1.1-1.1-1.9-1.1c-1.2,0-2.2,1-2.2,2.2s1,2.2,2.2,2.2c0.9,0,1.6-0.5,2-1.3h5.5l6.9-6.9h6.9l14-13.9h7.1l5.9-6
	c0.2,0.1,0.4,0.1,0.6,0.1c1.2,0,2.2-1,2.2-2.2S228.7,1.3,227.5,1.3z"/>
<path class="st0" d="M199.5,8.3c-0.3,0-0.5,0.1-0.8,0.1l-5.9-5.9h-7.7l-7.6,7.6v14l-21,21V52l-6.4,6.6H143l-7.5,7.5V74l6,5.8
	c-0.1,0.2-0.1,0.5-0.1,0.8c0,1.2,1,2.2,2.2,2.2c1.2,0,2.2-1,2.2-2.2c0-1.2-1-2.2-2.2-2.2c-0.2,0-0.5,0-0.7,0.1l-5.3-5.2l-0.1-6.3
	l6.4-6.3h7.1l7.6-7.6l-0.1-7.1l21-21.2l0.1-13.9l6.5-6.4h6l5.3,5.4c-0.1,0.2-0.1,0.5-0.1,0.7c0,1.2,1,2.2,2.2,2.2
	c1.2,0,2.2-1,2.2-2.2S200.7,8.3,199.5,8.3z"/>
<path class="st0" d="M185.5,43.3c-0.8,0-1.6,0.5-1.9,1.2h-12.4L156.5,59v7l-5.1,5.5c-0.3-0.1-0.6-0.2-0.9-0.2c-1.2,0-2.2,1-2.2,2.2
	c0,1.2,1,2.2,2.2,2.2c1.2,0,2.2-1,2.2-2.2c0-0.3-0.1-0.6-0.2-0.8l5.8-5.9v-6.9L172,46.4h11.4c0.3,0.8,1.1,1.3,2,1.3
	c1.2,0,2.2-1,2.2-2.2S186.7,43.3,185.5,43.3z"/>
<path class="st0" d="M192.5,50.3c-0.9,0-1.6,0.5-2,1.3h-19.6l-7.4,7.4l-0.1,7.2L151,78.4c-0.2,0-0.3-0.1-0.5-0.1
	c-1.2,0-2.2,1-2.2,2.2c0,1.2,1,2.2,2.2,2.2c1.2,0,2.2-1,2.2-2.2c0-0.3-0.1-0.5-0.1-0.8L165.4,67v-7.1l6.5-6.4h18.6
	c0.4,0.7,1.1,1.2,2,1.2c1.2,0,2.2-1,2.2-2.2S193.7,50.3,192.5,50.3z"/>
<path class="st0" d="M192.5,57.3c-1.2,0-2.2,1-2.2,2.2c0,0.2,0,0.4,0.1,0.6l-5.4,5.5l-4.6,0c-0.4-0.7-1.1-1.2-2-1.2
	c-1.2,0-2.2,1-2.2,2.2c0,1.2,1,2.2,2.2,2.2c0.9,0,1.6-0.5,2-1.2h5.5l5.7-5.9c0.3,0.1,0.5,0.2,0.8,0.2c1.2,0,2.2-1,2.2-2.2
	S193.7,57.3,192.5,57.3z"/>
<path class="st0" d="M206.5,71.3c-0.3,0-0.5,0.1-0.8,0.1l-5.3-5.3V54.5c0.7-0.4,1.2-1.1,1.2-2c0-1.2-1-2.2-2.2-2.2
	c-1.2,0-2.2,1-2.2,2.2c0,0.8,0.5,1.5,1.1,1.9v12.4l6,5.9c-0.1,0.2-0.2,0.5-0.2,0.8c0,1.2,1,2.2,2.2,2.2c1.2,0,2.2-1,2.2-2.2
	C208.7,72.3,207.7,71.3,206.5,71.3z"/>
<path class="st0" d="M199.5,71.3c-0.2,0-0.5,0-0.7,0.1l-4.2-4.3c0.1-0.2,0.1-0.4,0.1-0.6c0-1.2-1-2.2-2.2-2.2c-1.2,0-2.2,1-2.2,2.2
	c0,1.2,1,2.2,2.2,2.2c0.3,0,0.5-0.1,0.8-0.1l4.2,4.2c-0.1,0.2-0.1,0.5-0.1,0.8c0,1.2,1,2.2,2.2,2.2c1.2,0,2.2-1,2.2-2.2
	C201.7,72.3,200.7,71.3,199.5,71.3z"/>
<path class="st0" d="M178.5,85.3c-0.3,0-0.5,0.1-0.8,0.1l-5.8-5.9h-5.4c-0.4-0.7-1.1-1.2-2-1.2c-1.2,0-2.2,1-2.2,2.2
	c0,1.2,1,2.2,2.2,2.2c0.9,0,1.6-0.5,2-1.3l4.6,0l5.4,5.5c-0.1,0.2-0.1,0.4-0.1,0.6c0,1.2,1,2.2,2.2,2.2c1.2,0,2.2-1,2.2-2.2
	C180.7,86.3,179.7,85.3,178.5,85.3z"/>
<path class="st0" d="M192.5,92.3c-1.2,0-2.2,1-2.2,2.2c0,0.3,0.1,0.5,0.1,0.8l-4.2,4.2c-0.2-0.1-0.5-0.1-0.7-0.1
	c-1.2,0-2.2,1-2.2,2.2c0,1.2,1,2.2,2.2,2.2c1.2,0,2.2-1,2.2-2.2c0-0.3-0.1-0.5-0.1-0.8l4.2-4.2c0.2,0.1,0.5,0.1,0.7,0.1
	c1.2,0,2.2-1,2.2-2.2C194.7,93.3,193.7,92.3,192.5,92.3z"/>
<path class="st0" d="M192.5,85.3c-0.8,0-1.6,0.5-1.9,1.2H185l-7,7h-7l-7.6,7.6v5.4c-0.7,0.4-1.1,1.1-1.1,1.9c0,1.2,1,2.2,2.2,2.2
	c1.2,0,2.2-1,2.2-2.2c0-0.9-0.5-1.6-1.3-2l0.1-4.6l6.5-6.5l7,0.1l7-7h4.6c0.4,0.7,1.1,1.2,2,1.2c1.2,0,2.2-1,2.2-2.2
	C194.7,86.3,193.7,85.3,192.5,85.3z"/>
<path class="st0" d="M206.5,78.3c-0.8,0-1.6,0.5-1.9,1.2h-4.7l-6.9-7H164l-7.6,7.7v5.4c-0.7,0.4-1.1,1.1-1.1,1.9
	c0,1.2,1,2.2,2.2,2.2c1.2,0,2.2-1,2.2-2.2c0-0.9-0.5-1.7-1.3-2V81l6.3-6.5H192l7,7h5.5c0.4,0.7,1.1,1.2,2,1.2c1.2,0,2.2-1,2.2-2.2
	C208.7,79.3,207.7,78.3,206.5,78.3z"/>
<path class="st0" d="M157.5,106.3c-0.2,0-0.5,0-0.7,0.1l-19.7-19.8h-7.3l-5.2-5.4c0.1-0.2,0.1-0.4,0.1-0.7c0-1.2-1-2.2-2.2-2.2
	c-1.2,0-2.2,1-2.2,2.2c0,1.2,1,2.2,2.2,2.2c0.3,0,0.5-0.1,0.8-0.2l5.6,6l7.2-0.1l19.3,19.3c-0.1,0.2-0.1,0.5-0.1,0.8
	c0,1.2,1,2.2,2.2,2.2c1.2,0,2.2-1,2.2-2.2C159.7,107.3,158.7,106.3,157.5,106.3z"/>
<path class="st0" d="M185.5,92.3c-1.2,0-2.2,1-2.2,2.2c0,0.2,0,0.4,0.1,0.6l-5.9,6v7l-6.4,6.4h-4.7c-0.4-0.7-1.1-1.2-1.9-1.2
	c-1.2,0-2.2,1-2.2,2.2c0,1.2,1,2.2,2.2,2.2c0.8,0,1.6-0.5,1.9-1.2h5.5l7.6-7.5v-7.1l5.2-5.3c0.2,0.1,0.5,0.1,0.7,0.1
	c1.2,0,2.2-1,2.2-2.2C187.7,93.3,186.7,92.3,185.5,92.3z"/>
<path class="st0" d="M194.6,81.2c0.1-0.2,0.1-0.4,0.1-0.7c0-1.2-1-2.2-2.2-2.2c-1.2,0-2.2,1-2.2,2.2c0,1.2,1,2.2,2.2,2.2
	c0.3,0,0.5-0.1,0.8-0.2l5.1,5l0.1,7l-27.4,27.1l-6.2,0.1l-6.6-7.2l-28.3,0.1l-6.9-7l-5.5-0.1c-0.4-0.7-1.1-1.2-2-1.2
	c-1.2,0-2.2,1-2.2,2.2c0,1.2,1,2.2,2.2,2.2c0.9,0,1.6-0.5,2-1.3l4.6-0.1l6.8,7l28.2,0.1l6.8,7.1h7.9l28.7-28.7v-7.8L194.6,81.2z"/>
<path class="st0" d="M178.5,169.3c-1.2,0-2.2,1-2.2,2.2c0,0.3,0.1,0.5,0.1,0.7l-6,5.9v5.4c-0.7,0.4-1.1,1.1-1.1,1.9
	c0,1.2,1,2.2,2.2,2.2c1.2,0,2.2-1,2.2-2.2c0-0.9-0.5-1.6-1.2-2v-5l5.3-4.9c0.2,0.1,0.5,0.1,0.7,0.1c1.2,0,2.2-1,2.2-2.2
	C180.7,170.3,179.7,169.3,178.5,169.3z"/>
<path class="st0" d="M165.5,192.5v-14l12.1-12c0.3,0.1,0.6,0.2,0.9,0.2c1.2,0,2.2-1,2.2-2.2c0-1.2-1-2.2-2.2-2.2
	c-1.2,0-2.2,1-2.2,2.2c0,0.2,0,0.5,0.1,0.7L163.5,178v14.8l21,21v6.1l-6.3,6.6l-7,0.1l-7,7h-13.2l-5.3-5.3c0.1-0.2,0.1-0.5,0.1-0.7
	c0-1.2-1-2.2-2.2-2.2c-1.2,0-2.2,1-2.2,2.2c0,1.2,1,2.2,2.2,2.2c0.2,0,0.5,0,0.7-0.1l5.9,5.9H165l6.5-6.9h7.5l7.6-7.7v-7.8
	L165.5,192.5z"/>
<path class="st0" d="M178.5,218.3c-0.9,0-1.6,0.5-1.9,1.2h-5.5l-7,7l-6.2,0l-7.1-7h-7.8l-7.6,7.6v5.5c-0.7,0.4-1.2,1.1-1.2,2
	c0,1.2,1,2.2,2.2,2.2c1.2,0,2.2-1,2.2-2.2c0-0.9-0.5-1.7-1.3-2V228l6.6-6.6h6.1l7,7.1l7.7-0.1l7.3-7.1h4.4c0.4,0.7,1.1,1.2,2,1.2
	c1.2,0,2.2-1,2.2-2.2C180.7,219.3,179.7,218.3,178.5,218.3z"/>
<path class="st0" d="M165.5,158l5.3-5.4c0.2,0.1,0.5,0.1,0.8,0.1c1.2,0,2.2-1,2.2-2.2c0-1.2-1-2.2-2.2-2.2c-1.2,0-2.2,1-2.2,2.2
	c0,0.2,0,0.4,0.1,0.5l-5.9,5.9l0.1,14l-7,7.1v15l13.9,13.5v6.5l-6.5,6.5h-6l-6.9-7h-7.1l-5.4-5.3c0.1-0.2,0.1-0.5,0.1-0.7
	c0-1.2-1-2.2-2.2-2.2c-1.2,0-2.2,1-2.2,2.2c0,1.2,1,2.2,2.2,2.2c0.2,0,0.5,0,0.7-0.1l5.9,5.9l7,0l6.9,7h8l7.5-7.6V206l-13.8-13.8
	l-0.1-13.4l7-6.9V158z"/>
<path class="st0" d="M192.5,127.3c-0.9,0-1.6,0.5-2,1.3H185l-5.7,5.9c-0.2-0.1-0.5-0.1-0.7-0.1c-1.2,0-2.2,1-2.2,2.2
	c0,1.2,1,2.2,2.2,2.2c1.2,0,2.2-1,2.2-2.2c0-0.2,0-0.5-0.1-0.7l5.3-5.3h4.7c0.4,0.7,1.1,1.2,1.9,1.2c1.2,0,2.2-1,2.2-2.2
	C194.7,128.3,193.7,127.3,192.5,127.3z"/>
<path class="st0" d="M192.5,134.1c-0.9,0-1.6,0.5-2,1.3H185l-5.7,5.9c-0.2-0.1-0.5-0.1-0.7-0.1c-1.2,0-2.2,1-2.2,2.2
	c0,1.2,1,2.2,2.2,2.2c1.2,0,2.2-1,2.2-2.2c0-0.2,0-0.5-0.1-0.7l5.3-5.3h4.7c0.4,0.7,1.1,1.2,1.9,1.2c1.2,0,2.2-1,2.2-2.2
	C194.7,135.1,193.7,134.1,192.5,134.1z"/>
<path class="st0" d="M220.5,127.3c-0.9,0-1.6,0.5-2,1.2h-4.7l-5.2-5.5c0-0.2,0.1-0.4,0.1-0.6c0-1.2-1-2.2-2.2-2.2
	c-1.2,0-2.2,1-2.2,2.2c0,1.2,1,2.2,2.2,2.2c0.2,0,0.5,0,0.7-0.1l5.8,5.9h5.5c0.4,0.7,1.1,1.2,2,1.2c1.2,0,2.2-1,2.2-2.2
	C222.7,128.3,221.7,127.3,220.5,127.3z"/>
<path class="st0" d="M220.5,120.3c-0.9,0-1.6,0.5-2,1.2h-4.7l-5.2-5.5c0-0.2,0.1-0.4,0.1-0.6c0-1.2-1-2.2-2.2-2.2
	c-1.2,0-2.2,1-2.2,2.2c0,1.2,1,2.2,2.2,2.2c0.2,0,0.5,0,0.7-0.1l5.8,5.9h5.5c0.4,0.7,1.1,1.2,2,1.2c1.2,0,2.2-1,2.2-2.2
	C222.7,121.3,221.7,120.3,220.5,120.3z"/>
<path class="st0" d="M241.5,15.3c-1.2,0-2.2,1-2.2,2.2c0,0.2,0.1,0.5,0.1,0.7l-5.4,5.3l-4.6,0c-0.4-0.7-1.1-1.2-1.9-1.2
	c-1.2,0-2.2,1-2.2,2.2s1,2.2,2.2,2.2c0.9,0,1.6-0.5,2-1.2h5l6.1-5.9c0.3,0.1,0.6,0.2,0.9,0.2c1.2,0,2.2-1,2.2-2.2
	S242.7,15.3,241.5,15.3z"/>
<path class="st0" d="M276.5,15.3c-1.2,0-2.2,1-2.2,2.2c0,0.2,0.1,0.5,0.1,0.7l-5.4,5.3l-4.6,0c-0.4-0.7-1.1-1.2-1.9-1.2
	c-1.2,0-2.2,1-2.2,2.2s1,2.2,2.2,2.2c0.9,0,1.6-0.5,2-1.2h5l6.1-5.9c0.3,0.1,0.6,0.2,0.9,0.2c1.2,0,2.2-1,2.2-2.2
	S277.7,15.3,276.5,15.3z"/>
<path class="st0" d="M297.5,1.3c-0.8,0-1.6,0.5-1.9,1.2H283l-6.9,7.1l-20.2,0l-7-7.1H234l-7.5,7.6v7l-6.5,6.5l-11.5-0.1
	c-0.4-0.7-1.1-1.2-1.9-1.2c-1.2,0-2.2,1-2.2,2.2s1,2.2,2.2,2.2c0.9,0,1.6-0.5,2-1.3h12.4l7.6-7.6v-6.9l6.4-6.6h13.2l6.9,7.1h21.8
	l7.1-7.1h11.5c0.3,0.8,1.1,1.3,2,1.3c1.2,0,2.2-1,2.2-2.2S298.7,1.3,297.5,1.3z"/>
<path class="st0" d="M283.5,15.3c-1.2,0-2.2,1-2.2,2.2c0,0.3,0.1,0.5,0.1,0.7l-4.3,4.2c-0.2-0.1-0.4-0.1-0.7-0.1
	c-1.2,0-2.2,1-2.2,2.2s1,2.2,2.2,2.2s2.2-1,2.2-2.2c0-0.2,0-0.5-0.1-0.7l4.3-4.2c0.2,0.1,0.4,0.1,0.7,0.1c1.2,0,2.2-1,2.2-2.2
	S284.7,15.3,283.5,15.3z"/>
<path class="st0" d="M276.5,36.3c-0.9,0-1.6,0.5-2,1.3h-4.6l-13.4-13.4l0-7.1l-7.6-7.6h-7.9l-5.9,5.9c-0.2-0.1-0.4-0.1-0.6-0.1
	c-1.2,0-2.2,1-2.2,2.2s1,2.2,2.2,2.2c1.2,0,2.2-1,2.2-2.2c0-0.3-0.1-0.5-0.1-0.7l5.3-5.2h6.2l6.4,6.3v7l14.6,14.8h5.5
	c0.4,0.7,1.1,1.2,1.9,1.2c1.2,0,2.2-1,2.2-2.2S277.7,36.3,276.5,36.3z"/>
<path class="st0" d="M304.5,8.3c-0.8,0-1.6,0.5-1.9,1.2h-5.5l-14.5,14.7V38l-6.4,6.5H270l-21.1-21.1H241l-7,7.1h-4.5
	c-0.3-0.8-1.1-1.3-2-1.3c-1.2,0-2.2,1-2.2,2.2s1,2.2,2.2,2.2c0.9,0,1.6-0.5,2-1.2h5.5l6.8-7h6.3l21.1,20.9h7.9l7.5-7.6V24.9
	l13.4-13.3h4.7c0.4,0.7,1.1,1.1,1.9,1.1c1.2,0,2.2-1,2.2-2.2S305.7,8.3,304.5,8.3z"/>
<path class="st0" d="M313.7,3.5c0-1.2-1-2.2-2.2-2.2c-1.2,0-2.2,1-2.2,2.2c0,0.9,0.5,1.6,1.2,2v18.6l-5.4,5.3
	c-0.2-0.1-0.4-0.1-0.6-0.1c-1.2,0-2.2,1-2.2,2.2s1,2.2,2.2,2.2s2.2-1,2.2-2.2c0-0.3-0.1-0.5-0.1-0.8l5.9-5.8V5.5
	C313.2,5.1,313.7,4.4,313.7,3.5z"/>
<path class="st0" d="M304.5,22.3c-0.8,0-1.6,0.5-1.9,1.2h-10.1c-0.4-0.7-1.1-1.2-1.9-1.2c-1.2,0-2.2,1-2.2,2.2s1,2.2,2.2,2.2
	c0.9,0,1.6-0.5,2-1.3h10c0.4,0.7,1.1,1.3,2,1.3c1.2,0,2.2-1,2.2-2.2S305.7,22.3,304.5,22.3z"/>
<path class="st0" d="M346.5,36.3c-0.9,0-1.6,0.5-2,1.2h-4.7l-6.3-6.4V17.9l5.3-5.3c0.2,0.1,0.5,0.1,0.7,0.1c1.2,0,2.2-1,2.2-2.2
	s-1-2.2-2.2-2.2c-1.2,0-2.2,1-2.2,2.2c0,0.2,0,0.4,0.1,0.6l-5.9,5.9v15l7.6,7.5h5.5c0.4,0.7,1.1,1.2,2,1.2c1.2,0,2.2-1,2.2-2.2
	S347.7,36.3,346.5,36.3z"/>
<path class="st0" d="M347.4,15.5V10l-7.4-7.5H325l-7.6,7.5v21.9l21.1,20.9v4.7c-0.7,0.4-1.2,1.1-1.2,1.9c0,1.2,1,2.2,2.2,2.2
	s2.2-1,2.2-2.2c0-0.9-0.5-1.6-1.2-2v-5.4l-21-20.9l0.1-20.2l6.4-6.4h13.2l6.3,6.5l0.1,4.4c-0.8,0.3-1.3,1.1-1.3,2
	c0,1.2,1,2.2,2.2,2.2s2.2-1,2.2-2.2C348.7,16.6,348.2,15.9,347.4,15.5z"/>
<path class="st0" d="M326.6,31.2v-4.8c0.7-0.4,1.1-1.1,1.1-1.9c0-1.2-1-2.2-2.2-2.2c-1.2,0-2.2,1-2.2,2.2c0,0.9,0.5,1.6,1.2,2
	l-0.1,5L345.4,53v6.5l-6.3,6h-42l-7.1,7h-4.6c-0.4-0.7-1.1-1.2-1.9-1.2c-1.2,0-2.2,1-2.2,2.2c0,1.2,1,2.2,2.2,2.2
	c0.9,0,1.6-0.5,2-1.2h5.4l7.1-7h42.2l7.4-7.5v-7.9L326.6,31.2z"/>
<path class="st0" d="M333.5,57.6v-5.1l-6-6.2c0.1-0.2,0.1-0.5,0.1-0.8c0-1.2-1-2.2-2.2-2.2c-1.2,0-2.2,1-2.2,2.2s1,2.2,2.2,2.2
	c0.2,0,0.4,0,0.6-0.1l5.4,5.3v4.7c-0.7,0.4-1.2,1.1-1.2,1.9c0,1.2,1,2.2,2.2,2.2s2.2-1,2.2-2.2C334.7,58.7,334.2,57.9,333.5,57.6z"
	/>
<path class="st0" d="M325.5,57.3c-0.9,0-1.6,0.5-2,1.2h-4.7l-5.2-5.4c0.1-0.2,0.1-0.4,0.1-0.7c0-1.2-1-2.2-2.2-2.2
	c-1.2,0-2.2,1-2.2,2.2s1,2.2,2.2,2.2c0.2,0,0.5,0,0.7-0.1l5.9,5.8h5.4c0.3,0.8,1.1,1.3,2,1.3c1.2,0,2.2-1,2.2-2.2
	S326.7,57.3,325.5,57.3z"/>
<path class="st0" d="M311.5,36.3c-1.2,0-2.2,1-2.2,2.2c0,0.3,0.1,0.5,0.1,0.7l-4.2,4.2c-0.2-0.1-0.5-0.1-0.8-0.1
	c-1.2,0-2.2,1-2.2,2.2s1,2.2,2.2,2.2s2.2-1,2.2-2.2c0-0.3-0.1-0.5-0.1-0.8l4.2-4.2c0.2,0.1,0.5,0.2,0.8,0.2c1.2,0,2.2-1,2.2-2.2
	S312.7,36.3,311.5,36.3z"/>
<path class="st0" d="M311.5,29.3c-1.2,0-2.2,1-2.2,2.2c0,0.3,0.1,0.5,0.1,0.7l-12.4,12.3h-6.9l-7.1,7h-13.2l-14-14l-28,0.1l-6.6-7
	h-5.8c-0.3-0.8-1.1-1.3-2-1.3c-1.2,0-2.2,1-2.2,2.2s1,2.2,2.2,2.2c0.9,0,1.6-0.5,2-1.2l4.6,0l7,7l28,0l14,14h14.8l7-7.1h6.9
	l12.9-12.9c0.2,0.1,0.5,0.1,0.7,0.1c1.2,0,2.2-1,2.2-2.2S312.7,29.3,311.5,29.3z"/>
<path class="st0" d="M318.5,36.3c-1.2,0-2.2,1-2.2,2.2c0,0.2,0.1,0.5,0.1,0.7L304,51.5l-14,0l-7.6,7.6v5.5c-0.7,0.4-1.1,1.1-1.1,1.9
	c0,1.2,1,2.2,2.2,2.2s2.2-1,2.2-2.2c0-0.9-0.5-1.6-1.2-2v-4.6l6.5-6.3h14l12.9-12.9c0.2,0.1,0.4,0.1,0.7,0.1c1.2,0,2.2-1,2.2-2.2
	S319.7,36.3,318.5,36.3z"/>
<path class="st0" d="M263.5,64.5v-5.4l-5.9-6c0.1-0.2,0.1-0.4,0.1-0.7c0-1.2-1-2.2-2.2-2.2c-1.2,0-2.2,1-2.2,2.2s1,2.2,2.2,2.2
	c0.3,0,0.5-0.1,0.8-0.1l5.3,5.3l0,4.7c-0.7,0.4-1.2,1.1-1.2,2c0,1.2,1,2.2,2.2,2.2s2.2-1,2.2-2.2C264.7,65.6,264.2,64.9,263.5,64.5z
	"/>
<path class="st0" d="M250.6,53.1c0.1-0.2,0.1-0.4,0.1-0.6c0-1.2-1-2.2-2.2-2.2c-1.2,0-2.2,1-2.2,2.2s1,2.2,2.2,2.2
	c0.3,0,0.5-0.1,0.7-0.1l5.3,5.3l0,6.2l-6.5,6.4l-4.5,0c-0.4-0.7-1.1-1.2-2-1.2c-1.2,0-2.2,1-2.2,2.2c0,1.2,1,2.2,2.2,2.2
	c0.8,0,1.6-0.5,1.9-1.2h5.4l7.6-7.6v-7.7L250.6,53.1z"/>
<path class="st0" d="M256,44.5h-7.8l-7,7l-4.7,0.1c-0.4-0.7-1.1-1.2-2-1.2c-1.2,0-2.2,1-2.2,2.2s1,2.2,2.2,2.2
	c0.8,0,1.6-0.5,1.9-1.2h5.5l7-7.1h6.2l13.4,13.5v6.2l-6.5,6.3h-6.9l-19.9,19.9c-0.2-0.1-0.5-0.1-0.7-0.1c-1.2,0-2.2,1-2.2,2.2
	c0,1.2,1,2.2,2.2,2.2c1.2,0,2.2-1,2.2-2.2c0-0.2-0.1-0.5-0.1-0.7L256,74.5h7l7.5-7.6V59L256,44.5z"/>
<path class="st0" d="M227.5,78.3c-1.2,0-2.2,1-2.2,2.2c0,0.2,0,0.4,0.1,0.6l-4.2,4.3c-0.2-0.1-0.4-0.1-0.7-0.1c-1.2,0-2.2,1-2.2,2.2
	c0,1.2,1,2.2,2.2,2.2c1.2,0,2.2-1,2.2-2.2c0-0.3-0.1-0.5-0.1-0.7l4.3-4.1c0.2,0.1,0.4,0.1,0.6,0.1c1.2,0,2.2-1,2.2-2.2
	C229.7,79.3,228.7,78.3,227.5,78.3z"/>
<path class="st0" d="M241.5,78.3c-1.2,0-2.2,1-2.2,2.2c0,0.2,0,0.4,0.1,0.6l-4.2,4.3c-0.2-0.1-0.4-0.1-0.7-0.1c-1.2,0-2.2,1-2.2,2.2
	c0,1.2,1,2.2,2.2,2.2c1.2,0,2.2-1,2.2-2.2c0-0.3-0.1-0.5-0.1-0.7l4.3-4.1c0.2,0.1,0.4,0.1,0.6,0.1c1.2,0,2.2-1,2.2-2.2
	C243.7,79.3,242.7,78.3,241.5,78.3z"/>
<path class="st0" d="M248.5,85.3c-1.2,0-2.2,1-2.2,2.2c0,0.2,0,0.4,0.1,0.6l-4.2,4.3c-0.2-0.1-0.4-0.1-0.7-0.1c-1.2,0-2.2,1-2.2,2.2
	c0,1.2,1,2.2,2.2,2.2c1.2,0,2.2-1,2.2-2.2c0-0.3-0.1-0.5-0.1-0.7l4.3-4.1c0.2,0.1,0.4,0.1,0.6,0.1c1.2,0,2.2-1,2.2-2.2
	C250.7,86.3,249.7,85.3,248.5,85.3z"/>
<path class="st0" d="M227.5,64.3c-0.9,0-1.6,0.5-2,1.2h-4.6l-5.3-5.3c0.1-0.2,0.1-0.5,0.1-0.7c0-1.2-1-2.2-2.2-2.2
	c-1.2,0-2.2,1-2.2,2.2s1,2.2,2.2,2.2c0.2,0,0.5,0,0.7-0.1l5.9,5.9h5.5c0.4,0.7,1.1,1.2,2,1.2c1.2,0,2.2-1,2.2-2.2
	C229.7,65.3,228.7,64.3,227.5,64.3z"/>
<path class="st0" d="M235.5,78.6V66l-7-7V45l-7.6-7.5H171l-5.9,5.9c-0.2-0.1-0.4-0.1-0.7-0.1c-1.2,0-2.2,1-2.2,2.2s1,2.2,2.2,2.2
	c1.2,0,2.2-1,2.2-2.2c0-0.2,0-0.4-0.1-0.7l5.4-5.5h48.1l6.5,6.6v13.9l7,7.2v11.5c-0.7,0.4-1.3,1.1-1.3,2c0,1.2,1,2.2,2.2,2.2
	c1.2,0,2.2-1,2.2-2.2C236.7,79.7,236.2,78.9,235.5,78.6z"/>
<path class="st0" d="M234.5,106.3c-0.9,0-1.6,0.5-2,1.2h-4.6l-6.3-6.6l-0.1-7l-7-7V66.1l-7.1-7.1l0.1-11.6c0.7-0.4,1.2-1.1,1.2-1.9
	c0-1.2-1-2.2-2.2-2.2c-1.2,0-2.2,1-2.2,2.2c0,0.9,0.5,1.6,1.3,2v12.6l7.1,6.8v21l6.8,7.1v6.5l8,8.1h5.1c0.4,0.7,1.1,1.1,1.9,1.1
	c1.2,0,2.2-1,2.2-2.2C236.7,107.3,235.7,106.3,234.5,106.3z"/>
<path class="st0" d="M241.5,99.3c-0.9,0-1.6,0.5-2,1.2h-10.1c-0.4-0.7-1.1-1.2-2-1.2c-1.2,0-2.2,1-2.2,2.2c0,1.2,1,2.2,2.2,2.2
	c0.9,0,1.6-0.5,2-1.3h10c0.4,0.7,1.1,1.3,2,1.3c1.2,0,2.2-1,2.2-2.2C243.7,100.3,242.7,99.3,241.5,99.3z"/>
<path class="st0" d="M213.5,92.3c-0.9,0-1.6,0.5-2,1.2H206L184.6,115l-0.1,7.1l-5.3,5.4c-0.2-0.1-0.5-0.1-0.7-0.1
	c-1.2,0-2.2,1-2.2,2.2c0,1.2,1,2.2,2.2,2.2c1.2,0,2.2-1,2.2-2.2c0-0.3-0.1-0.6-0.2-0.8l6-5.7v-7.1l20.3-20.3h4.7
	c0.4,0.7,1.1,1.2,1.9,1.2c1.2,0,2.2-1,2.2-2.2C215.7,93.3,214.7,92.3,213.5,92.3z"/>
<path class="st0" d="M221.4,115l0.1-6.9l-7.6-7.6H206l-7.5,7.5v12.5c-0.7,0.4-1.2,1.1-1.2,1.9c0,1.2,1,2.2,2.2,2.2
	c1.2,0,2.2-1,2.2-2.2c0-0.8-0.5-1.6-1.2-1.9v-11.7l6.4-6.4h6.2l6.5,6.4v7.1l6.8,6.8v6.4l-6.4,6.3h-11.6c-0.4-0.7-1.1-1.2-1.9-1.2
	c-1.2,0-2.2,1-2.2,2.2c0,1.2,1,2.2,2.2,2.2c0.9,0,1.7-0.6,2-1.4H221l7.5-7.4v-8L221.4,115z"/>
<path class="st0" d="M257.7,80.5c0-1.2-1-2.2-2.2-2.2c-1.2,0-2.2,1-2.2,2.2c0,0.9,0.5,1.6,1.2,2l-0.1,4.7l-6.9,6.9l0,6.9l-7.1,7.1
	v5.5c-0.7,0.4-1.2,1.1-1.2,1.9c0,1.2,1,2.2,2.2,2.2c1.2,0,2.2-1,2.2-2.2c0-0.9-0.6-1.7-1.4-2v-4.6l7.1-6.9v-7l7.1-6.8v-5.7
	C257.2,82.1,257.7,81.3,257.7,80.5z"/>
<path class="st0" d="M269.5,113.3c-1.2,0-2.2,1-2.2,2.2c0,0.2,0,0.4,0.1,0.6l-4.2,4.4c-0.2-0.1-0.4-0.1-0.7-0.1
	c-1.2,0-2.2,1-2.2,2.2c0,1.2,1,2.2,2.2,2.2s2.2-1,2.2-2.2c0-0.3-0.1-0.6-0.2-0.8l4.2-4.1c0.2,0.1,0.5,0.1,0.8,0.1
	c1.2,0,2.2-1,2.2-2.2C271.7,114.3,270.7,113.3,269.5,113.3z"/>
<path class="st0" d="M267.3,95.9"/>
<path class="st0" d="M269.5,71.3c-1.2,0-2.2,1-2.2,2.2c0,0.3,0.1,0.5,0.1,0.7l-6,5.9V87l-7,7v5.5c-0.7,0.4-1.2,1.1-1.2,1.9
	c0,1.2,1,2.2,2.2,2.2c1.2,0,2.2-1,2.2-2.2c0-0.8-0.5-1.6-1.2-1.9v-4.6l7-7.1V81l5.3-5.4c0.2,0.1,0.5,0.1,0.7,0.1
	c1.2,0,2.2-1,2.2-2.2C271.7,72.3,270.7,71.3,269.5,71.3z"/>
<path class="st0" d="M264.7,94.5c0-1.2-1-2.2-2.2-2.2c-1.2,0-2.2,1-2.2,2.2c0,0.8,0.5,1.6,1.2,1.9l0.1,4.6l-7.1,7.1l0.1,6.8
	l-6.4,6.5l-6.1,0l-7.1-7h-5.4c-0.4-0.7-1.1-1.2-2-1.2c-1.2,0-2.2,1-2.2,2.2c0,1.2,1,2.2,2.2,2.2c0.9,0,1.7-0.5,2-1.3h4.6l7,7.1h7.9
	l7.6-7.6v-7.1l7-7.1v-5.4C264.2,96,264.7,95.3,264.7,94.5z"/>
<path class="st0" d="M271.6,109.2c0.1-0.2,0.1-0.5,0.1-0.7c0-1.2-1-2.2-2.2-2.2c-1.2,0-2.2,1-2.2,2.2c0,1.2,1,2.2,2.2,2.2
	c0.2,0,0.5,0,0.7-0.1l5.3,5.3v6.3l-6.4,6.4l-4.6,0c-0.4-0.7-1.1-1.2-2-1.2c-1.2,0-2.2,1-2.2,2.2c0,1.2,1,2.2,2.2,2.2
	c0.9,0,1.6-0.5,2-1.2h5.5l7.5-7.5v-7.8L271.6,109.2z"/>
<path class="st0" d="M291.4,113.5v-10c0.8-0.3,1.3-1.1,1.3-2c0-1.2-1-2.2-2.2-2.2c-1.2,0-2.2,1-2.2,2.2c0,0.9,0.5,1.6,1.3,2v10
	c-0.7,0.4-1.3,1.1-1.3,2c0,1.2,1,2.2,2.2,2.2s2.2-1,2.2-2.2C292.7,114.6,292.2,113.9,291.4,113.5z"/>
<path class="st0" d="M276.5,148.3c-0.9,0-1.6,0.5-2,1.2l-4.6,0l-6.5-6.4l0-7l-7-7v-6.2l7-7l-0.1-7l7.1-7l0-21l7-7.1V61.4
	c0.7-0.4,1.2-1.1,1.2-1.9c0-1.2-1-2.2-2.2-2.2c-1.2,0-2.2,1-2.2,2.2c0,0.8,0.5,1.6,1.2,1.9v11.7l-7,6.9V101l-7,7.2v7l-7,7v8l6.9,6.7
	v7l7.6,7.7h5.5c0.4,0.7,1.1,1.2,1.9,1.2c1.2,0,2.2-1,2.2-2.2C278.7,149.3,277.7,148.3,276.5,148.3z"/>
<path class="st0" d="M255.5,134.3c-1.2,0-2.2,1-2.2,2.2c0,0.2,0,0.4,0.1,0.6l-5.3,5.4l-4.7,0c-0.4-0.7-1.1-1.2-1.9-1.2
	c-1.2,0-2.2,1-2.2,2.2c0,1.2,1,2.2,2.2,2.2c0.9,0,1.6-0.5,2-1.3h5.5l5.9-5.9c0.2,0.1,0.4,0.1,0.7,0.1c1.2,0,2.2-1,2.2-2.2
	C257.7,135.3,256.7,134.3,255.5,134.3z"/>
<path class="st0" d="M283.5,127.3c-0.9,0-1.6,0.5-2,1.3h-5.4l-7.6,7.5v5.5c-0.7,0.4-1.1,1.1-1.1,1.9c0,1.2,1,2.2,2.2,2.2
	s2.2-1,2.2-2.2c0-0.9-0.5-1.6-1.3-2V137l6.5-6.5h4.6c0.4,0.7,1.1,1.2,2,1.2c1.2,0,2.2-1,2.2-2.2
	C285.7,128.3,284.7,127.3,283.5,127.3z"/>
<path class="st0" d="M298.5,92.6V82.4c0.7-0.4,1.2-1.1,1.2-1.9c0-1.2-1-2.2-2.2-2.2c-1.2,0-2.2,1-2.2,2.2c0,0.9,0.5,1.6,1.3,2v10
	c-0.7,0.4-1.3,1.1-1.3,2c0,1.2,1,2.2,2.2,2.2s2.2-1,2.2-2.2C299.7,93.7,299.2,92.9,298.5,92.6z"/>
<path class="st0" d="M312.6,99.6V94l-7-7l0-4.6c0.7-0.4,1.2-1.1,1.2-1.9c0-1.2-1-2.2-2.2-2.2c-1.2,0-2.2,1-2.2,2.2
	c0,0.9,0.5,1.6,1.3,2v5.4l6.9,7.1v4.6c-0.7,0.4-1.2,1.1-1.2,2c0,1.2,1,2.2,2.2,2.2s2.2-1,2.2-2.2C313.7,100.7,313.2,100,312.6,99.6z
	"/>
<path class="st0" d="M319.4,99.5v-5.4l-5.8-5.9c0.1-0.2,0.1-0.4,0.1-0.7c0-1.2-1-2.2-2.2-2.2c-1.2,0-2.2,1-2.2,2.2
	c0,1.2,1,2.2,2.2,2.2c0.2,0,0.5,0,0.7-0.1l5.3,5.3v4.6c-0.7,0.4-1.2,1.1-1.2,1.9c0,1.2,1,2.2,2.2,2.2s2.2-1,2.2-2.2
	C320.7,100.6,320.2,99.9,319.4,99.5z"/>
<path class="st0" d="M325.5,99.3c-1.2,0-2.2,1-2.2,2.2c0,0.2,0,0.5,0.1,0.7l-5.3,5.4l-11.6,0c-0.4-0.7-1.1-1.2-1.9-1.2
	c-1.2,0-2.2,1-2.2,2.2c0,1.2,1,2.2,2.2,2.2c0.9,0,1.6-0.5,2-1.3h12.4l5.9-5.9c0.2,0.1,0.5,0.1,0.7,0.1c1.2,0,2.2-1,2.2-2.2
	C327.7,100.3,326.7,99.3,325.5,99.3z"/>
<path class="st0" d="M325.5,106.3c-1.2,0-2.2,1-2.2,2.2c0,0.2,0,0.5,0.1,0.7l-5.9,5.9v5.4c-0.7,0.4-1.2,1.1-1.2,2
	c0,1.2,1,2.2,2.2,2.2s2.2-1,2.2-2.2c0-0.9-0.5-1.6-1.3-2v-4.6l5.4-5.3c0.2,0.1,0.4,0.1,0.7,0.1c1.2,0,2.2-1,2.2-2.2
	C327.7,107.3,326.7,106.3,325.5,106.3z"/>
<path class="st0" d="M334.7,108.5c0-1.2-1-2.2-2.2-2.2c-1.2,0-2.2,1-2.2,2.2c0,0.9,0.5,1.6,1.2,2v4.5l-5.3,5.4
	c-0.2-0.1-0.4-0.1-0.7-0.1c-1.2,0-2.2,1-2.2,2.2c0,1.2,1,2.2,2.2,2.2s2.2-1,2.2-2.2c0-0.2,0-0.5-0.1-0.7l5.9-5.9v-5.4
	C334.2,110.1,334.7,109.4,334.7,108.5z"/>
<path class="st0" d="M318.5,127.3c-0.3,0-0.5,0.1-0.7,0.1l-19.3-19.3v-7l-7.7-7.6h-5.4c-0.4-0.7-1.1-1.1-1.9-1.1
	c-1.2,0-2.2,1-2.2,2.2c0,1.2,1,2.2,2.2,2.2c0.9,0,1.6-0.5,2-1.2h4.6l6.5,6.5v6.9l19.9,19.9c-0.1,0.2-0.1,0.5-0.1,0.8
	c0,1.2,1,2.2,2.2,2.2s2.2-1,2.2-2.2C320.7,128.3,319.7,127.3,318.5,127.3z"/>
<path class="st0" d="M312.4,134.5v-5.4l-12.9-12.8c0.1-0.2,0.1-0.5,0.1-0.8c0-1.2-1-2.2-2.2-2.2c-1.2,0-2.2,1-2.2,2.2
	c0,1.2,1,2.2,2.2,2.2c0.3,0,0.6-0.1,0.8-0.2l12.2,12.5l0,4.5c-0.7,0.4-1.2,1.1-1.2,2c0,1.2,1,2.2,2.2,2.2s2.2-1,2.2-2.2
	C313.7,135.6,313.2,134.9,312.4,134.5z"/>
<path class="st0" d="M318.5,85.3c-0.3,0-0.6,0.1-0.9,0.2l-12.8-12.9h-7.8l-7,7l-7-0.1l-7.5,7.6v7.8l6.9,6.9V123l7.1,6.9l0,11.7
	c-0.7,0.4-1.2,1.1-1.2,2c0,1.2,1,2.2,2.2,2.2s2.2-1,2.2-2.2c0-0.9-0.5-1.6-1.3-2l0-12.5l-7-7l0-20.9l-7-7.2v-6.1l6.5-6.5l6.9,0.1
	l7-7.1l6.1,0l12.4,12.3c-0.1,0.2-0.1,0.5-0.1,0.7c0,1.2,1,2.2,2.2,2.2s2.2-1,2.2-2.2C320.7,86.3,319.7,85.3,318.5,85.3z"/>
<path class="st0" d="M347.4,92.5v-10c0.7-0.4,1.3-1.1,1.3-2c0-1.2-1-2.2-2.2-2.2c-1.2,0-2.2,1-2.2,2.2c0,0.9,0.5,1.6,1.2,2v10.1
	c-0.7,0.4-1.2,1.1-1.2,2c0,1.2,1,2.2,2.2,2.2s2.2-1,2.2-2.2C348.7,93.6,348.2,92.9,347.4,92.5z"/>
<path class="st0" d="M346.5,99.3c-0.9,0-1.6,0.5-1.9,1.2h-4.8l-6.3-6.4v-6.2l14-14v-5.4c0.7-0.4,1.3-1.1,1.3-2c0-1.2-1-2.2-2.2-2.2
	c-1.2,0-2.2,1-2.2,2.2c0,0.9,0.5,1.6,1.2,2l0,4.6l-14,14V95l7.6,7.4h5.4c0.3,0.8,1.1,1.3,2,1.3c1.2,0,2.2-1,2.2-2.2
	C348.7,100.3,347.7,99.3,346.5,99.3z"/>
<path class="st0" d="M338.7,75.5c0.3,0.1,0.5,0.2,0.8,0.2c1.2,0,2.2-1,2.2-2.2c0-1.2-1-2.2-2.2-2.2c-1.2,0-2.2,1-2.2,2.2
	c0,0.2,0,0.4,0.1,0.6l-12.9,13l0,7.8l14,13.9v6.3l-27.9,28.1v7.8l7.5,7.5h12.5c0.4,0.7,1.1,1.3,2,1.3c1.2,0,2.2-1,2.2-2.2
	c0-1.2-1-2.2-2.2-2.2c-0.9,0-1.6,0.5-2,1.2h-11.6l-6.4-6.4v-6.3l27.9-28.1v-7.7l-13.9-14v-6.2L338.7,75.5z"/>
<path class="st0" d="M347.5,141.6v-17.1c0.7-0.4,1.2-1.1,1.2-1.9c0-1.2-1-2.2-2.2-2.2c-1.2,0-2.2,1-2.2,2.2c0,0.8,0.5,1.6,1.2,1.9
	v17.1c-0.7,0.4-1.2,1.1-1.2,1.9c0,1.2,1,2.2,2.2,2.2s2.2-1,2.2-2.2C348.7,142.7,348.2,141.9,347.5,141.6z"/>
<path class="st0" d="M340.5,162.5v-5.3l-6.9-7.1v-18.6c0.7-0.4,1.2-1.1,1.2-1.9c0-1.2-1-2.2-2.2-2.2c-1.2,0-2.2,1-2.2,2.2
	c0,0.8,0.4,1.5,1.1,1.9V151l7.1,7.1l0.1,4.5c-0.8,0.3-1.3,1.1-1.3,2c0,1.2,1,2.2,2.2,2.2s2.2-1,2.2-2.2
	C341.7,163.6,341.2,162.9,340.5,162.5z"/>
<path class="st0" d="M347.4,169.5V157l-6.9-7.1v-27.2l5.3-5.2c0.2,0.1,0.5,0.1,0.7,0.1c1.2,0,2.2-1,2.2-2.2c0-1.2-1-2.2-2.2-2.2
	c-1.2,0-2.2,1-2.2,2.2c0,0.3,0.1,0.5,0.1,0.7l-6.1,5.8v28.9l7.2,6.9l0.1,11.7c-0.8,0.3-1.3,1.1-1.3,2c0,1.2,1,2.2,2.2,2.2
	s2.2-1,2.2-2.2C348.7,170.6,348.2,169.8,347.4,169.5z"/>
<path class="st0" d="M318.5,162.3c-0.2,0-0.4,0-0.6,0.1L305.4,150l0.1-21l-7.6-7.5h-5.4c-0.4-0.7-1.1-1.2-2-1.2
	c-1.2,0-2.2,1-2.2,2.2c0,1.2,1,2.2,2.2,2.2c0.8,0,1.6-0.5,1.9-1.2h4.7l6.3,6.3V151l12.9,12.8c-0.1,0.2-0.1,0.4-0.1,0.6
	c0,1.2,1,2.2,2.2,2.2s2.2-1,2.2-2.2C320.7,163.3,319.7,162.3,318.5,162.3z"/>
<path class="st0" d="M304.5,162.3c-0.9,0-1.6,0.5-2,1.3h-5.4l-5.8,5.9c-0.2-0.1-0.5-0.1-0.7-0.1c-1.2,0-2.2,1-2.2,2.2
	c0,1.2,1,2.2,2.2,2.2s2.2-1,2.2-2.2c0-0.2,0-0.5-0.1-0.7l5.3-5.3h4.7c0.4,0.7,1.1,1.2,1.9,1.2c1.2,0,2.2-1,2.2-2.2
	C306.7,163.3,305.7,162.3,304.5,162.3z"/>
<path class="st0" d="M304.9,156.5H297l-6.9,7l-7,0l-5.9,5.9c-0.2-0.1-0.5-0.1-0.7-0.1c-1.2,0-2.2,1-2.2,2.2c0,1.2,1,2.2,2.2,2.2
	s2.2-1,2.2-2.2c0-0.3-0.1-0.5-0.1-0.7l5.4-5.3h7l6.9-7h6.3l6.4,6.4v6.1l-6.4,6.4h-27.2l-5.3-5.4c0.1-0.2,0.1-0.4,0.1-0.7
	c0-1.2-1-2.2-2.2-2.2c-1.2,0-2.2,1-2.2,2.2c0,1.2,1,2.2,2.2,2.2c0.2,0,0.4,0,0.6-0.1l5.9,5.9H305l7.5-7.6v-7.8L304.9,156.5z"/>
<path class="st0" d="M332.5,176.3c-1.2,0-2.2,1-2.2,2.2c0,0.2,0.1,0.5,0.1,0.7l-5.9,5.9v5.4c-0.7,0.4-1.2,1.1-1.2,1.9
	c0,1.2,1,2.2,2.2,2.2s2.2-1,2.2-2.2c0-0.8-0.5-1.6-1.2-1.9v-4.8l5.2-5.2c0.2,0.1,0.5,0.2,0.8,0.2c1.2,0,2.2-1,2.2-2.2
	C334.7,177.3,333.7,176.3,332.5,176.3z"/>
<path class="st0" d="M340.4,183.5v-5.4l-5.9-5.8c0.1-0.3,0.2-0.5,0.2-0.8c0-1.2-1-2.2-2.2-2.2c-1.2,0-2.2,1-2.2,2.2
	c0,1.2,1,2.2,2.2,2.2c0.2,0,0.5,0,0.7-0.1l5.4,5.3v4.6c-0.8,0.3-1.3,1.1-1.3,2c0,1.2,1,2.2,2.2,2.2s2.2-1,2.2-2.2
	C341.7,184.6,341.2,183.9,340.4,183.5z"/>
<path class="st0" d="M332.9,163.5H325l-7.5,7.6l0,6.8l-6.4,6.5l-4.7,0c-0.4-0.7-1.1-1.2-2-1.2c-1.2,0-2.2,1-2.2,2.2
	c0,1.2,1,2.2,2.2,2.2c0.9,0,1.7-0.5,2-1.3h5.3l7.7-7.4v-7.1l6.4-6.4h6.2l13.4,13.4v6.3l-6.5,6.4h-7l-7,6.9h-6.2l-7-7.1l-5.4,0.1
	c-0.4-0.7-1.1-1.2-2-1.2c-1.2,0-2.2,1-2.2,2.2c0,1.2,1,2.2,2.2,2.2c0.9,0,1.7-0.6,2-1.4l4.6,0.1l6.9,7h7.8l7-7l7,0.1l7.6-7.7V178
	L332.9,163.5z"/>
<path class="st0" d="M346.5,190.3c-1.2,0-2.2,1-2.2,2.2c0,0.2,0,0.4,0.1,0.7l-4.2,4.3c-0.2-0.1-0.5-0.1-0.7-0.1
	c-1.2,0-2.2,1-2.2,2.2c0,1.2,1,2.2,2.2,2.2s2.2-1,2.2-2.2c0-0.2,0-0.4-0.1-0.6l4.1-4.3c0.2,0.1,0.5,0.2,0.8,0.2c1.2,0,2.2-1,2.2-2.2
	C348.7,191.3,347.7,190.3,346.5,190.3z"/>
<path class="st0" d="M339.5,204.3c-0.3,0-0.5,0.1-0.7,0.1l-4.2-4.2c0.1-0.2,0.1-0.5,0.1-0.7c0-1.2-1-2.2-2.2-2.2
	c-1.2,0-2.2,1-2.2,2.2c0,1.2,1,2.2,2.2,2.2c0.3,0,0.5-0.1,0.7-0.1l4.2,4.2c-0.1,0.2-0.1,0.5-0.1,0.7c0,1.2,1,2.2,2.2,2.2
	s2.2-1,2.2-2.2C341.7,205.3,340.7,204.3,339.5,204.3z"/>
<path class="st0" d="M327.7,206.5c0-1.2-1-2.2-2.2-2.2c-1.2,0-2.2,1-2.2,2.2c0,0.9,0.5,1.6,1.2,2V220l-12.4,12.4
	c-0.2-0.1-0.4-0.1-0.6-0.1c-1.2,0-2.2,1-2.2,2.2c0,1.2,1,2.2,2.2,2.2s2.2-1,2.2-2.2c0-0.3-0.1-0.5-0.1-0.8l12.8-12.6v-12.6
	C327.2,208.2,327.7,207.4,327.7,206.5z"/>
<path class="st0" d="M346.5,211.3c-0.9,0-1.6,0.5-1.9,1.2h-5.4l-20,19.9c-0.2-0.1-0.4-0.1-0.7-0.1c-1.2,0-2.2,1-2.2,2.2
	c0,1.2,1,2.2,2.2,2.2s2.2-1,2.2-2.2c0-0.2,0-0.5-0.1-0.7l19.3-19.3h4.7c0.4,0.7,1.1,1.2,1.9,1.2c1.2,0,2.2-1,2.2-2.2
	C348.7,212.3,347.7,211.3,346.5,211.3z"/>
<path class="st0" d="M312.5,225.6v-24.1c0.7-0.4,1.2-1.1,1.2-1.9c0-1.2-1-2.2-2.2-2.2c-1.2,0-2.2,1-2.2,2.2c0,0.9,0.5,1.6,1.3,2v24
	c-0.7,0.4-1.3,1.1-1.3,2c0,1.2,1,2.2,2.2,2.2s2.2-1,2.2-2.2C313.7,226.6,313.2,225.9,312.5,225.6z"/>
<path class="st0" d="M290.5,211.3c-0.9,0-1.6,0.5-2,1.2h-10.1c-0.4-0.7-1.1-1.2-2-1.2c-1.2,0-2.2,1-2.2,2.2c0,1.2,1,2.2,2.2,2.2
	c0.9,0,1.6-0.5,2-1.2l10-0.2c0.3,0.8,1.1,1.4,2,1.4c1.2,0,2.2-1,2.2-2.2C292.7,212.3,291.7,211.3,290.5,211.3z"/>
<path class="st0" d="M304.5,211.3c-0.8,0-1.5,0.5-1.9,1.2l-4.7,0l-7-7h-5.4c-0.4-0.7-1.1-1.2-2-1.2c-1.2,0-2.2,1-2.2,2.2
	c0,1.2,1,2.2,2.2,2.2c0.9,0,1.7-0.5,2-1.3h4.7l6.9,7.1h5.5c0.4,0.7,1.1,1.2,1.9,1.2c1.2,0,2.2-1,2.2-2.2
	C306.7,212.3,305.7,211.3,304.5,211.3z"/>
<path class="st0" d="M304.5,218.3c-0.8,0-1.6,0.5-1.9,1.2h-12.5l-5.9,5.9c-0.2-0.1-0.4-0.1-0.7-0.1c-1.2,0-2.2,1-2.2,2.2
	c0,1.2,1,2.2,2.2,2.2s2.2-1,2.2-2.2c0-0.2,0-0.4-0.1-0.6l5.3-5.4h11.6c0.4,0.7,1.1,1.2,1.9,1.2c1.2,0,2.2-1,2.2-2.2
	C306.7,219.3,305.7,218.3,304.5,218.3z"/>
<path class="st0" d="M298.4,204.5v-5.4l-5.8-5.9c0.1-0.2,0.1-0.5,0.1-0.7c0-1.2-1-2.2-2.2-2.2c-1.2,0-2.2,1-2.2,2.2
	c0,1.2,1,2.2,2.2,2.2c0.3,0,0.5-0.1,0.7-0.1l5.3,5.3v4.7c-0.7,0.4-1.2,1.1-1.2,2c0,1.2,1,2.2,2.2,2.2s2.2-1,2.2-2.2
	C299.7,205.6,299.2,204.8,298.4,204.5z"/>
<path class="st0" d="M297.5,225.3c-0.9,0-1.6,0.5-2,1.2h-5.5l-7.1,7h-6l-5.3-5.4c0.1-0.2,0.1-0.4,0.1-0.6c0-1.2-1-2.2-2.2-2.2
	c-1.2,0-2.2,1-2.2,2.2c0,1.2,1,2.2,2.2,2.2c0.2,0,0.5,0,0.7-0.1l5.9,5.9h7.9l7-7h4.6c0.4,0.7,1.1,1.2,2,1.2c1.2,0,2.2-1,2.2-2.2
	C299.7,226.3,298.7,225.3,297.5,225.3z"/>
<path class="st0" d="M346.5,232.3c-0.9,0-1.6,0.5-2,1.2h-10.1c-0.4-0.7-1.1-1.2-2-1.2c-1.2,0-2.2,1-2.2,2.2c0,1.2,1,2.2,2.2,2.2
	c0.9,0,1.6-0.5,2-1.2h10.1c0.4,0.7,1.1,1.2,2,1.2c1.2,0,2.2-1,2.2-2.2C348.7,233.3,347.7,232.3,346.5,232.3z"/>
<path class="st0" d="M332.5,225.3c-1.2,0-2.2,1-2.2,2.2c0,0.2,0,0.5,0.1,0.7l-12.3,12.4l-6.1,0l-7-7l-14.9,0l-7,7l-18.6,0
	c-0.3-0.8-1.1-1.3-2-1.3c-1.2,0-2.2,1-2.2,2.2c0,1.2,1,2.2,2.2,2.2c0.9,0,1.6-0.5,2-1.2h19.4l7-7h13.3l6.9,7h7.9l12.9-12.9
	c0.2,0.1,0.4,0.1,0.7,0.1c1.2,0,2.2-1,2.2-2.2C334.7,226.3,333.7,225.3,332.5,225.3z"/>
<path class="st0" d="M278.7,192.5c0-1.2-1-2.2-2.2-2.2c-1.2,0-2.2,1-2.2,2.2c0,0.9,0.5,1.7,1.3,2l-0.1,11.4l-7.1,7.1l0.1,6.8
	l-14,14.2v5.5c-0.7,0.4-1.2,1.1-1.2,1.9c0,1.2,1,2.2,2.2,2.2c1.2,0,2.2-1,2.2-2.2c0-0.9-0.6-1.7-1.4-2v-4.6l14.2-14V214l7-7.1v-12.4
	C278.2,194.1,278.7,193.4,278.7,192.5z"/>
<path class="st0" d="M264.7,213.5c0-1.2-1-2.2-2.2-2.2c-1.2,0-2.2,1-2.2,2.2c0,0.9,0.5,1.6,1.2,2v4.7l-6.5,6.5l-4.6-0.1
	c-0.4-0.7-1.1-1.2-2-1.2c-1.2,0-2.2,1-2.2,2.2c0,1.2,1,2.2,2.2,2.2c0.8,0,1.6-0.5,1.9-1.2h5.5l7.5-7.6v-5.4
	C264.2,215.2,264.7,214.4,264.7,213.5z"/>
<path class="st0" d="M249.6,239.6V234l-7.1-7v-4.6c0.7-0.4,1.2-1.1,1.2-2c0-1.2-1-2.2-2.2-2.2c-1.2,0-2.2,1-2.2,2.2
	c0,0.9,0.5,1.6,1.3,2v5.4l7,7.1v4.5c-0.7,0.4-1.3,1.1-1.3,2c0,1.2,1,2.2,2.2,2.2c1.2,0,2.2-1,2.2-2.2
	C250.7,240.7,250.2,240,249.6,239.6z"/>
<path class="st0" d="M242.5,239.5V234l-5.9-5.8c0.1-0.2,0.1-0.5,0.1-0.7c0-1.2-1-2.2-2.2-2.2c-1.2,0-2.2,1-2.2,2.2
	c0,1.2,1,2.2,2.2,2.2c0.2,0,0.4,0,0.6-0.1l5.4,4.9v5c-0.7,0.4-1.2,1.1-1.2,2c0,1.2,1,2.2,2.2,2.2c1.2,0,2.2-1,2.2-2.2
	C243.7,240.6,243.2,239.9,242.5,239.5z"/>
<path class="st0" d="M234.5,239.3c-0.8,0-1.5,0.5-1.9,1.1l-11.7,0.1l-5.3-5.3c0.1-0.2,0.1-0.4,0.1-0.7c0-1.2-1-2.2-2.2-2.2
	c-1.2,0-2.2,1-2.2,2.2c0,1.2,1,2.2,2.2,2.2c0.2,0,0.5,0,0.7-0.1l6,6h12.4c0.4,0.7,1.1,1.1,1.9,1.1c1.2,0,2.2-1,2.2-2.2
	C236.7,240.3,235.7,239.3,234.5,239.3z"/>
<path class="st0" d="M248.5,197.3c-1.2,0-2.2,1-2.2,2.2c0,0.2,0,0.4,0.1,0.6l-5.3,5.4l-7-0.1l-12.9,13c-0.2-0.1-0.4-0.1-0.7-0.1
	c-1.2,0-2.2,1-2.2,2.2c0,1.2,1,2.2,2.2,2.2c1.2,0,2.2-1,2.2-2.2c0-0.3-0.1-0.5-0.1-0.8l12.4-12.3h7l5.8-5.9c0.2,0.1,0.4,0.1,0.7,0.1
	c1.2,0,2.2-1,2.2-2.2C250.7,198.3,249.7,197.3,248.5,197.3z"/>
<path class="st0" d="M207.5,211.5v-5.4l-5.9-6c0.1-0.2,0.1-0.4,0.1-0.7c0-1.2-1-2.2-2.2-2.2c-1.2,0-2.2,1-2.2,2.2
	c0,1.2,1,2.2,2.2,2.2c0.3,0,0.6-0.1,0.9-0.2l5.2,5.4v4.6c-0.7,0.4-1.3,1.1-1.3,2c0,1.2,1,2.2,2.2,2.2c1.2,0,2.2-1,2.2-2.2
	C208.7,212.6,208.2,211.9,207.5,211.5z"/>
<path class="st0" d="M213.5,211.3c-1.2,0-2.2,1-2.2,2.2c0,0.3,0.1,0.5,0.1,0.7l-5.9,5.9v5.4c-0.7,0.4-1.2,1.1-1.2,2
	c0,1.2,1,2.2,2.2,2.2c1.2,0,2.2-1,2.2-2.2c0-0.9-0.5-1.6-1.3-2v-4.6l5.3-5.3c0.2,0.1,0.5,0.1,0.8,0.1c1.2,0,2.2-1,2.2-2.2
	C215.7,212.3,214.7,211.3,213.5,211.3z"/>
<path class="st0" d="M192.5,183.3c-1.2,0-2.2,1-2.2,2.2c0,0.2,0,0.4,0.1,0.7l-4.2,4.3c-0.2-0.1-0.5-0.1-0.7-0.1
	c-1.2,0-2.2,1-2.2,2.2c0,1.2,1,2.2,2.2,2.2c1.2,0,2.2-1,2.2-2.2c0-0.3-0.1-0.5-0.1-0.8l4.3-4.2c0.2,0.1,0.4,0.1,0.7,0.1
	c1.2,0,2.2-1,2.2-2.2C194.7,184.3,193.7,183.3,192.5,183.3z"/>
<path class="st0" d="M206.5,141.3c-1.2,0-2.2,1-2.2,2.2c0,0.2,0,0.4,0.1,0.6l-5.9,5.9v6.9l-5.2,5.5c-0.2-0.1-0.5-0.2-0.8-0.2
	c-1.2,0-2.2,1-2.2,2.2c0,1.2,1,2.2,2.2,2.2c1.2,0,2.2-1,2.2-2.2c0-0.2-0.1-0.5-0.1-0.7l6-5.8v-7.1l5.3-5.3c0.2,0.1,0.4,0.1,0.7,0.1
	c1.2,0,2.2-1,2.2-2.2C208.7,142.3,207.7,141.3,206.5,141.3z"/>
<path class="st0" d="M200.5,232.5v-26.4l-7.6-7.6l-7-0.1l-6.4-6.3l-0.1-6.3l7.1-7l-0.1-14.9l-7.6-7.4h-5.5c-0.3-0.8-1.1-1.3-2-1.3
	c-1.2,0-2.2,1-2.2,2.2c0,1.2,1,2.2,2.2,2.2c0.8,0,1.6-0.5,1.9-1.2h4.7l6.4,6.4v13.3l-7,6.7v8.1l7.6,7.6h7l6.4,6.2v25.7
	c-0.7,0.4-1.2,1.1-1.2,1.9c0,1.2,1,2.2,2.2,2.2c1.2,0,2.2-1,2.2-2.2C201.7,233.6,201.2,232.9,200.5,232.5z"/>
<path class="st0" d="M227.5,148.3c-1.2,0-2.2,1-2.2,2.2c0,0.2,0,0.4,0.1,0.6l-5.9,6v5.5c-0.7,0.4-1.2,1.1-1.2,1.9
	c0,1.2,1,2.2,2.2,2.2c1.2,0,2.2-1,2.2-2.2c0-0.9-0.5-1.7-1.3-2v-4.4l5.4-5.5c0.2,0.1,0.5,0.1,0.7,0.1c1.2,0,2.2-1,2.2-2.2
	C229.7,149.3,228.7,148.3,227.5,148.3z"/>
<path class="st0" d="M236.7,150.5c0-1.2-1-2.2-2.2-2.2c-1.2,0-2.2,1-2.2,2.2c0,0.8,0.5,1.5,1.2,1.9v4.6l-12.2,12.4
	c-0.2-0.1-0.5-0.1-0.8-0.1c-1.2,0-2.2,1-2.2,2.2c0,1.2,1,2.2,2.2,2.2c1.2,0,2.2-1,2.2-2.2c0-0.3-0.1-0.6-0.2-0.8l13-12.8v-5.4
	C236.2,152.1,236.7,151.3,236.7,150.5z"/>
<path class="st0" d="M241.5,155.3c-1.2,0-2.2,1-2.2,2.2c0,0.2,0,0.4,0.1,0.7l-4.2,4.3c-0.2-0.1-0.5-0.1-0.7-0.1
	c-1.2,0-2.2,1-2.2,2.2c0,1.2,1,2.2,2.2,2.2c1.2,0,2.2-1,2.2-2.2c0-0.2,0-0.4-0.1-0.6l4.2-4.3c0.2,0.1,0.4,0.1,0.7,0.1
	c1.2,0,2.2-1,2.2-2.2C243.7,156.3,242.7,155.3,241.5,155.3z"/>
<path class="st0" d="M248.5,155.3c-1.2,0-2.2,1-2.2,2.2c0,0.2,0,0.4,0.1,0.7l-12.3,12.4l-7.1-0.1l-6.8,7l-4.8,0
	c-0.4-0.7-1.1-1.2-2-1.2c-1.2,0-2.2,1-2.2,2.2c0,1.2,1,2.2,2.2,2.2c0.8,0,1.6-0.5,1.9-1.2h5.5l7.1-7.1h7l12.8-12.9
	c0.2,0.1,0.4,0.1,0.7,0.1c1.2,0,2.2-1,2.2-2.2C250.7,156.3,249.7,155.3,248.5,155.3z"/>
<path class="st0" d="M227.5,176.3c-1.2,0-2.2,1-2.2,2.2c0,0.3,0.1,0.5,0.1,0.7l-5.3,5.3h-6.3l-6.3-6.4v-6.3l5.2-5.3
	c0.2,0.1,0.5,0.1,0.8,0.1c1.2,0,2.2-1,2.2-2.2c0-1.2-1-2.2-2.2-2.2c-1.2,0-2.2,1-2.2,2.2c0,0.2,0,0.4,0.1,0.6l-5.9,6.1v7.8l7.4,7.5
	h8.1l5.8-5.8c0.2,0.1,0.4,0.1,0.7,0.1c1.2,0,2.2-1,2.2-2.2C229.7,177.3,228.7,176.3,227.5,176.3z"/>
<path class="st0" d="M248.5,127.3c-0.9,0-1.6,0.5-2,1.2h-5.4l-7,7l-7,0l-7,6.9l-7,0.1l-7.6,7.6v7l-14,14v7.8l7.1,6.9v7.1l12.9,12.8
	c-0.1,0.2-0.1,0.5-0.1,0.7c0,1.2,1,2.2,2.2,2.2c1.2,0,2.2-1,2.2-2.2c0-1.2-1-2.2-2.2-2.2c-0.2,0-0.5,0-0.7,0.1l-12.4-12.4l0-6.9
	l-7-7.1v-6.1l14-14V151l6.4-6.4h7l7-7.1h7l6.9-7.1h4.6c0.3,0.8,1.1,1.3,2,1.3c1.2,0,2.2-1,2.2-2.2
	C250.7,128.3,249.7,127.3,248.5,127.3z"/>
<path class="st0" d="M262.5,148.3c-0.9,0-1.6,0.5-2,1.3l-18.6-0.1l-6.9-7h-7.9l-28.7,28.6v7.6l7,7.1v7l12.9,13.1
	c-0.1,0.2-0.1,0.4-0.1,0.6c0,1.2,1,2.2,2.2,2.2c1.2,0,2.2-1,2.2-2.2c0-1.2-1-2.2-2.2-2.2c-0.2,0-0.4,0-0.6,0.1l-12.4-12.3v-7l-7-7.1
	v-6.2l27.3-27.3h6.2l6.9,6.9h19.5c0.3,0.8,1.1,1.3,2,1.3c1.2,0,2.2-1,2.2-2.2C264.7,149.3,263.7,148.3,262.5,148.3z"/>
<path class="st0" d="M299.7,129.5c0-1.2-1-2.2-2.2-2.2c-1.2,0-2.2,1-2.2,2.2c0,0.9,0.5,1.7,1.3,2v11.6l-6.4,6.4h-7.2l-6.9,7h-21
	l-28.6,28.6v7.8l5.9,6c-0.1,0.2-0.1,0.4-0.1,0.7c0,1.2,1,2.2,2.2,2.2c1.2,0,2.2-1,2.2-2.2c0-1.2-1-2.2-2.2-2.2c-0.2,0-0.5,0-0.7,0.1
	l-5.3-5.2l-0.1-6.4l27.5-27.3l21,0.1l6.9-7.1l6.9,0.1l7.8-7.6v-12.4C299.2,131,299.7,130.3,299.7,129.5z"/>
<path class="st0" d="M297.5,148.3c-1.2,0-2.2,1-2.2,2.2c0,0.2,0,0.4,0.1,0.7l-5.2,5.3H283l-6.8,7H269l-6.9,7.1l-14-0.1l-7.7,7.7v5.4
	c-0.7,0.4-1.2,1.1-1.2,2c0,1.2,1,2.2,2.2,2.2c1.2,0,2.2-1,2.2-2.2c0-0.9-0.5-1.7-1.3-2v-4.6l6.4-6.4h14.3l6.8-7h7l7-7h7l5.8-5.9
	c0.2,0.1,0.5,0.1,0.8,0.1c1.2,0,2.2-1,2.2-2.2C299.7,149.3,298.7,148.3,297.5,148.3z"/>
<path class="st0" d="M222.6,193.3c0.1-0.2,0.1-0.5,0.1-0.8c0-1.2-1-2.2-2.2-2.2c-1.2,0-2.2,1-2.2,2.2c0,1.2,1,2.2,2.2,2.2
	c0.3,0,0.5-0.1,0.8-0.1l5.2,5.2v6.4l-14,13.9v7l-13.4,13.5l-18.7-0.1c-0.4-0.7-1.1-1.1-1.9-1.1c-1.2,0-2.2,1-2.2,2.2
	c0,1.2,1,2.2,2.2,2.2c0.8,0,1.5-0.5,1.9-1.1h19.5l14.6-14.7v-7l13.9-14v-7.8L222.6,193.3z"/>
<path class="st0" d="M262.5,184.4h-7.4l-7.1,7.2l-11.6-0.1c-0.4-0.7-1.1-1.2-2-1.2c-1.2,0-2.2,1-2.2,2.2c0,1.2,1,2.2,2.2,2.2
	c1,0,1.8-0.6,2.1-1.5l12.3,0.3l6.9-7.1h6.4l6.4,6.5v6l-13.4,13.6l-14.1-0.1l-7.1,7.2h-7l-7.4,7.6v5.4c-0.7,0.4-1.3,1.1-1.3,2
	c0,1.2,1,2.2,2.2,2.2c1.2,0,2.2-1,2.2-2.2c0-0.9-0.6-1.7-1.3-2v-4.6l6.6-6.4h7l6.9-7h14.2l14.4-14.5v-8L262.5,184.4z"/>
<path class="st0" d="M305.5,204.5v-5.4l-14.6-14.7h-21l-6.7-6.9h-12.6c-0.4-0.7-1.1-1.2-2-1.2c-1.2,0-2.2,1-2.2,2.2
	c0,1.2,1,2.2,2.2,2.2c0.9,0,1.6-0.5,2-1.2h12l6.6,6.9h21.1l13.4,13.5v4.6c-0.8,0.3-1.3,1.1-1.3,2c0,1.2,1,2.2,2.2,2.2s2.2-1,2.2-2.2
	C306.7,205.6,306.2,204.9,305.5,204.5z"/>
</svg>
