<svg id="trilhas" xmlns="http://www.w3.org/2000/svg" viewBox="0 0 778.2 1072.13">
<style>
  #trilhas {
    object-fit: cover;
    height: auto;
  }
	.st0 {
		transition: fill 350ms ease-out;
		fill: transparent;
		stroke: #64DDB8;
		stroke-width: 1;
		stroke-linecap: round;
		stroke-linejoin: round;
	}
</style>
	<path class="st0" d="M88.93,48.87c-3.95,0-7.15,3.2-7.15,7.15s3.2,7.15,7.15,7.15s7.15-3.2,7.15-7.15c0-0.78-0.13-1.53-0.36-2.23
		l19.46-19.55h19.06l37.71,37.47c-0.01,0.13-0.02,0.25-0.02,0.38c0,3.95,3.2,7.15,7.15,7.15s7.15-3.2,7.15-7.15s-3.2-7.15-7.15-7.15
		c-0.64,0-1.26,0.09-1.86,0.25l-39.03-39.07h-26.01L89.47,48.9C89.29,48.88,89.11,48.87,88.93,48.87z"/>
	<path class="st0" d="M155.52,81.23c3.79,1.11,7.76-1.07,8.87-4.86c1.11-3.79-1.07-7.76-4.86-8.87c-0.9-0.26-1.8-0.33-2.67-0.25
		l-18.62-19.13h-18.59c-1.29-1.88-3.45-3.11-5.9-3.11c-3.95,0-7.15,3.2-7.15,7.15s3.2,7.15,7.15,7.15c2.52,0,4.72-1.3,6-3.27h14.41
		l16.48,16.45C149.61,76.25,151.77,80.13,155.52,81.23z"/>
	<path class="st0" d="M45.59,36.93c3.09,0.9,6.3-0.38,7.98-2.94h10.2c0.9,1.37,2.27,2.45,3.97,2.94c3.79,1.11,7.76-1.07,8.87-4.86
		c1.11-3.79-1.07-7.76-4.86-8.87c-3.09-0.9-6.29,0.38-7.97,2.93c-2.68,0.01-7.74,0.04-10.2,0.02c-0.9-1.38-2.27-2.45-3.97-2.95
		c-3.79-1.11-7.76,1.07-8.87,4.86C39.63,31.86,41.8,35.83,45.59,36.93z"/>
	<path class="st0" d="M92.22,67.22c-3.95,0-7.15,3.2-7.15,7.15s3.2,7.15,7.15,7.15c0.53,0,1.05-0.06,1.55-0.17l16.44,16.82v36.15
		c-2.17,1.23-3.63,3.55-3.63,6.22c0,3.95,3.2,7.15,7.15,7.15s7.15-3.2,7.15-7.15c0-2.65-1.45-4.96-3.59-6.2V94.2l-18.17-18
		c0.16-0.59,0.25-1.2,0.25-1.84C99.37,70.42,96.17,67.22,92.22,67.22z"/>
	<path class="st0" d="M113.74,81.51c0.63,0,1.23-0.09,1.81-0.24l18.66,18.96h17.6c1.27,1.96,3.48,3.26,5.99,3.26
		c3.95,0,7.15-3.2,7.15-7.15s-3.2-7.15-7.15-7.15c-2.44,0-4.6,1.23-5.88,3.09h-13.6L120.8,75.47c0.06-0.36,0.09-0.73,0.09-1.1
		c0-3.95-3.2-7.15-7.15-7.15s-7.15,3.2-7.15,7.15S109.79,81.51,113.74,81.51z"/>
	<path class="st0" d="M71.52,56.13c8.02-7.99,16.03-15.99,24.05-23.98c-0.01-6.08-0.02-12.15-0.04-18.23
		c1.18-0.89,2.1-2.16,2.55-3.69c1.11-3.79-1.07-7.76-4.86-8.87c-3.79-1.11-7.76,1.07-8.87,4.86c-1.05,3.59,0.85,7.33,4.26,8.66
		c-0.01,4.4-0.02,8.8-0.03,13.19c-6.67,6.69-13.35,13.37-20.02,20.06c-6.35,0-12.69,0-19.04,0C36.89,35.14,24.24,22.15,11.59,9.17
		C7.96,9.13,4.33,9.09,0.7,9.05c15.3,15.7,30.6,31.39,45.9,47.09C54.91,56.14,63.22,56.13,71.52,56.13z"/>
	<path class="st0" d="M133.81,15.09c1.2,0.35,2.42,0.37,3.56,0.11l19.96,19.04l13.93-0.12c0.9,1.31,2.24,2.33,3.89,2.81
		c3.79,1.11,7.76-1.07,8.87-4.86c1.11-3.79-1.07-7.76-4.86-8.87c-3.13-0.91-6.37,0.41-8.03,3.03h-10.79L142.94,8.83
		c0.29-3.32-1.79-6.5-5.12-7.47c-3.79-1.11-7.76,1.07-8.87,4.86C127.85,10.01,130.02,13.98,133.81,15.09z"/>
	<path class="st0" d="M155.52,15.09c3.46,1.01,7.07-0.72,8.51-3.92h7.21c0.9,1.33,2.25,2.36,3.91,2.85
		c3.79,1.11,7.76-1.07,8.87-4.86c1.11-3.79-1.07-7.76-4.86-8.87c-3.79-1.11-7.76,1.07-8.87,4.86c-0.24,0.81-0.32,1.63-0.27,2.43
		h-5.39c-0.26-2.84-2.21-5.36-5.11-6.21c-3.79-1.11-7.76,1.07-8.87,4.86C149.55,10.01,151.73,13.98,155.52,15.09z"/>
	<path class="st0" d="M92.22,133.38c-2.77,0-5.17,1.58-6.36,3.89H76.1c-1.18-2.31-3.58-3.89-6.36-3.89c-3.95,0-7.15,3.2-7.15,7.15
		s3.2,7.15,7.15,7.15c2.59,0,4.85-1.38,6.1-3.44h10.28c1.25,2.06,3.51,3.44,6.1,3.44c3.95,0,7.15-3.2,7.15-7.15
		S96.17,133.38,92.22,133.38z"/>
	<path class="st0" d="M25.45,133.38c-3.95,0-7.15,3.2-7.15,7.15s3.2,7.15,7.15,7.15c2.59,0,4.85-1.38,6.1-3.44h17.56l22.04-22h15.1
		c1.28,1.95,3.48,3.24,5.98,3.24c3.95,0,7.15-3.2,7.15-7.15s-3.2-7.15-7.15-7.15c-2.77,0-5.16,1.57-6.35,3.87H67.19l-21.96,22.11
		l-13.55-0.14C30.45,134.85,28.12,133.38,25.45,133.38z"/>
	<path class="st0" d="M174.49,140.86l-20.34,20.3v17.2c-1.97,1.27-3.27,3.48-3.27,6c0,3.95,3.2,7.15,7.15,7.15s7.15-3.2,7.15-7.15
		c0-2.38-1.16-4.48-2.95-5.78V164.2l15.92-15.99c1.01,0.55,2.17,0.86,3.4,0.86c3.95,0,7.15-3.2,7.15-7.15s-3.2-7.15-7.15-7.15
		C177.96,134.77,175,137.42,174.49,140.86z"/>
	<path class="st0" d="M173.77,131.96c3.95,0,7.15-3.2,7.15-7.15s-3.2-7.15-7.15-7.15s-7.15,3.2-7.15,7.15c0,0.6,0.08,1.17,0.22,1.73
		l-29.26,29.12c-0.51-0.12-1.05-0.18-1.59-0.18c-3.95,0-7.15,3.2-7.15,7.15s3.2,7.15,7.15,7.15s7.15-3.2,7.15-7.15
		c0-0.43-0.04-0.85-0.12-1.25l29.24-29.58C172.74,131.9,173.25,131.96,173.77,131.96z"/>
	<path class="st0" d="M180.24,155.48c-3.95,0-7.15,3.2-7.15,7.15s3.2,7.15,7.15,7.15c2.76,0,5.15-1.57,6.34-3.85l36.67,0.43
		c6.64,6.94,13.28,13.89,19.92,20.83c0,0.39,0.01,0.78,0.01,1.17l-0.04,20.85l22.07,21.96v2.37l-0.07,63.62l70.38,69.17
		c-0.12,0.53-0.2,1.07-0.2,1.64c0,3.95,3.2,7.15,7.15,7.15s7.15-3.2,7.15-7.15s-3.2-7.15-7.15-7.15c-0.55,0-1.08,0.07-1.59,0.18
		l-68.7-67.87v-59.59v-6.3l-22.04-22.11v-16.78v-5l-24.22-24.22h-39.45C185.25,156.95,182.92,155.48,180.24,155.48z"/>
	<path class="st0" d="M246.73,169.44c0.52,0,1.03-0.06,1.52-0.17l16.96,17.79v21.22l4,3.89l18.06,18.89v21.94l6.17,6.06l15.78,16.06
		l-0.11,43.89l6.17,6.17l17.06,17.06h18.27c1.23,2.14,3.54,3.59,6.2,3.59c3.95,0,7.15-3.2,7.15-7.15s-3.2-7.15-7.15-7.15
		c-2.22,0-4.2,1.01-5.51,2.6l-15.06,0.05l-14.94-14.94l-4.94-5.22v-43.61l-17.06-17.22l-4.94-4.89v-22.06l-19.39-19.56
		c-0.91-0.83-1.83-1.67-2.74-2.5c0-7.37,0-14.74,0-22.11l-18.48-18.24c0.11-0.5,0.17-1.01,0.17-1.54c0-3.95-3.2-7.15-7.15-7.15
		s-7.15,3.2-7.15,7.15S242.78,169.44,246.73,169.44z"/>
	<path class="st0" d="M92.22,191.96c2.66,0,4.98-1.46,6.21-3.61h31.62c1.28,1.91,3.46,3.17,5.94,3.17c3.95,0,7.15-3.2,7.15-7.15
		s-3.2-7.15-7.15-7.15c-2.78,0-5.18,1.59-6.37,3.91H98.34c-1.25-2.07-3.52-3.46-6.12-3.46c-3.95,0-7.15,3.2-7.15,7.15
		S88.28,191.96,92.22,191.96z"/>
	<path class="st0" d="M187.39,206.22c0-3.95-3.2-7.15-7.15-7.15s-7.15,3.2-7.15,7.15c0,2.4,1.18,4.51,3,5.81v17.93l24.28,24.22
		h17.52c1.22,2.19,3.56,3.67,6.24,3.67c3.95,0,7.15-3.2,7.15-7.15s-3.2-7.15-7.15-7.15c-2.64,0-4.95,1.44-6.18,3.57h-13.52
		l-20.11-19.94v-15.09C186.17,210.8,187.39,208.66,187.39,206.22z"/>
	<path class="st0" d="M114.24,221.37c-2.74,0-5.12,1.55-6.32,3.81h-9.38c-1.2-2.27-3.58-3.81-6.32-3.81c-3.95,0-7.15,3.2-7.15,7.15
		c0,3.95,3.2,7.15,7.15,7.15c2.62,0,4.9-1.41,6.14-3.51h9.73c1.25,2.1,3.53,3.51,6.14,3.51c3.95,0,7.15-3.2,7.15-7.15
		C121.39,224.57,118.19,221.37,114.24,221.37z"/>
	<path class="st0" d="M202.13,213.37c2.49,0,4.69-1.28,5.96-3.21h9.91c1.25,2.08,3.52,3.47,6.12,3.47c3.95,0,7.15-3.2,7.15-7.15
		s-3.2-7.15-7.15-7.15c-2.77,0-5.17,1.58-6.35,3.88h-9.17c-1.14-2.44-3.61-4.14-6.48-4.14c-3.95,0-7.15,3.2-7.15,7.15
		S198.19,213.37,202.13,213.37z"/>
	<path class="st0" d="M202.13,235.89c2.7,0,5.05-1.5,6.26-3.7h9.47c1.22,2.21,3.56,3.7,6.26,3.7c3.95,0,7.15-3.2,7.15-7.15
		s-3.2-7.15-7.15-7.15c-2.66,0-4.98,1.46-6.21,3.62h-9.58c-1.23-2.16-3.55-3.62-6.21-3.62c-3.95,0-7.15,3.2-7.15,7.15
		S198.19,235.89,202.13,235.89z"/>
	<path class="st0" d="M49.55,111.32c-0.46-0.09-0.93-0.14-1.41-0.14c-3.95,0-7.15,3.2-7.15,7.15s3.2,7.15,7.15,7.15
		s7.15-3.2,7.15-7.15c0-0.74-0.11-1.45-0.32-2.12l16.22-15.97h15.05c1.27,1.96,3.48,3.26,5.99,3.26c3.95,0,7.15-3.2,7.15-7.15
		s-3.2-7.15-7.15-7.15c-2.76,0-5.15,1.57-6.34,3.85H67.3L49.55,111.32z"/>
	<path class="st0" d="M94.04,166.2h22.22l41.89-42.86c0.14,0.01,0.28,0.02,0.43,0.02c3.95,0,7.15-3.2,7.15-7.15s-3.2-7.15-7.15-7.15
		s-7.15,3.2-7.15,7.15c0,1.04,0.23,2.02,0.63,2.92l-39.99,39.99l-21.93-0.04l-24.07,23.96v17.48c-2.08,1.25-3.48,3.52-3.48,6.13
		c0,3.95,3.2,7.15,7.15,7.15s7.15-3.2,7.15-7.15c0-2.68-1.48-5.02-3.67-6.24v-13.3L94.04,166.2z"/>
	<path class="st0" d="M22.07,188.35v19.63l24,24.18h3.56h22.3l21.11-21.9h1.11l66-0.1l21.41-21.81h1.19l35.32-0.22
		c1.26,2.03,3.5,3.39,6.07,3.39c3.95,0,7.15-3.2,7.15-7.15s-3.2-7.15-7.15-7.15c-2.78,0-5.18,1.59-6.37,3.91h-35.03h-4.59
		l-22.07,22.08l-61.93-0.05h-3.7l-22.59,22.02H49.63l-20.74-21.06v-15.78v-6.15L7.11,160.94v-18.67l38.62-39.2
		c0.75,0.27,1.56,0.42,2.4,0.42c3.95,0,7.15-3.2,7.15-7.15s-3.2-7.15-7.15-7.15s-7.15,3.2-7.15,7.15c0,0.32,0.03,0.63,0.07,0.94
		L0,138.13v4.15v21.41l22.15,21.7L22.07,188.35z"/>
	<path class="st0" d="M297.87,272.63c0-3.95-3.2-7.15-7.15-7.15s-7.15,3.2-7.15,7.15c0,2.67,1.46,4.99,3.63,6.22v9.95
		c-2.17,1.23-3.63,3.55-3.63,6.22c0,3.95,3.2,7.15,7.15,7.15s7.15-3.2,7.15-7.15c0-2.66-1.46-4.98-3.61-6.21v-9.98
		C296.41,277.6,297.87,275.29,297.87,272.63z"/>
	<path class="st0" d="M158.21,279.78c3.95,0,7.15-3.2,7.15-7.15s-3.2-7.15-7.15-7.15c-0.51,0-1,0.05-1.48,0.15l-13.61-13.43
		c0.1-0.48,0.16-0.98,0.16-1.5c0-3.95-3.2-7.15-7.15-7.15s-7.15,3.2-7.15,7.15s3.2,7.15,7.15,7.15c0.62,0,1.21-0.09,1.79-0.23
		l13.31,13.49c-0.11,0.49-0.17,1-0.17,1.52C151.06,276.58,154.26,279.78,158.21,279.78z"/>
	<path class="st0" d="M134.15,225.18l-18.57,18.55c-0.51-0.12-1.04-0.18-1.59-0.18c-3.95,0-7.15,3.2-7.15,7.15s3.2,7.15,7.15,7.15
		s7.15-3.2,7.15-7.15c0-0.7-0.1-1.37-0.29-2.01l17.45-16.54l18,0.03l19.8,19.94v14.66c-1.83,1.29-3.03,3.42-3.03,5.84
		c0,3.95,3.2,7.15,7.15,7.15s7.15-3.2,7.15-7.15c0-2.46-1.24-4.63-3.13-5.91v-17.85l-24.15-23.69H134.15z"/>
	<path class="st0" d="M82.23,251.17c0,3.95,3.2,7.15,7.15,7.15c1.58,0,3.03-0.52,4.21-1.38l18.62,19.31h21.87l7,6.93l15.07,15.04h26
		l22.11-22.07h21.89l24.07-24.04v-17.8c2.03-1.26,3.39-3.51,3.39-6.07c0-3.95-3.2-7.15-7.15-7.15s-7.15,3.2-7.15,7.15
		c0,2.75,1.55,5.13,3.83,6.33v13.43l-20.96,21.19h-21.93l-22.11,22l-18.04,0.04l-12.93-13l-9.04-9.04l-21.93,0.04l-20.01-20.12
		c-0.89-2.93-3.61-5.07-6.84-5.07C85.43,244.02,82.23,247.22,82.23,251.17z"/>
	<path class="st0" d="M70,265.68c-3.95,0-7.15,3.2-7.15,7.15c0,3.95,3.2,7.15,7.15,7.15c2.77,0,5.17-1.58,6.36-3.89h13.71
		l22.15,22.07h21.95l1,1.02l19.04,18.97l-0.01,5.81v13.2l-21.94,22.07v17.75c-1.7,1.31-2.79,3.35-2.79,5.66
		c0,3.95,3.2,7.15,7.15,7.15s7.15-3.2,7.15-7.15c0-2.68-1.48-5.02-3.67-6.24v-14.22l21.09-21.06l1.07-1.04v-16.13v-8.67
		l-24.14-24.09h-21.86l-22.11-22H76.15C74.91,267.1,72.62,265.68,70,265.68z"/>
	<path class="st0" d="M49.41,267.91c-3.95,0-7.15,3.2-7.15,7.15s3.2,7.15,7.15,7.15c0.96,0,1.87-0.19,2.7-0.53l16.12,16.5h17.73
		c1.2,2.25,3.57,3.78,6.3,3.78c3.95,0,7.15-3.2,7.15-7.15s-3.2-7.15-7.15-7.15c-2.63,0-4.93,1.43-6.17,3.54l-13.87-0.04l-15.7-15.62
		c0.01-0.16,0.02-0.32,0.02-0.48C56.56,271.11,53.36,267.91,49.41,267.91z"/>
	<path class="st0" d="M120.38,320.11l9.49-0.07c1.21,2.22,3.57,3.72,6.27,3.72c3.95,0,7.15-3.2,7.15-7.15s-3.2-7.15-7.15-7.15
		c-2.67,0-4.99,1.47-6.22,3.63h-9.56c-1.23-2.17-3.55-3.63-6.22-3.63c-3.95,0-7.15,3.2-7.15,7.15s3.2,7.15,7.15,7.15
		C116.83,323.76,119.16,322.29,120.38,320.11z"/>
	<path class="st0" d="M84.26,313.1l-3.11,7.03h9c0,0,21.96,22,22.07,22.04c0.09,0.03,12.56,0.01,17.63,0
		c1.2,2.25,3.57,3.78,6.3,3.78c3.95,0,7.15-3.2,7.15-7.15c0-3.95-3.2-7.15-7.15-7.15c-2.66,0-4.97,1.45-6.2,3.61l-13.84-0.13
		L94.19,313.1H84.26z"/>
	<path class="st0" d="M99.13,338.8c0-3.95-3.2-7.15-7.15-7.15s-7.15,3.2-7.15,7.15c0,2.58,1.37,4.84,3.42,6.09v31.98
		c-2.05,1.26-3.42,3.51-3.42,6.09c0,3.95,3.2,7.15,7.15,7.15s7.15-3.2,7.15-7.15c0-2.79-1.6-5.2-3.93-6.38v-31.41
		C97.53,344,99.13,341.59,99.13,338.8z"/>
	<path class="st0" d="M48.15,323.96c0.69,0,1.35-0.1,1.98-0.28l12.97,13.44c-0.13,0.54-0.21,1.1-0.21,1.69
		c0,3.95,3.2,7.15,7.15,7.15s7.15-3.2,7.15-7.15c0-3.95-3.2-7.15-7.15-7.15c-0.37,0-0.74,0.04-1.09,0.09l-13.79-13.49
		c0.1-0.47,0.15-0.95,0.15-1.44c0-3.95-3.2-7.15-7.15-7.15s-7.15,3.2-7.15,7.15S44.2,323.96,48.15,323.96z"/>
	<path class="st0" d="M48.04,389.79c2.67,0,4.99-1.46,6.22-3.63h9.68c1.23,2.17,3.55,3.63,6.22,3.63c3.95,0,7.15-3.2,7.15-7.15
		s-3.2-7.15-7.15-7.15c-2.68,0-5,1.47-6.23,3.65h-9.65c-1.23-2.18-3.55-3.65-6.23-3.65c-3.95,0-7.15,3.2-7.15,7.15
		S44.09,389.79,48.04,389.79z"/>
	<path class="st0" d="M73.48,408.13h20.81l6.03-6.03l17.02-16.94v-6.67v-11.19c2.23-1.21,3.74-3.57,3.74-6.29
		c0-3.95-3.2-7.15-7.15-7.15s-7.15,3.2-7.15,7.15c0,2.64,1.43,4.94,3.56,6.18l-0.01,11.3v2.67l-15.91,16.1l-4.11,3.89H73.48h-5.11
		l-16.04,16.04c-0.79-0.3-1.64-0.47-2.54-0.47c-3.95,0-7.15,3.2-7.15,7.15s3.2,7.15,7.15,7.15s7.15-3.2,7.15-7.15
		c0-0.08-0.01-0.15-0.01-0.23l14.97-15.4L73.48,408.13z"/>
	<path class="st0" d="M164.56,364.29h9.79c1.21,2.22,3.57,3.72,6.27,3.72c3.95,0,7.15-3.2,7.15-7.15s-3.2-7.15-7.15-7.15
		c-2.5,0-4.69,1.28-5.97,3.22c-3.06-0.01-7.71,0.03-10.36,0.05c-1.27-1.97-3.48-3.28-6-3.28c-3.95,0-7.15,3.2-7.15,7.15
		s3.2,7.15,7.15,7.15C160.99,368.02,163.34,366.51,164.56,364.29z"/>
	<path class="st0" d="M195.13,338.8c0,3.95,3.2,7.15,7.15,7.15s7.15-3.2,7.15-7.15c0-2.41-1.2-4.54-3.02-5.83v-10.52
		c1.83-1.29,3.02-3.42,3.02-5.83c0-3.95-3.2-7.15-7.15-7.15s-7.15,3.2-7.15,7.15c0,2.52,1.31,4.73,3.27,6v10.18
		C196.44,334.07,195.13,336.28,195.13,338.8z"/>
	<path class="st0" d="M335.33,485.59c-2.68,0-5,1.47-6.23,3.65h-14.68l-31.14-31.03l-13.88-13.01h-21.04l-4.96-4.89l-15.04-15.15
		V407.2v-3.89l-14.07-14.07l-7.93-8.04v-12.85v-9.11l-16.96-17l-5.04-5.07l-0.07-14.44c2.07-1.25,3.46-3.52,3.46-6.11
		c0-3.95-3.2-7.15-7.15-7.15s-7.15,3.2-7.15,7.15c0,2.32,1.11,4.38,2.83,5.69v17.75l8.11,8.15l14,13.98v6.17l-0.15,15.78
		l11.15,11.11l11.96,11.96l-0.04,22.07l16.07,15.93l6.85,7.05h22.07l12.01,11.94l34.19,32.17l16.87,0.38
		c1.28,1.9,3.46,3.16,5.93,3.16c3.95,0,7.15-3.2,7.15-7.15S339.28,485.59,335.33,485.59z"/>
	<path class="st0" d="M202.41,287.36c-3.95,0-7.15,3.2-7.15,7.15s3.2,7.15,7.15,7.15c0.66,0,1.29-0.1,1.89-0.26l16.07,16.78v14.9
		c-1.75,1.3-2.89,3.38-2.89,5.73c0,3.95,3.2,7.15,7.15,7.15s7.15-3.2,7.15-7.15c0-2.53-1.32-4.74-3.3-6.02v-17.54l-19.14-19.03
		c0.13-0.55,0.21-1.11,0.21-1.7C209.56,290.56,206.36,287.36,202.41,287.36z"/>
	<path class="st0" d="M268.63,309.47c-3.95,0-7.15,3.2-7.15,7.15s3.2,7.15,7.15,7.15c0.76,0,1.5-0.12,2.19-0.34l38.61,38.76v22
		l21.83,22.76v8.52v5.53c-2.04,1.26-3.41,3.51-3.41,6.08c0,3.95,3.2,7.15,7.15,7.15c3.95,0,7.15-3.2,7.15-7.15
		c0-2.67-1.46-4.99-3.63-6.22v-17.39l-22.2-22.22v-21.94l-40.8-40.8c0.16-0.6,0.26-1.23,0.26-1.88
		C275.78,312.67,272.58,309.47,268.63,309.47z"/>
	<path class="st0" d="M268.63,345.95c0.86,0,1.67-0.16,2.43-0.43l12.85,13.19c-0.22,0.68-0.34,1.41-0.34,2.17
		c0,3.95,3.2,7.15,7.15,7.15s7.15-3.2,7.15-7.15s-3.2-7.15-7.15-7.15c-0.63,0-1.24,0.09-1.82,0.24l-13.35-13.42
		c0.14-0.56,0.22-1.14,0.22-1.74c0-3.95-3.2-7.15-7.15-7.15s-7.15,3.2-7.15,7.15C261.48,342.75,264.68,345.95,268.63,345.95z"/>
	<path class="st0" d="M246.5,353.67c-3.95,0-7.15,3.2-7.15,7.15s3.2,7.15,7.15,7.15c2.72,0,5.08-1.52,6.29-3.75h14.55l13.03,13.96
		l25.71,25.02c-0.18,0.63-0.28,1.29-0.28,1.97c0,3.95,3.2,7.15,7.15,7.15s7.15-3.2,7.15-7.15s-3.2-7.15-7.15-7.15
		c-0.58,0-1.15,0.08-1.69,0.21l-24.87-25.04l-16.07-16.11h-17.73C251.32,355.03,249.07,353.67,246.5,353.67z"/>
	<path class="st0" d="M246.5,265.48c-3.95,0-7.15,3.2-7.15,7.15c0,2.8,1.62,5.22,3.96,6.39l0.05,57.33l-7,6.92l-15.04,14.94v7.78
		v19.11l20,20.07l16.07,15.93l5.26-5.63l-16.17-16.37l-18.13-17.93v-15.19v-3.8l13.67-13.08l8.28-8.89l-0.09-61.49
		c2.05-1.26,3.42-3.51,3.42-6.09C253.65,268.68,250.45,265.48,246.5,265.48z"/>
	<path class="st0" d="M246.72,375.67c-3.95,0-7.15,3.2-7.15,7.15s3.2,7.15,7.15,7.15c0.51,0,1.01-0.06,1.49-0.16l18.33,18.35h18.2
		c1.13,2.45,3.61,4.16,6.49,4.16c3.95,0,7.15-3.2,7.15-7.15s-3.2-7.15-7.15-7.15c-2.42,0-4.55,1.2-5.85,3.04l-14.81,0.12
		l-16.92-16.6c0.14-0.57,0.23-1.16,0.23-1.77C253.87,378.87,250.67,375.67,246.72,375.67z"/>
	<path class="st0" d="M158.61,456.17c3.95,0,7.15-3.2,7.15-7.15c0-0.67-0.1-1.32-0.27-1.93l19.21-19.14v-16.92
		c1.85-1.29,3.06-3.43,3.06-5.86c0-3.95-3.2-7.15-7.15-7.15s-7.15,3.2-7.15,7.15c0,2.41,1.19,4.53,3.02,5.83l0.07,14.21l-16.8,16.77
		c-0.37-0.06-0.75-0.1-1.14-0.1c-3.95,0-7.15,3.2-7.15,7.15S154.67,456.17,158.61,456.17z"/>
	<path class="st0" d="M136.84,433.89c3.95,0,7.15-3.2,7.15-7.15s-3.2-7.15-7.15-7.15s-7.15,3.2-7.15,7.15
		c0,0.35,0.03,0.69,0.08,1.02l-14.11,14.21c-0.38-0.06-0.76-0.1-1.16-0.1c-3.95,0-7.15,3.2-7.15,7.15s3.2,7.15,7.15,7.15
		s7.15-3.2,7.15-7.15c0-0.64-0.09-1.25-0.25-1.84c2.75-2.76,10.75-10.77,13.53-13.55C135.54,433.79,136.18,433.89,136.84,433.89z"/>
	<path class="st0" d="M162.56,410.89c1.74-1.3,2.87-3.38,2.87-5.72c0-3.95-3.2-7.15-7.15-7.15s-7.15,3.2-7.15,7.15
		c0,2.59,1.39,4.86,3.45,6.11l-0.07,13.93l-16.77,16.77c-0.37-0.06-0.75-0.1-1.14-0.1c-3.95,0-7.15,3.2-7.15,7.15
		s3.2,7.15,7.15,7.15s7.15-3.2,7.15-7.15c0-0.72-0.11-1.42-0.31-2.08l19.1-18.92V410.89z"/>
	<path class="st0" d="M112.54,401.07l-23.89,24.06v26.06l23.83,22.94h39.22c1.09,2.56,3.62,4.35,6.58,4.35
		c3.95,0,7.15-3.2,7.15-7.15c0-3.95-3.2-7.15-7.15-7.15c-2.4,0-4.52,1.19-5.81,3h-36.93l-20-20.22l0.17-13.89v-4.26l21.06-20.69
		l21.67,0.03l22.28-22.14l17.78,0.17l15.11,14.89l5.06,4.94l0.11,37.13c-2.05,1.26-3.42,3.51-3.42,6.09c0,3.95,3.2,7.15,7.15,7.15
		s7.15-3.2,7.15-7.15c0-2.47-1.25-4.64-3.15-5.92v-40.3l-7.89-7.78l-16.11-16.17h-25.94l-22,22H112.54z"/>
	<path class="st0" d="M290.44,500.39c3.95,0,7.15-3.2,7.15-7.15s-3.2-7.15-7.15-7.15c-0.29,0-0.57,0.02-0.85,0.06l-19.13-19.1
		h-17.78h-4.08l-16.84-16.66c0.06-0.37,0.1-0.76,0.1-1.15c0-3.95-3.2-7.15-7.15-7.15s-7.15,3.2-7.15,7.15s3.2,7.15,7.15,7.15
		c0.66,0,1.29-0.1,1.89-0.26l18,17.95h8.08h13.72l17.28,16.85c-0.25,0.73-0.39,1.5-0.39,2.31
		C283.29,497.19,286.49,500.39,290.44,500.39z"/>
	<path class="st0" d="M276.14,493.24c0-3.95-3.2-7.15-7.15-7.15s-7.15,3.2-7.15,7.15c0,2.69,1.49,5.04,3.69,6.26v9.37
		c-2.2,1.22-3.69,3.56-3.69,6.26c0,3.95,3.2,7.15,7.15,7.15s7.15-3.2,7.15-7.15c0-2.69-1.49-5.03-3.69-6.25v-9.39
		C274.65,498.27,276.14,495.93,276.14,493.24z"/>
	<path class="st0" d="M217.48,515.13c0,3.95,3.2,7.15,7.15,7.15s7.15-3.2,7.15-7.15c0-2.54-1.33-4.77-3.33-6.04v-9.94
		c2-1.27,3.33-3.49,3.33-6.04c0-3.95-3.2-7.15-7.15-7.15s-7.15,3.2-7.15,7.15c0,2.83,1.65,5.27,4.04,6.43v9.16
		C219.13,509.86,217.48,512.3,217.48,515.13z"/>
	<path class="st0" d="M217.48,537.15c0,3.95,3.2,7.15,7.15,7.15s7.15-3.2,7.15-7.15s-3.2-7.15-7.15-7.15
		c-0.26,0-0.51,0.02-0.76,0.04l-17.38-16.84l0.1-14.01c1.92-1.28,3.19-3.47,3.19-5.95c0-3.95-3.2-7.15-7.15-7.15
		c-3.95,0-7.15,3.2-7.15,7.15c0,2.38,1.17,4.49,2.97,5.79v16.99l19.27,19.34C217.57,535.93,217.48,536.53,217.48,537.15z"/>
	<path class="st0" d="M202.63,544.29c3.95,0,7.15-3.2,7.15-7.15s-3.2-7.15-7.15-7.15c-0.4,0-0.79,0.04-1.17,0.1l-16.92-16.97v-14.08
		c1.91-1.28,3.17-3.46,3.17-5.94c0-3.95-3.2-7.15-7.15-7.15s-7.15,3.2-7.15,7.15c0,2.41,1.19,4.53,3.02,5.83v17.02l19.33,19.22
		c-0.18,0.62-0.28,1.28-0.28,1.96C195.48,541.09,198.68,544.29,202.63,544.29z"/>
	<path class="st0" d="M158.56,544.29c0.69,0,1.35-0.1,1.97-0.28l13.18,13.25c-0.22,0.69-0.34,1.42-0.34,2.18
		c0,3.95,3.2,7.15,7.15,7.15s7.15-3.2,7.15-7.15s-3.2-7.15-7.15-7.15c-0.22,0-0.43,0.01-0.65,0.03l-14.25-14.17
		c0.05-0.33,0.08-0.67,0.08-1.01c0-3.95-3.2-7.15-7.15-7.15s-7.15,3.2-7.15,7.15S154.61,544.29,158.56,544.29z"/>
	<path class="st0" d="M158.41,676.7c2.61,0,4.89-1.41,6.14-3.5h17.86l16.07-16.07l8-8.03v-26.03l-21.97-20.97v-18.97l16.98-17.01
		c0.37,0.06,0.75,0.1,1.14,0.1c3.95,0,7.15-3.2,7.15-7.15s-3.2-7.15-7.15-7.15c-3.95,0-7.15,3.2-7.15,7.15
		c0,0.58,0.08,1.14,0.21,1.67l-19.14,19.38v25.03l16.03,15.83l6.06,6.06l-0.14,19.03l-5.96,6.02l-13.93,13.85c0,0-9.95,0-14.02,0
		c-1.24-2.11-3.53-3.54-6.16-3.54c-3.95,0-7.15,3.2-7.15,7.15S154.46,676.7,158.41,676.7z"/>
	<path class="st0" d="M158.41,654.48c2.55,0,4.78-1.34,6.05-3.35h10.01c1.26,2.01,3.5,3.35,6.05,3.35c3.95,0,7.15-3.2,7.15-7.15
		c0-3.95-3.2-7.15-7.15-7.15c-2.76,0-5.15,1.57-6.34,3.86c-2.19-0.01-6.85-0.03-9.43-0.02c-1.19-2.28-3.58-3.84-6.33-3.84
		c-3.95,0-7.15,3.2-7.15,7.15C151.26,651.28,154.46,654.48,158.41,654.48z"/>
	<path class="st0" d="M158.41,617.96c-3.95,0-7.15,3.2-7.15,7.15s3.2,7.15,7.15,7.15c2.42,0,4.56-1.21,5.86-3.06h10.4
		c1.29,1.85,3.43,3.06,5.86,3.06c3.95,0,7.15-3.2,7.15-7.15s-3.2-7.15-7.15-7.15c-2.79,0-5.21,1.61-6.38,3.94h-9.34
		C163.62,619.57,161.2,617.96,158.41,617.96z"/>
	<path class="st0" d="M209.77,581.2c0-3.95-3.2-7.15-7.15-7.15c-3.95,0-7.15,3.2-7.15,7.15c0,2.48,1.26,4.66,3.17,5.94v10.25
		c-1.91,1.28-3.17,3.46-3.17,5.94c0,3.95,3.2,7.15,7.15,7.15c3.95,0,7.15-3.2,7.15-7.15c0-2.5-1.29-4.7-3.24-5.98v-10.17
		C208.48,585.9,209.77,583.71,209.77,581.2z"/>
	<path class="st0" d="M226.48,467.18h-47.89l-21.94,21.72h-14.62c-1.3-1.78-3.4-2.94-5.77-2.94c-3.95,0-7.15,3.2-7.15,7.15
		s3.2,7.15,7.15,7.15c2.85,0,5.3-1.67,6.45-4.07h17.89l21.94-22.06h40l3,2.94l17.94,17.72v36.44l0.11,3.78l-20,20.11l-2.04,2.04
		v90.08c-2.65,1.05-4.52,3.62-4.52,6.64c0,3.95,3.2,7.15,7.15,7.15s7.15-3.2,7.15-7.15c0-2.28-1.08-4.31-2.74-5.62l-0.07-87.36
		l1.07-0.89l21.11-21v-47.83l-20.11-19.85L226.48,467.18z"/>
	<path class="st0" d="M78.67,463.05l56,55.96h5.04l16.79,0.1l17.12,16.21c-0.15,0.58-0.24,1.19-0.24,1.82c0,3.95,3.2,7.15,7.15,7.15
		s7.15-3.2,7.15-7.15s-3.2-7.15-7.15-7.15c-0.32,0-0.63,0.03-0.94,0.07l-19.03-18.94l-21.96,0.07l-54.07-54.15l-11.04-10.78V433.1
		c2.31-1.18,3.9-3.59,3.9-6.36c0-3.95-3.2-7.15-7.15-7.15s-7.15,3.2-7.15,7.15c0,2.57,1.36,4.81,3.39,6.07v18.2L78.67,463.05z"/>
	<path class="st0" d="M253.96,581.2c0-3.95-3.2-7.15-7.15-7.15s-7.15,3.2-7.15,7.15c0,2.7,1.5,5.05,3.71,6.27v9.6
		c-2.21,1.22-3.71,3.57-3.71,6.27c0,3.95,3.2,7.15,7.15,7.15s7.15-3.2,7.15-7.15c0-2.53-1.32-4.75-3.31-6.02v-10.08
		C252.64,585.96,253.96,583.74,253.96,581.2z"/>
	<path class="st0" d="M110.52,729.67c-1.96,1.27-3.26,3.48-3.26,5.99c0,3.95,3.2,7.15,7.15,7.15c3.95,0,7.15-3.2,7.15-7.15
		c0-2.86-1.68-5.32-4.11-6.46v-13.04l23.07-23l-0.04-88.07l12.07-11.96l10-9.93v-26.04l-34.07-34.07l-44.94-44.94l-5.75-5.5
		c-0.26-3.71-3.34-6.64-7.12-6.64c-3.95,0-7.15,3.2-7.15,7.15s3.2,7.15,7.15,7.15c1.08,0,2.09-0.24,3.01-0.67l2.86,3.47l46,46
		l32.02,31.96l-0.04,18.11l-8.04,7.96l-13.96,14.07v88.74l-22,22.11V729.67z"/>
	<path class="st0" d="M70.37,485.96c-3.95,0-7.15,3.2-7.15,7.15s3.2,7.15,7.15,7.15c0.58,0,1.14-0.08,1.68-0.21l13.19,13.59
		c-0.09,0.44-0.13,0.9-0.13,1.36c0,3.95,3.2,7.15,7.15,7.15s7.15-3.2,7.15-7.15c0-3.95-3.2-7.15-7.15-7.15
		c-0.49,0-0.97,0.05-1.43,0.14L77.44,494.1c0.05-0.32,0.08-0.65,0.08-0.99C77.52,489.16,74.32,485.96,70.37,485.96z"/>
	<path class="st0" d="M114.26,551.92c-2.49,0-4.68,1.27-5.96,3.2H97.95c-1.31-1.72-3.36-2.83-5.69-2.83c-3.95,0-7.15,3.2-7.15,7.15
		s3.2,7.15,7.15,7.15c2.56,0,4.8-1.35,6.07-3.38h10.11c1.3,1.82,3.42,3.01,5.82,3.01c3.95,0,7.15-3.2,7.15-7.15
		S118.21,551.92,114.26,551.92z"/>
	<path class="st0" d="M129.33,581.41c0,3.95,3.2,7.15,7.15,7.15s7.15-3.2,7.15-7.15c0-2.45-1.23-4.61-3.11-5.9v-18.23l-1.89-2.15
		l-22.26-22.04l-21.93,0.15l-17.01-17.17c0.05-0.35,0.09-0.7,0.09-1.07c0-3.95-3.2-7.15-7.15-7.15s-7.15,3.2-7.15,7.15
		c0,3.95,3.2,7.15,7.15,7.15c0.5,0,0.98-0.05,1.45-0.15l18.89,19.17h21.81l19.07,18.89l0.89,1.04v14.39
		C130.58,576.77,129.33,578.94,129.33,581.41z"/>
	<path class="st0" d="M108.26,585.28c1.27,1.97,3.48,3.28,6,3.28c3.95,0,7.15-3.2,7.15-7.15s-3.2-7.15-7.15-7.15
		c-2.34,0-4.41,1.13-5.72,2.87H93.59l-20.04-19.89v-22.11l-13.04-12.98l-9.04-9.06l0.1-13.65c2.15-1.23,3.6-3.55,3.6-6.2
		c0-3.95-3.2-7.15-7.15-7.15s-7.15,3.2-7.15,7.15c0,2.7,1.5,5.05,3.7,6.26v16.63l11.04,11.96l10.89,10.78l0.04,22.22l24,24.19
		H108.26z"/>
	<path class="st0" d="M63.81,610.18c0,3.95,3.2,7.15,7.15,7.15s7.15-3.2,7.15-7.15c0-2.98-1.82-5.53-4.41-6.6v-16.34
		c2.29-1.19,3.85-3.58,3.85-6.34c0-3.95-3.2-7.15-7.15-7.15c-3.95,0-7.15,3.2-7.15,7.15c0,2.46,1.24,4.63,3.13,5.91l0.24,17.69
		C64.92,605.81,63.81,607.87,63.81,610.18z"/>
	<path class="st0" d="M121.5,625.2c0-3.95-3.2-7.15-7.15-7.15s-7.15,3.2-7.15,7.15c0,2.55,1.34,4.79,3.36,6.05l-0.04,54.27
		c-1.96,1.27-3.26,3.48-3.26,5.99c0,3.95,3.2,7.15,7.15,7.15s7.15-3.2,7.15-7.15c0-2.48-1.27-4.67-3.19-5.95l-0.11-54.39
		C120.21,629.91,121.5,627.71,121.5,625.2z"/>
	<path class="st0" d="M25.94,720.83c3.95,0,7.15-3.2,7.15-7.15c0-0.35-0.03-0.69-0.08-1.03l18.53-18.58V671.1L113,609.98
		c0.54,0.13,1.1,0.21,1.69,0.21c3.95,0,7.15-3.2,7.15-7.15s-3.2-7.15-7.15-7.15s-7.15,3.2-7.15,7.15c0,0.61,0.08,1.19,0.23,1.75
		l-63.39,63.28l0.06,22.22l-16.85,16.43c-0.52-0.12-1.07-0.19-1.63-0.19c-3.95,0-7.15,3.2-7.15,7.15S22,720.83,25.94,720.83z"/>
	<path class="st0" d="M99.43,713.41c0-3.95-3.2-7.15-7.15-7.15s-7.15,3.2-7.15,7.15c0,2.6,1.39,4.87,3.46,6.12v10.03
		c-2.07,1.25-3.46,3.52-3.46,6.12c0,3.95,3.2,7.15,7.15,7.15s7.15-3.2,7.15-7.15c0-2.79-1.61-5.21-3.94-6.38v-9.49
		C97.82,718.61,99.43,716.2,99.43,713.41z"/>
	<path class="st0" d="M49.46,706.62c-0.33-0.05-0.67-0.08-1.02-0.08c-3.95,0-7.15,3.2-7.15,7.15s3.2,7.15,7.15,7.15
		s7.15-3.2,7.15-7.15c0-0.8-0.14-1.57-0.38-2.28l18.41-18.3v-17.57c2.23-1.21,3.75-3.57,3.75-6.29c0-3.95-3.2-7.15-7.15-7.15
		s-7.15,3.2-7.15,7.15c0,2.59,1.38,4.85,3.44,6.1l0.05,13.87L49.46,706.62z"/>
	<path class="st0" d="M154.59,696.96v18.13l18.95,19.02c-0.11,0.5-0.17,1.02-0.17,1.55c0,3.95,3.2,7.15,7.15,7.15
		s7.15-3.2,7.15-7.15s-3.2-7.15-7.15-7.15c-0.37,0-0.73,0.04-1.09,0.09l-16.91-16.55l0.13-15.39c1.76-1.3,2.9-3.39,2.9-5.74
		c0-3.95-3.2-7.15-7.15-7.15c-3.95,0-7.15,3.2-7.15,7.15C151.26,693.47,152.59,695.7,154.59,696.96z"/>
	<path class="st0" d="M237.44,710.91c3.95,0,7.15-3.2,7.15-7.15s-3.2-7.15-7.15-7.15c-0.71,0-1.39,0.11-2.04,0.3l-3.72-3.57
		c0.15-0.58,0.24-1.19,0.24-1.82c0-3.95-3.2-7.15-7.15-7.15s-7.15,3.2-7.15,7.15s3.2,7.15,7.15,7.15c0.79,0,1.54-0.13,2.25-0.37
		l3.47,3.78c-0.13,0.54-0.21,1.1-0.21,1.68C230.3,707.71,233.5,710.91,237.44,710.91z"/>
	<path class="st0" d="M136.22,750.11c-3.95,0-7.15,3.2-7.15,7.15s3.2,7.15,7.15,7.15s7.15-3.2,7.15-7.15c0-0.26-0.01-0.51-0.04-0.76
		l13.51-13.87c0.5,0.11,1.03,0.18,1.57,0.18c3.95,0,7.15-3.2,7.15-7.15s-3.2-7.15-7.15-7.15c-3.95,0-7.15,3.2-7.15,7.15
		c0,0.48,0.05,0.94,0.14,1.4l-13.12,13.35C137.63,750.22,136.94,750.11,136.22,750.11z"/>
	<path class="st0" d="M136.22,786.78c3.95,0,7.15-3.2,7.15-7.15s-3.2-7.15-7.15-7.15s-7.15,3.2-7.15,7.15
		c0,0.58,0.08,1.15,0.21,1.69l-13.51,13.41c-0.44-0.09-0.9-0.13-1.37-0.13c-3.95,0-7.15,3.2-7.15,7.15s3.2,7.15,7.15,7.15
		c3.95,0,7.15-3.2,7.15-7.15c0-0.54-0.07-1.07-0.18-1.58l13.39-13.53C135.24,786.72,135.72,786.78,136.22,786.78z"/>
	<path class="st0" d="M158.41,831c2.78,0,5.19-1.6,6.37-3.92l17.7,0.1l18.39-18.51c0.55,0.14,1.13,0.22,1.73,0.22
		c3.95,0,7.15-3.2,7.15-7.15s-3.2-7.15-7.15-7.15s-7.15,3.2-7.15,7.15c0,0.45,0.05,0.89,0.13,1.32l-17.03,16.98h-14.09
		c-1.27-2.01-3.5-3.34-6.04-3.34c-3.95,0-7.15,3.2-7.15,7.15S154.46,831,158.41,831z"/>
	<path class="st0" d="M63.07,801.74c0,3.95,3.2,7.15,7.15,7.15s7.15-3.2,7.15-7.15c0-2.8-1.62-5.22-3.96-6.39v-31.7
		c2.35-1.17,3.96-3.59,3.96-6.39c0-3.95-3.2-7.15-7.15-7.15s-7.15,3.2-7.15,7.15c0,2.65,1.45,4.96,3.59,6.2v32.09
		C64.52,796.78,63.07,799.09,63.07,801.74z"/>
	<path class="st0" d="M48.44,816.7c-3.95,0-7.15,3.2-7.15,7.15s3.2,7.15,7.15,7.15c2.77,0,5.17-1.58,6.35-3.88h17.72l23.11-23
		v-35.68V755l-18.35-18.27c0.05-0.35,0.09-0.71,0.09-1.07c0-3.95-3.2-7.15-7.15-7.15s-7.15,3.2-7.15,7.15s3.2,7.15,7.15,7.15
		c0.72,0,1.41-0.11,2.06-0.31l16.31,16.66v8.96l-0.04,31.96l-19.96,20.04L54.46,820C53.19,818.02,50.97,816.7,48.44,816.7z"/>
	<path class="st0" d="M110.52,756.07v5.22v12.34c-1.96,1.27-3.26,3.48-3.26,5.99c0,3.95,3.2,7.15,7.15,7.15s7.15-3.2,7.15-7.15
		c0-2.74-1.54-5.11-3.8-6.31v-12.02l-0.11-1.5l22.87-22.78v-17.91c1.73-1.3,2.85-3.37,2.85-5.7c0-3.95-3.2-7.15-7.15-7.15
		s-7.15,3.2-7.15,7.15c0,2.57,1.37,4.82,3.41,6.08v14.69L110.52,756.07z"/>
	<path class="st0" d="M156.86,786.6c0.5,0.11,1.01,0.17,1.55,0.17c3.95,0,7.15-3.2,7.15-7.15s-3.2-7.15-7.15-7.15
		c-3.95,0-7.15,3.2-7.15,7.15c0,0.54,0.06,1.06,0.18,1.56l-19.01,18.94v17.67c-2.01,1.26-3.35,3.5-3.35,6.05
		c0,3.95,3.2,7.15,7.15,7.15s7.15-3.2,7.15-7.15c0-2.73-1.53-5.1-3.78-6.3v-13.36L156.86,786.6z"/>
	<path class="st0" d="M177.33,755.31v18.18c-2.27,1.2-3.81,3.58-3.81,6.32c0,3.95,3.2,7.15,7.15,7.15s7.15-3.2,7.15-7.15
		c0-2.5-1.29-4.7-3.23-5.97l-0.07-14.75l22.07-22.15v-17.61c1.9-1.28,3.15-3.46,3.15-5.92c0-3.95-3.2-7.15-7.15-7.15
		s-7.15,3.2-7.15,7.15c0,2.89,1.72,5.37,4.19,6.5v13.11L177.33,755.31z"/>
	<path class="st0" d="M178.67,797.98h-14.19c-1.26-2.03-3.5-3.39-6.07-3.39c-3.95,0-7.15,3.2-7.15,7.15s3.2,7.15,7.15,7.15
		c2.79,0,5.21-1.61,6.38-3.94h17.51l24.3-23.7v-18.06c1.9-1.28,3.15-3.46,3.15-5.92c0-3.95-3.2-7.15-7.15-7.15s-7.15,3.2-7.15,7.15
		c0,2.8,1.62,5.22,3.96,6.39v13.44L178.67,797.98z"/>
	<path class="st0" d="M22.46,807.16l0.06,17.88l24.05,24.11h21.95h3.93l22.11-22.03h18l21.93,22.03h17.5
		c1.16,2.39,3.6,4.04,6.43,4.04c3.95,0,7.15-3.2,7.15-7.15s-3.2-7.15-7.15-7.15c-2.48,0-4.66,1.26-5.94,3.18l-13.95,0.06
		l-22.04-22.07H90.52l-22,22.04l-18.96-0.04l-20.02-20.01l-0.07-14.89v-4.13l22.04-21.94l0.06-39.83l-0.01-4.15l44.01-44.03v-39.33
		c2.41-1.15,4.08-3.6,4.08-6.45c0-3.95-3.2-7.15-7.15-7.15c-3.95,0-7.15,3.2-7.15,7.15c0,2.5,1.28,4.69,3.22,5.97l-0.05,35.85
		l-44.01,44.96v7.18l-0.04,36.81l-22,22.01V807.16z"/>
	<path class="st0" d="M114.46,853.18c3.95,0,7.15-3.2,7.15-7.15s-3.2-7.15-7.15-7.15s-7.15,3.2-7.15,7.15
		c0,0.41,0.04,0.81,0.11,1.21l-13.83,13.83c-0.44-0.08-0.89-0.13-1.35-0.13c-3.95,0-7.15,3.2-7.15,7.15s3.2,7.15,7.15,7.15
		s7.15-3.2,7.15-7.15c0-0.61-0.08-1.19-0.23-1.75l13.44-13.41C113.2,853.09,113.82,853.18,114.46,853.18z"/>
	<path class="st0" d="M110.54,873.57v10.59c-1.94,1.28-3.22,3.47-3.22,5.97c0,3.95,3.2,7.15,7.15,7.15s7.15-3.2,7.15-7.15
		c0-2.46-1.24-4.62-3.13-5.91v-11.01c1.76-1.3,2.91-3.39,2.91-5.74c0-3.95-3.2-7.15-7.15-7.15s-7.15,3.2-7.15,7.15
		C107.09,870.05,108.47,872.31,110.54,873.57z"/>
	<path class="st0" d="M95.59,931.96v-44.83l-18.42-18.47c0.07-0.39,0.11-0.79,0.11-1.19c0-3.95-3.2-7.15-7.15-7.15
		s-7.15,3.2-7.15,7.15s3.2,7.15,7.15,7.15c0.71,0,1.39-0.11,2.03-0.3c4.06,4.21,16.32,16.82,16.32,16.82l0.11,40.83L71.67,949.2
		c-0.39-0.06-0.78-0.11-1.19-0.11c-3.95,0-7.15,3.2-7.15,7.15s3.2,7.15,7.15,7.15s7.15-3.2,7.15-7.15c0-0.7-0.1-1.37-0.29-2.01
		l18.26-18.15V931.96z"/>
	<path class="st0" d="M70.48,897.28c3.95,0,7.15-3.2,7.15-7.15s-3.2-7.15-7.15-7.15s-7.15,3.2-7.15,7.15c0,0.38,0.04,0.75,0.1,1.12
		l-13.45,13.7c-0.52-0.12-1.05-0.19-1.61-0.19c-3.95,0-7.15,3.2-7.15,7.15s3.2,7.15,7.15,7.15s7.15-3.2,7.15-7.15
		c0-0.59-0.08-1.16-0.21-1.71L68.55,897C69.16,897.18,69.81,897.28,70.48,897.28z"/>
	<path class="st0" d="M50.48,959.2l23.19-23.22V918.3c2.35-1.17,3.96-3.59,3.96-6.39c0-3.95-3.2-7.15-7.15-7.15s-7.15,3.2-7.15,7.15
		c0,2.49,1.27,4.68,3.2,5.96v14.1l-20.22,20.28l-14.3-0.15c-1.3-1.81-3.41-3-5.82-3c-3.95,0-7.15,3.2-7.15,7.15s3.2,7.15,7.15,7.15
		c2.89,0,5.37-1.72,6.5-4.19H50.48z"/>
	<path class="st0" d="M206.59,827.46v-2.33l22-22.07v-4.41v-86.48l-24.15-24.07h-17.65c-1.21-2.22-3.57-3.72-6.27-3.72
		c-3.95,0-7.15,3.2-7.15,7.15s3.2,7.15,7.15,7.15c2.64,0,4.95-1.44,6.18-3.57h13.86l20.92,20.85v82.7l0.04,0.48l-22,21.96v6.37
		v37.56l-22.98,23.17v25.83l23.06,22.17v17.94l-16.7,16.6c-0.59-0.16-1.21-0.25-1.85-0.25c-3.95,0-7.15,3.2-7.15,7.15
		s3.2,7.15,7.15,7.15s7.15-3.2,7.15-7.15c0-0.7-0.11-1.38-0.29-2.01l18.55-18.49v-25.11l-21.85-21.94l-0.06-18.94l21.91-21.96
		L206.59,827.46z"/>
	<path class="st0" d="M158.26,896.94c3.95,0,7.15-3.2,7.15-7.15s-3.2-7.15-7.15-7.15s-7.15,3.2-7.15,7.15
		c0,0.54,0.07,1.06,0.18,1.57l-13.37,13.47c-0.4-0.07-0.81-0.11-1.22-0.11c-3.95,0-7.15,3.2-7.15,7.15s3.2,7.15,7.15,7.15
		s7.15-3.2,7.15-7.15c0-0.67-0.1-1.32-0.27-1.94l13.18-13.15C157.24,896.89,157.74,896.94,158.26,896.94z"/>
	<path class="st0" d="M114.46,919.02c0.66,0,1.3-0.1,1.91-0.27l40.33,40.45l17.55-0.25c1.14,2.43,3.6,4.12,6.47,4.12
		c3.95,0,7.15-3.2,7.15-7.15s-3.2-7.15-7.15-7.15c-2.51,0-4.71,1.29-5.98,3.24l-14.26,0.28l-38.98-39.23
		c0.07-0.39,0.11-0.79,0.11-1.2c0-3.95-3.2-7.15-7.15-7.15s-7.15,3.2-7.15,7.15S110.52,919.02,114.46,919.02z"/>
	<path class="st0" d="M158.57,941.13c2.85,0,5.3-1.67,6.45-4.07h9.4c1.2,2.25,3.57,3.78,6.3,3.78c3.95,0,7.15-3.2,7.15-7.15
		s-3.2-7.15-7.15-7.15c-2.59,0-4.85,1.38-6.11,3.44H164.5c-1.28-1.9-3.46-3.15-5.92-3.15c-3.95,0-7.15,3.2-7.15,7.15
		S154.63,941.13,158.57,941.13z"/>
	<path class="st0" d="M156.56,864.05l-18.54,18.79c-0.53-0.13-1.08-0.2-1.65-0.2c-3.95,0-7.15,3.2-7.15,7.15s3.2,7.15,7.15,7.15
		s7.15-3.2,7.15-7.15c0-0.51-0.06-1.01-0.16-1.5l17.21-17.24l13.86,0.06c1.14,2.43,3.6,4.12,6.47,4.12c3.95,0,7.15-3.2,7.15-7.15
		s-3.2-7.15-7.15-7.15c-2.45,0-4.61,1.23-5.9,3.11H156.56z"/>
	<path class="st0" d="M246.89,831c3.95,0,7.15-3.2,7.15-7.15s-3.2-7.15-7.15-7.15s-7.15,3.2-7.15,7.15c0,0.37,0.04,0.74,0.09,1.1
		l-14.01,14.06c-0.41-0.07-0.83-0.12-1.27-0.12c-3.95,0-7.15,3.2-7.15,7.15s3.2,7.15,7.15,7.15s7.15-3.2,7.15-7.15
		c0-0.6-0.08-1.18-0.22-1.73l13.48-13.57C245.58,830.9,246.22,831,246.89,831z"/>
	<path class="st0" d="M224.7,896.94c3.95,0,7.15-3.2,7.15-7.15s-3.2-7.15-7.15-7.15c-2.56,0-4.8,1.35-6.06,3.37h-10.13
		c-1.29-1.86-3.44-3.07-5.87-3.07c-3.95,0-7.15,3.2-7.15,7.15s3.2,7.15,7.15,7.15c2.85,0,5.3-1.67,6.45-4.08h9.3
		C219.6,895.41,221.97,896.94,224.7,896.94z"/>
	<path class="st0" d="M266.87,849.13L266.87,849.13l20.72,21.06v18l-16.97,16.86c-0.57-0.15-1.16-0.23-1.77-0.23
		c-3.95,0-7.15,3.2-7.15,7.15s3.2,7.15,7.15,7.15s7.15-3.2,7.15-7.15c0-0.73-0.11-1.43-0.31-2.09l18.96-18.75v-24.94l-17.11-17.06
		l-7-7.17h-25.06l-18.9,19.28c-0.64-0.19-1.32-0.3-2.02-0.3c-3.95,0-7.15,3.2-7.15,7.15s3.2,7.15,7.15,7.15s7.15-3.2,7.15-7.15
		c0-0.66-0.1-1.3-0.27-1.91l17.16-17.1L266.87,849.13z"/>
	<path class="st0" d="M261.83,978.11c0,3.95,3.2,7.15,7.15,7.15s7.15-3.2,7.15-7.15c0-2.65-1.45-4.96-3.59-6.2v-14.01v-4
		l-22.17-21.89l0.22-19.39l-0.06-21.5l16.25-16.2c0.65,0.2,1.35,0.31,2.07,0.31c3.95,0,7.15-3.2,7.15-7.15s-3.2-7.15-7.15-7.15
		s-7.15,3.2-7.15,7.15c0,0.5,0.05,0.99,0.15,1.46l-18.32,18.63v24.44l-0.06,23.56l21.94,21.72l0.05,13.98
		C263.3,973.11,261.83,975.44,261.83,978.11z"/>
	<path class="st0" d="M272.54,1002.05v-3.91l-22.02-22.06l0.04-17.96v-3.85l-22.04-22.26v-13.86c2.14-1.23,3.59-3.54,3.59-6.2
		c0-3.95-3.2-7.15-7.15-7.15s-7.15,3.2-7.15,7.15c0,2.65,1.45,4.96,3.59,6.2v18.03l22.07,21.94v21.96l22.02,21.96l0.04,17.96
		l-43.17,43.17l-17.56-0.17l-42.17-41.83l-0.22-45.28l-40.94-40.6c0.08-0.43,0.13-0.87,0.13-1.33c0-3.95-3.2-7.15-7.15-7.15
		s-7.15,3.2-7.15,7.15s3.2,7.15,7.15,7.15c0.64,0,1.27-0.09,1.86-0.25l38.21,38.2v43.89l46.06,46.28h26.74l45.2-45.28V1002.05z"/>
	<path class="st0" d="M232.11,955.92c0-3.95-3.2-7.15-7.15-7.15s-7.15,3.2-7.15,7.15c0,2.65,1.45,4.96,3.59,6.2v17.97l18.14,18.21
		c-0.09,0.46-0.14,0.94-0.14,1.44c0,3.95,3.2,7.15,7.15,7.15s7.15-3.2,7.15-7.15s-3.2-7.15-7.15-7.15c-0.46,0-0.91,0.05-1.35,0.13
		l-16.65-16.59V962.1C230.68,960.86,232.11,958.56,232.11,955.92z"/>
	<path class="st0" d="M246.56,1029.72c3.95,0,7.15-3.2,7.15-7.15c0-3.95-3.2-7.15-7.15-7.15c-0.21,0-0.43,0.01-0.64,0.03
		l-35.97-35.89c0.1-0.47,0.15-0.95,0.15-1.45c0-3.95-3.2-7.15-7.15-7.15s-7.15,3.2-7.15,7.15s3.2,7.15,7.15,7.15
		c0.52,0,1.03-0.06,1.53-0.17l35.47,34.76c-0.35,0.84-0.54,1.76-0.54,2.72C239.41,1026.52,242.61,1029.72,246.56,1029.72z"/>
	<path class="st0" d="M217.81,1044.2c0,3.95,3.2,7.15,7.15,7.15s7.15-3.2,7.15-7.15c0-2.64-1.43-4.93-3.56-6.17v-17.83l-18.74-18.46
		c0.19-0.64,0.29-1.31,0.29-2c0-3.95-3.2-7.15-7.15-7.15s-7.15,3.2-7.15,7.15s3.2,7.15,7.15,7.15c0.44,0,0.87-0.05,1.29-0.12
		l17.31,17.47l-0.03,13.7C219.31,1039.15,217.81,1041.5,217.81,1044.2z"/>
	<path class="st0" d="M181.04,1029.13c2.35,0,4.43-1.14,5.73-2.89h10.45c1.3,1.75,3.38,2.89,5.73,2.89c3.95,0,7.15-3.2,7.15-7.15
		c0-3.95-3.2-7.15-7.15-7.15c-2.5,0-4.69,1.28-5.97,3.22h-9.98c-1.28-1.94-3.47-3.22-5.97-3.22c-3.95,0-7.15,3.2-7.15,7.15
		C173.89,1025.93,177.09,1029.13,181.04,1029.13z"/>
	<path class="st0" d="M327.81,912.18c0,3.95,3.2,7.15,7.15,7.15s7.15-3.2,7.15-7.15c0-2.64-1.44-4.95-3.57-6.18v-17.87l-40.68-41.01
		c1.06-1.25,1.7-2.86,1.7-4.62c0-3.95-3.2-7.15-7.15-7.15s-7.15,3.2-7.15,7.15c0,2.93,1.76,5.44,4.28,6.54l42.02,42.86v13.99
		C329.33,907.11,327.81,909.47,327.81,912.18z"/>
	<path class="st0" d="M290.81,919.33c3.95,0,7.15-3.2,7.15-7.15s-3.2-7.15-7.15-7.15s-7.15,3.2-7.15,7.15
		c0,0.49,0.05,0.97,0.14,1.43l-13.13,13.29c-0.59-0.16-1.2-0.25-1.83-0.25c-3.95,0-7.15,3.2-7.15,7.15s3.2,7.15,7.15,7.15
		s7.15-3.2,7.15-7.15c0-0.75-0.12-1.47-0.33-2.14L288.66,919C289.34,919.21,290.06,919.33,290.81,919.33z"/>
	<path class="st0" d="M316.65,895.87c2.03-1.26,3.39-3.5,3.39-6.07c0-3.95-3.2-7.15-7.15-7.15s-7.15,3.2-7.15,7.15
		c0,2.72,1.52,5.08,3.75,6.29l0.1,14.04l-16.77,16.83c-0.64-0.19-1.31-0.29-2-0.29c-3.95,0-7.15,3.2-7.15,7.15s3.2,7.15,7.15,7.15
		s7.15-3.2,7.15-7.15c0-0.64-0.09-1.25-0.25-1.84l18.93-18.9V895.87z"/>
	<path class="st0" d="M114.46,992.89c-2.47,0-4.65,1.25-5.93,3.16c-2.58,0-7.94,0-10.25,0c-1.28-1.9-3.46-3.16-5.93-3.16
		c-3.95,0-7.15,3.2-7.15,7.15s3.2,7.15,7.15,7.15c2.78,0,5.19-1.59,6.37-3.92h9.37c1.18,2.32,3.59,3.92,6.37,3.92
		c3.95,0,7.15-3.2,7.15-7.15S118.41,992.89,114.46,992.89z"/>
	<path class="st0" d="M114.46,1015.05c-2.4,0-4.51,1.18-5.81,2.99h-10.5c-1.3-1.81-3.41-2.99-5.81-2.99c-3.95,0-7.15,3.2-7.15,7.15
		s3.2,7.15,7.15,7.15c2.86,0,5.32-1.68,6.46-4.11H108c1.14,2.43,3.6,4.11,6.46,4.11c3.95,0,7.15-3.2,7.15-7.15
		S118.41,1015.05,114.46,1015.05z"/>
	<path class="st0" d="M114.46,1059.13c-2.83,0-5.26,1.65-6.42,4.03h-9.12c-1.1-2.54-3.62-4.32-6.57-4.32c-3.95,0-7.15,3.2-7.15,7.15
		c0,3.95,3.2,7.15,7.15,7.15c2.45,0,4.61-1.23,5.9-3.11h10.13c1.26,2.04,3.51,3.41,6.08,3.41c3.95,0,7.15-3.2,7.15-7.15
		C121.61,1062.33,118.41,1059.13,114.46,1059.13z"/>
	<path class="st0" d="M160.48,1063.13l-17.16-17.23c0.13-0.55,0.21-1.11,0.21-1.7c0-3.95-3.2-7.15-7.15-7.15s-7.15,3.2-7.15,7.15
		c0,3.95,3.2,7.15,7.15,7.15c0.83,0,1.62-0.15,2.36-0.41l18.73,19.26h22.19l1.95,1.93l10.04-0.03l-9.19-8.94L160.48,1063.13z"/>
	<path class="st0" d="M93.52,1040.17l-19.98-20.04l0.06-11.07v-7.04l20.78-20.86l13.66-0.18c1.16,2.39,3.6,4.04,6.43,4.04
		c3.95,0,7.15-3.2,7.15-7.15s-3.2-7.15-7.15-7.15c-2.59,0-4.85,1.38-6.11,3.44H90.52l-24,24v10.89v15l24.07,24.19h22l23.96,23.86
		h10.82l-31.89-32.03L93.52,1040.17z"/>
	<path class="st0" d="M51.54,1001.96l42-41.89l20.17,0.11l18.78,18.89v44.02l19.05,18.98c-0.21,0.67-0.32,1.39-0.32,2.14
		c0,3.95,3.2,7.15,7.15,7.15s7.15-3.2,7.15-7.15c0-3.95-3.2-7.15-7.15-7.15c-0.49,0-0.97,0.05-1.44,0.15l-17.36-17.07l-0.04-43.96
		l-23.15-24.04H90.59l-46.17,45.94v3.89l0.06,43.91l26.26,26.26l10.74-0.03l-29.94-30.03V1001.96z"/>
	<path class="st0" d="M379.19,853.18c0.76,0,1.49-0.12,2.17-0.34l16.15,16.34l-0.03,21.89l22.03,22.06v14.47
		c-2.05,1.26-3.42,3.51-3.42,6.09c0,3.95,3.2,7.15,7.15,7.15s7.15-3.2,7.15-7.15c0-2.76-1.56-5.15-3.85-6.34v-17.3l-22.03-22
		l-0.03-22.92l-18.23-18.07c0.05-0.33,0.08-0.67,0.08-1.02c0-3.95-3.2-7.15-7.15-7.15s-7.15,3.2-7.15,7.15
		S375.24,853.18,379.19,853.18z"/>
	<path class="st0" d="M401.19,852.89c0.74,0,1.46-0.11,2.13-0.32l13.05,13.39c-0.17,0.61-0.27,1.25-0.27,1.91
		c0,3.95,3.2,7.15,7.15,7.15s7.15-3.2,7.15-7.15s-3.2-7.15-7.15-7.15c-0.42,0-0.84,0.04-1.24,0.11l-13.78-13.88
		c0.07-0.39,0.11-0.8,0.11-1.21c0-3.95-3.2-7.15-7.15-7.15s-7.15,3.2-7.15,7.15S397.24,852.89,401.19,852.89z"/>
	<path class="st0" d="M375.56,873.52v17.57l18.98,19.05c-0.19,0.65-0.3,1.33-0.3,2.04c0,3.95,3.2,7.15,7.15,7.15s7.15-3.2,7.15-7.15
		s-3.2-7.15-7.15-7.15c-0.49,0-0.97,0.05-1.43,0.14l-17.48-17.05v-14.42c2.29-1.19,3.85-3.58,3.85-6.34c0-3.95-3.2-7.15-7.15-7.15
		s-7.15,3.2-7.15,7.15C372.04,869.99,373.45,872.27,375.56,873.52z"/>
	<path class="st0" d="M424.84,882.85c-0.52-0.12-1.05-0.19-1.6-0.19c-3.95,0-7.15,3.2-7.15,7.15s3.2,7.15,7.15,7.15
		s7.15-3.2,7.15-7.15c0-0.47-0.05-0.92-0.13-1.36l35.24-35.43c0.49,0.11,1,0.17,1.53,0.17c3.95,0,7.15-3.2,7.15-7.15
		s-3.2-7.15-7.15-7.15s-7.15,3.2-7.15,7.15c0,0.6,0.08,1.18,0.22,1.74L424.84,882.85z"/>
	<path class="st0" d="M438.75,959.21c1.13,2.46,3.61,4.18,6.49,4.18c3.95,0,7.15-3.2,7.15-7.15s-3.2-7.15-7.15-7.15
		c-2.4,0-4.52,1.19-5.82,3l-14.87,0.05l-64.05-63.99l-0.03-23.03l-7-1.97l-0.08,28.92l67.14,67.14H438.75z"/>
	<path class="st0" d="M489.54,896.96c0.58,0,1.15-0.08,1.69-0.21l16.42,16.27l0.26,14.78c-1.98,1.27-3.29,3.49-3.29,6.01
		c0,3.95,3.2,7.15,7.15,7.15s7.15-3.2,7.15-7.15c0-2.98-1.83-5.54-4.43-6.61v-18.19l-17.99-17.57c0.12-0.53,0.2-1.07,0.2-1.64
		c0-3.95-3.2-7.15-7.15-7.15s-7.15,3.2-7.15,7.15S485.59,896.96,489.54,896.96z"/>
	<path class="st0" d="M426.48,1015.68v-13.67l44.07-43.91l0.04-16.76v-9.11l-18.44-18.49c0.15-0.57,0.23-1.17,0.23-1.79
		c0-3.95-3.2-7.15-7.15-7.15s-7.15,3.2-7.15,7.15s3.2,7.15,7.15,7.15c0.68,0,1.33-0.1,1.95-0.28l16.32,16.29l-0.03,6.22l0.08,12.81
		l-43.97,43.97v17.56l-0.09,8.43l22.04,22.07v18l-7.67,7.92h10.61l4.06-3.92v-26.17l-22.04-21.89L426.48,1015.68z"/>
	<path class="st0" d="M401.39,963.39c3.95,0,7.15-3.2,7.15-7.15s-3.2-7.15-7.15-7.15c-0.49,0-0.98,0.05-1.44,0.15l-19.5-19.11
		l-64.81-0.04h-4.19l-24,24.07v17.64c-2.25,1.2-3.78,3.57-3.78,6.3c0,3.95,3.2,7.15,7.15,7.15s7.15-3.2,7.15-7.15
		c0-2.66-1.46-4.98-3.61-6.21l0.17-14l21.11-20.85l1.84,0.06l59.34,0.01l17.55,17.83c-0.08,0.42-0.12,0.84-0.12,1.28
		C394.24,960.19,397.44,963.39,401.39,963.39z"/>
	<path class="st0" d="M379.33,970.96c-2.49,0-4.68,1.27-5.96,3.2h-10.75c-1.28-1.93-3.47-3.2-5.96-3.2c-3.95,0-7.15,3.2-7.15,7.15
		s3.2,7.15,7.15,7.15c2.88,0,5.36-1.71,6.49-4.17h9.69c1.13,2.46,3.61,4.17,6.49,4.17c3.95,0,7.15-3.2,7.15-7.15
		S383.28,970.96,379.33,970.96z"/>
	<path class="st0" d="M364.26,1000.32c0-3.95-3.2-7.15-7.15-7.15s-7.15,3.2-7.15,7.15c0,2.63,1.43,4.93,3.55,6.17v9.03
		c-2.12,1.24-3.55,3.53-3.55,6.17c0,3.95,3.2,7.15,7.15,7.15s7.15-3.2,7.15-7.15c0-2.69-1.49-5.04-3.69-6.26v-8.85
		C362.77,1005.36,364.26,1003.02,364.26,1000.32z"/>
	<path class="st0" d="M386.48,1000.32c0-3.95-3.2-7.15-7.15-7.15s-7.15,3.2-7.15,7.15c0,2.56,1.35,4.8,3.37,6.06v9.24
		c-2.02,1.26-3.37,3.5-3.37,6.06c0,3.95,3.2,7.15,7.15,7.15s7.15-3.2,7.15-7.15c0-2.77-1.58-5.17-3.89-6.36v-8.65
		C384.9,1005.49,386.48,1003.1,386.48,1000.32z"/>
	<path class="st0" d="M353.56,1046.11l0.95,1.05h27.03l18.35-18.48c0.48,0.1,0.99,0.16,1.5,0.16c3.95,0,7.15-3.2,7.15-7.15
		c0-3.95-3.2-7.15-7.15-7.15s-7.15,3.2-7.15,7.15c0,0.54,0.06,1.06,0.18,1.56l-16.9,16.88l-18.98-0.02l-20.03-20.04l-0.03-35.75
		c2.17-1.23,3.63-3.55,3.63-6.22c0-3.95-3.2-7.15-7.15-7.15s-7.15,3.2-7.15,7.15c0,2.67,1.47,5,3.64,6.22v39.71L353.56,1046.11z"/>
	<path class="st0" d="M294.54,1002.05l15.94-15.87l26.11-26.06l40.93,0.04l20.13,19.8l0.05,14.25c-2.07,1.25-3.46,3.52-3.46,6.12
		c0,3.95,3.2,7.15,7.15,7.15s7.15-3.2,7.15-7.15c0-2.82-1.63-5.25-4-6.41v-17.73l-24.09-24.17h-46.93l-28,28.22
		c-0.34,0.31-0.68,0.63-1.02,0.94c-5.67,5.65-11.35,11.3-17.02,16.94v21.15l0.03,0.88l-52,51.94h10.94l48.03-47.97L294.54,1002.05z"
		/>
	<path class="st0" d="M291.04,1058.8c-3.95,0-7.15,3.2-7.15,7.15c0,0.62,0.09,1.21,0.23,1.78l-5.5,5.12h10.57
		c0.59,0.16,1.21,0.25,1.85,0.25c3.95,0,7.15-3.2,7.15-7.15C298.19,1062,294.98,1058.8,291.04,1058.8z"/>
	<path class="st0" d="M313.11,1058.8c-3.95,0-7.15,3.2-7.15,7.15c0,0.53,0.06,1.05,0.17,1.55l-4.71,4.62l8.06-0.03
		c1.06,0.63,2.3,1,3.63,1c3.95,0,7.15-3.2,7.15-7.15C320.26,1062,317.06,1058.8,313.11,1058.8z"/>
	<path class="st0" d="M289.67,1050.87c0.33,0.05,0.66,0.08,1,0.08c3.95,0,7.15-3.2,7.15-7.15c0-3.95-3.2-7.15-7.15-7.15
		s-7.15,3.2-7.15,7.15c0,0.66,0.1,1.29,0.26,1.9l-13.49,13.65c-0.51-0.12-1.04-0.18-1.59-0.18c-3.95,0-7.15,3.2-7.15,7.15
		c0,3.95,3.2,7.15,7.15,7.15s7.15-3.2,7.15-7.15c0-0.55-0.07-1.08-0.19-1.6L289.67,1050.87z"/>
	<path class="st0" d="M316.49,1028.36c2.17-1.23,3.63-3.55,3.63-6.22c0-3.95-3.2-7.15-7.15-7.15s-7.15,3.2-7.15,7.15
		c0,2.7,1.49,5.04,3.7,6.26v17.72l26.02,25.97h10.8l-29.78-29.9L316.49,1028.36z"/>
	<path class="st0" d="M423.31,1036.74c-2.53,0-4.75,1.32-6.02,3.31h-17.88l-22.81,23.04h-17.15l-17.46-17.46
		c0.11-0.49,0.17-1,0.17-1.53c0-3.95-3.2-7.15-7.15-7.15s-7.15,3.2-7.15,7.15c0,3.95,3.2,7.15,7.15,7.15c0.62,0,1.22-0.09,1.79-0.24
		l18.76,19.08c8.35-0.01,16.69-0.02,25.04-0.04l22.89-22.9h13.48c1.19,2.3,3.58,3.88,6.35,3.88c3.95,0,7.15-3.2,7.15-7.15
		C430.46,1039.94,427.26,1036.74,423.31,1036.74z"/>
	<path class="st0" d="M423.31,1059c-2.85,0-5.31,1.67-6.45,4.09h-9.02c-1.15-2.41-3.6-4.09-6.45-4.09c-3.95,0-7.15,3.2-7.15,7.15
		c0,3.95,3.2,7.15,7.15,7.15c2.9,0,5.39-1.73,6.51-4.21h8.9c1.12,2.48,3.61,4.21,6.51,4.21c3.95,0,7.15-3.2,7.15-7.15
		C430.46,1062.2,427.26,1059,423.31,1059z"/>
	<path class="st0" d="M474.63,1000.02c0-0.63-0.09-1.25-0.25-1.83l12.84-12.91c0.73,0.25,1.5,0.39,2.31,0.39
		c3.95,0,7.15-3.2,7.15-7.15s-3.2-7.15-7.15-7.15s-7.15,3.2-7.15,7.15c0,0.23,0.01,0.45,0.03,0.67l-13.81,13.78
		c-0.37-0.06-0.74-0.1-1.13-0.1c-3.95,0-7.15,3.2-7.15,7.15s3.2,7.15,7.15,7.15S474.63,1003.96,474.63,1000.02z"/>
	<path class="st0" d="M448.54,1016.05v-13.92l43.11-43.17h13.5c1.07,2.6,3.63,4.43,6.61,4.43c3.95,0,7.15-3.2,7.15-7.15
		s-3.2-7.15-7.15-7.15c-2.37,0-4.46,1.15-5.76,2.93h-18.19l-46.39,46.08v18.09c-2.08,1.25-3.48,3.52-3.48,6.13
		c0,3.95,3.2,7.15,7.15,7.15s7.15-3.2,7.15-7.15C452.24,1019.61,450.74,1017.27,448.54,1016.05z"/>
	<path class="st0" d="M533.61,970.79c-3.95,0-7.15,3.2-7.15,7.15c0,2.46,1.24,4.62,3.13,5.91v9.98c-2.13,1.24-3.57,3.54-3.57,6.18
		c0,3.95,3.2,7.15,7.15,7.15s7.15-3.2,7.15-7.15c0-2.36-1.15-4.44-2.91-5.74v-10.28c2.01-1.26,3.35-3.5,3.35-6.05
		C540.76,974,537.56,970.79,533.61,970.79z"/>
	<path class="st0" d="M511.67,1015.17c-2.41,0-4.55,1.2-5.84,3.03c-2.41-0.01-7.92-0.02-10.46-0.01c-1.29-1.83-3.42-3.02-5.83-3.02
		c-3.95,0-7.15,3.2-7.15,7.15c0,3.95,3.2,7.15,7.15,7.15c2.93,0,5.44-1.76,6.55-4.28l8.99-0.1c1.08,2.58,3.63,4.39,6.59,4.39
		c3.95,0,7.15-3.2,7.15-7.15C518.81,1018.37,515.61,1015.17,511.67,1015.17z"/>
	<path class="st0" d="M511.67,1037.16c-2.4,0-4.53,1.19-5.82,3.01h-10.22c-1.26-2.05-3.51-3.42-6.09-3.42
		c-3.95,0-7.15,3.2-7.15,7.15c0,3.95,3.2,7.15,7.15,7.15c2.78,0,5.19-1.59,6.37-3.91h9.2c1.1,2.54,3.62,4.32,6.57,4.32
		c3.95,0,7.15-3.2,7.15-7.15C518.81,1040.36,515.61,1037.16,511.67,1037.16z"/>
	<path class="st0" d="M537.41,1060.1v-39.9l-18.71-18.61c0.07-0.41,0.12-0.84,0.12-1.27c0-3.95-3.2-7.15-7.15-7.15
		s-7.15,3.2-7.15,7.15s3.2,7.15,7.15,7.15c0.78,0,1.54-0.13,2.24-0.36l15.57,16.05l0.07,37.11c-1.87,1.29-3.09,3.44-3.09,5.88
		c0,3.95,3.2,7.15,7.15,7.15s7.15-3.2,7.15-7.15C540.76,1063.6,539.42,1061.37,537.41,1060.1z"/>
	<path class="st0" d="M470.59,1024.05l66.94-66.95v-29.09c1.69-1.31,2.78-3.35,2.78-5.65c0-3.95-3.2-7.15-7.15-7.15
		s-7.15,3.2-7.15,7.15c0,2.6,1.39,4.86,3.46,6.12v25.5l-65.92,66.18v25.94l0.21,0.41l26.2,25.63l10.57-0.03l-29.92-30.05
		L470.59,1024.05z"/>
	<path class="st0" d="M601.31,986.38c0-3.95-3.2-7.15-7.15-7.15s-7.15,3.2-7.15,7.15c0,2.57,1.37,4.82,3.41,6.08v32.28
		c-2.04,1.26-3.41,3.51-3.41,6.08c0,3.95,3.2,7.15,7.15,7.15s7.15-3.2,7.15-7.15c0-2.64-1.43-4.93-3.56-6.17v-32.1
		C599.88,991.31,601.31,989.01,601.31,986.38z"/>
	<path class="st0" d="M553.54,1049.96l-0.06-17.78l22.03-22.06l0.03-44.03l8.45-8.65c0.66,0.2,1.35,0.31,2.07,0.31
		c3.95,0,7.15-3.2,7.15-7.15s-3.2-7.15-7.15-7.15s-7.15,3.2-7.15,7.15c0,0.61,0.08,1.2,0.23,1.76l-10.71,10.84v43.81l-0.94,1.11
		l-21,21.03v24.94l18.13,18.03h9.91c-6.99-7.04-13.98-14.08-20.97-21.12C553.55,1050.66,553.54,1050.31,553.54,1049.96z"/>
	<path class="st0" d="M596.44,1056.24l23.11-23.04l-0.02-31.99v-17.19l-18.29-18.18c0.04-0.31,0.07-0.61,0.07-0.93
		c0-3.95-3.2-7.15-7.15-7.15s-7.15,3.2-7.15,7.15s3.2,7.15,7.15,7.15c0.75,0,1.47-0.12,2.15-0.33l16.22,16.46v13.03l0.02,1.03
		l-0.04,26.81l-20.11,20.04h-14.83c-1.3-1.81-3.41-3-5.81-3c-3.95,0-7.15,3.2-7.15,7.15c0,3.95,3.2,7.15,7.15,7.15
		c2.87,0,5.35-1.7,6.48-4.15C583.36,1056.24,596.44,1056.24,596.44,1056.24z"/>
	<path class="st0" d="M634.59,997.15v5.72c-1.95,1.28-3.24,3.48-3.24,5.98c0,3.95,3.2,7.15,7.15,7.15s7.15-3.2,7.15-7.15
		c0-2.79-1.6-5.2-3.93-6.38l-0.08-6.54c1.57-1.31,2.57-3.28,2.57-5.49c0-3.95-3.2-7.15-7.15-7.15s-7.15,3.2-7.15,7.15
		C629.91,993.52,631.86,996.14,634.59,997.15z"/>
	<path class="st0" d="M660.83,1016c3.95,0,7.15-3.2,7.15-7.15s-3.2-7.15-7.15-7.15s-7.15,3.2-7.15,7.15c0,0.41,0.04,0.82,0.11,1.21
		l-13.73,13.53c-0.5-0.11-1.03-0.18-1.56-0.18c-3.95,0-7.15,3.2-7.15,7.15c0,3.95,3.2,7.15,7.15,7.15s7.15-3.2,7.15-7.15
		c0-0.54-0.06-1.06-0.18-1.57l13.3-13.3C659.42,1015.89,660.12,1016,660.83,1016z"/>
	<path class="st0" d="M663.49,1046.25l0.07-14.08l17.19-16.36c0.53,0.12,1.08,0.2,1.64,0.2c3.95,0,7.15-3.2,7.15-7.15
		s-3.2-7.15-7.15-7.15s-7.15,3.2-7.15,7.15c0,0.6,0.08,1.18,0.22,1.74l-19.13,18.61v17.47c-1.93,1.28-3.2,3.47-3.2,5.96
		c0,3.95,3.2,7.15,7.15,7.15s7.15-3.2,7.15-7.15C667.43,1049.84,665.82,1047.42,663.49,1046.25z"/>
	<polygon class="st0" points="614.54,1049.13 591.37,1072.13 602.54,1072.13 618.54,1056.07 636.43,1056.07 652.56,1072.13
		663.37,1072.13 640.54,1049.13 	"/>

		<ellipse transform="matrix(0.3827 -0.9239 0.9239 0.3827 -598.3112 1253.0421)" class="st0" cx="638.5" cy="1074.24" rx="7.15" ry="7.15"/>
	<circle class="st0" cx="682.39" cy="1074.98" r="7.15"/>
	<path class="st0" d="M660.28,993.53c3.95,0,7.15-3.2,7.15-7.15c0-0.38-0.04-0.75-0.09-1.11l13.61-13.36
		c0.47,0.1,0.95,0.15,1.45,0.15c3.95,0,7.15-3.2,7.15-7.15s-3.2-7.15-7.15-7.15s-7.15,3.2-7.15,7.15c0,0.47,0.05,0.93,0.14,1.38
		l-13.47,13.14c-0.53-0.12-1.07-0.19-1.63-0.19c-3.95,0-7.15,3.2-7.15,7.15S656.33,993.53,660.28,993.53z"/>
	<path class="st0" d="M726.57,1037.71c3.95,0,7.15-3.2,7.15-7.15c0-3.95-3.2-7.15-7.15-7.15s-7.15,3.2-7.15,7.15
		c0,0.55,0.07,1.08,0.19,1.6l-17.13,16.97h-13.86c-1.23-2.18-3.55-3.65-6.23-3.65c-3.95,0-7.15,3.2-7.15,7.15
		c0,3.95,3.2,7.15,7.15,7.15c2.79,0,5.2-1.6,6.37-3.93h17.77l18.55-18.3C725.56,1037.65,726.06,1037.71,726.57,1037.71z"/>
	<path class="st0" d="M771.06,1045.48c-3.95,0-7.15,3.2-7.15,7.15c0,0.26,0.02,0.52,0.04,0.77l-14.07,14.5
		c-0.29-0.04-0.59-0.06-0.9-0.06c-3.95,0-7.15,3.2-7.15,7.15c0,3.95,3.2,7.15,7.15,7.15s7.15-3.2,7.15-7.15
		c0-0.79-0.13-1.54-0.37-2.25l13.21-13.27c0.66,0.2,1.36,0.31,2.09,0.31c3.95,0,7.15-3.2,7.15-7.15
		C778.2,1048.68,775,1045.48,771.06,1045.48z"/>
	<path class="st0" d="M702.65,1027.07h-14.02c-1.22-2.18-3.56-3.66-6.24-3.66c-3.95,0-7.15,3.2-7.15,7.15c0,3.95,3.2,7.15,7.15,7.15
		c2.65,0,4.95-1.44,6.19-3.58h17.91l24-24.28v-17.49c1.95-1.28,3.24-3.48,3.24-5.98c0-3.95-3.2-7.15-7.15-7.15s-7.15,3.2-7.15,7.15
		c0,2.88,1.71,5.36,4.17,6.49v13.37L702.65,1027.07z"/>
	<path class="st0" d="M752.59,1015.36c2.11-1.24,3.54-3.53,3.54-6.16c0-3.95-3.2-7.15-7.15-7.15s-7.15,3.2-7.15,7.15
		c0,2.66,1.46,4.98,3.61,6.21v12.76l-22.11,22.15v21.81l7.09-0.03l0.06-18.08l22.11-21.93V1015.36z"/>

</svg>
